{"glyphs":{"0":{"ha":993,"x_min":75,"x_max":918,"o":"m 561 808 q 545 812 561 808 q 496 817 528 817 q 431 808 463 817 q 365 775 399 798 q 304 716 330 751 q 262 623 279 680 q 245 494 245 566 q 262 353 245 416 q 305 253 279 291 q 366 189 331 214 q 433 154 400 163 q 498 144 465 144 q 562 154 530 144 q 629 189 595 163 q 688 251 663 214 q 731 350 714 289 q 747 489 747 412 q 731 621 747 562 q 688 715 714 679 q 628 774 662 751 q 561 808 593 798 m 496 977 q 609 963 553 977 q 722 913 665 949 q 821 824 779 878 q 890 685 863 771 q 918 492 918 600 q 891 290 918 379 q 822 144 864 200 q 723 52 780 89 q 611 1 666 16 q 498 -14 555 -14 q 418 -6 458 -14 q 335 19 378 1 q 256 63 293 37 q 185 130 218 90 q 127 222 151 171 q 89 342 103 273 q 75 493 75 412 q 89 637 75 570 q 127 752 103 703 q 185 840 151 801 q 255 904 218 879 q 334 946 292 929 q 416 969 376 962 q 496 977 456 977 z "},"1":{"ha":993,"x_min":170,"x_max":880,"o":"m 451 964 l 646 964 l 646 157 l 880 157 l 880 0 l 207 0 l 207 157 l 450 157 l 450 795 l 235 722 l 170 863 l 451 964 z "},"2":{"ha":993,"x_min":127,"x_max":886,"o":"m 160 89 q 232 237 187 168 q 325 355 276 307 q 426 445 373 403 q 526 517 479 486 q 610 575 572 548 q 671 630 648 603 q 693 683 693 656 q 630 775 693 736 q 475 815 566 815 q 205 761 363 815 l 180 752 l 127 892 l 152 903 q 500 970 311 970 q 769 897 669 970 q 869 712 869 823 q 849 622 869 664 q 797 546 830 580 q 721 480 763 512 q 632 414 680 448 q 539 344 584 380 q 451 260 494 309 q 380 157 408 211 l 886 157 l 886 0 l 160 0 l 160 89 z "},"3":{"ha":993,"x_min":119,"x_max":863,"o":"m 161 903 q 301 954 220 932 q 472 975 382 975 q 724 907 627 975 q 821 732 821 840 q 792 617 821 670 q 713 530 764 564 q 826 438 790 496 q 863 305 863 379 q 743 62 863 154 q 425 -31 623 -31 q 144 24 275 -31 l 119 34 l 169 177 l 194 170 q 426 132 338 132 q 612 175 535 132 q 689 284 689 217 q 682 323 689 304 q 652 363 674 342 q 596 400 631 385 q 503 426 562 416 q 366 436 443 436 l 334 436 l 334 591 l 366 591 q 478 599 429 591 q 558 620 528 607 q 607 649 588 632 q 634 682 627 666 q 641 713 641 697 q 589 786 641 758 q 455 815 538 815 q 223 762 345 815 l 197 749 l 138 892 l 161 903 z "},"4":{"ha":1048,"x_min":81,"x_max":911,"o":"m 512 964 l 743 964 l 743 363 l 911 363 l 911 205 l 743 205 l 743 0 l 576 0 l 576 205 l 81 205 l 81 313 l 512 964 m 555 363 l 555 752 l 296 363 l 555 363 z "},"5":{"ha":993,"x_min":117,"x_max":888,"o":"m 165 964 l 857 964 l 857 806 l 338 806 l 338 630 q 463 635 407 635 q 615 621 547 635 q 728 582 684 607 q 806 526 773 557 q 856 458 838 495 q 881 389 873 422 q 888 321 888 355 q 883 261 888 291 q 862 197 877 231 q 825 134 848 163 q 764 76 802 104 q 679 30 726 49 q 563 -2 631 10 q 415 -14 496 -14 q 145 11 274 -14 l 117 16 l 151 174 l 178 168 q 405 146 278 146 q 533 157 477 146 q 621 185 589 168 q 675 225 654 202 q 703 268 696 248 q 711 311 711 289 q 703 352 711 332 q 675 396 696 373 q 624 436 655 419 q 539 465 592 454 q 420 477 487 477 q 196 460 337 477 l 165 457 l 165 964 z "},"6":{"ha":993,"x_min":115,"x_max":876,"o":"m 696 971 q 785 966 735 971 l 812 964 l 799 808 l 770 810 q 700 814 735 814 q 561 803 623 814 q 458 772 499 791 q 388 726 418 753 q 341 671 357 699 q 313 609 324 643 q 522 660 404 660 q 779 571 682 660 q 876 340 876 481 q 848 202 876 267 q 772 89 821 138 q 649 12 723 40 q 485 -17 574 -17 q 414 -12 448 -17 q 342 5 380 -7 q 273 37 304 17 q 211 89 241 56 q 160 163 181 121 q 127 264 140 205 q 115 396 115 324 q 145 628 115 527 q 229 792 176 728 q 357 898 281 857 q 515 955 433 939 q 696 971 598 971 m 644 459 q 612 484 644 459 q 492 509 580 509 q 343 460 404 509 q 283 336 283 412 q 346 196 283 258 q 500 134 409 134 q 647 191 585 134 q 709 328 709 249 q 644 459 709 410 z "},"7":{"ha":993,"x_min":89,"x_max":904,"o":"m 89 964 l 904 964 l 904 863 l 388 0 l 191 0 l 682 800 l 89 800 l 89 964 z "},"8":{"ha":993,"x_min":102,"x_max":891,"o":"m 491 824 q 378 791 423 824 q 333 716 333 758 q 347 673 333 693 q 378 641 360 654 q 426 615 396 627 q 477 595 456 602 q 529 581 498 589 q 632 649 602 622 q 663 710 663 677 q 613 794 663 764 q 491 824 564 824 m 715 297 q 697 369 715 337 q 643 424 678 401 q 567 462 607 446 q 473 491 527 477 q 329 413 382 465 q 276 302 276 360 q 339 191 276 239 q 507 144 402 144 q 659 188 602 144 q 715 297 715 233 m 491 977 q 751 911 665 977 q 837 728 837 845 q 809 627 837 672 q 725 538 781 581 q 850 429 809 493 q 891 288 891 364 q 866 177 891 231 q 794 81 841 124 q 670 12 747 38 q 500 -14 594 -14 q 215 67 328 -14 q 102 276 102 149 q 146 420 102 351 q 267 534 191 489 q 180 629 205 576 q 156 730 156 682 q 245 906 156 836 q 491 977 335 977 z "},"9":{"ha":993,"x_min":116,"x_max":877,"o":"m 509 977 q 579 972 545 977 q 650 956 612 968 q 720 923 688 943 q 781 871 751 903 q 832 796 811 838 q 865 694 852 754 q 877 562 877 634 q 861 390 877 468 q 817 254 845 312 q 746 150 788 195 q 655 75 704 104 q 547 25 606 45 q 426 -2 487 6 q 295 -10 364 -10 q 207 -6 250 -10 l 180 -3 l 193 153 l 221 150 q 292 146 250 146 q 440 160 376 146 q 545 193 505 173 q 613 245 585 214 q 655 308 642 277 q 678 378 669 338 q 471 328 586 328 q 215 415 313 328 q 116 637 116 502 q 144 768 116 706 q 223 876 173 830 q 348 950 273 922 q 509 977 422 977 m 492 827 q 346 771 410 827 q 283 648 283 715 q 348 528 283 577 q 500 478 413 478 q 647 526 586 478 q 708 640 708 574 q 643 767 708 708 q 492 827 578 827 z "}," ":{"ha":380,"x_min":0,"x_max":0,"o":""},"!":{"ha":441,"x_min":125,"x_max":316,"o":"m 125 163 l 316 163 l 316 -28 l 125 -28 l 125 163 m 135 991 l 306 991 l 306 283 l 135 283 l 135 991 z "},"\"":{"ha":539,"x_min":47,"x_max":492,"o":"m 311 1053 l 492 1053 l 492 707 l 311 707 l 311 1053 m 47 1053 l 228 1053 l 228 707 l 47 707 l 47 1053 z "},"#":{"ha":951,"x_min":3,"x_max":948,"o":"m 218 991 l 382 991 l 382 726 l 570 726 l 570 991 l 734 991 l 734 726 l 948 726 l 948 569 l 734 569 l 734 386 l 948 386 l 948 229 l 734 229 l 734 -48 l 570 -48 l 570 229 l 382 229 l 382 -48 l 218 -48 l 218 229 l 4 229 l 4 386 l 218 386 l 218 569 l 3 569 l 3 726 l 218 726 l 218 991 m 382 569 l 382 386 l 570 386 l 570 569 l 382 569 z "},"$":{"ha":925,"x_min":154,"x_max":792,"o":"m 355 656 q 379 626 355 640 q 441 601 403 612 q 527 577 480 589 q 620 547 574 564 q 705 506 667 529 q 768 448 744 484 q 792 368 792 412 q 782 306 792 336 q 748 243 772 275 q 676 187 724 212 q 564 151 629 162 l 564 -44 l 395 -44 l 395 144 q 179 193 293 149 l 154 203 l 205 332 l 231 322 q 336 288 294 297 q 430 279 379 279 q 571 298 530 279 q 613 356 613 317 q 587 387 612 374 q 524 411 562 401 q 439 433 485 422 q 347 461 393 445 q 263 500 301 478 q 201 559 225 523 q 178 643 178 596 q 189 700 178 671 q 222 757 199 728 q 290 810 245 786 q 395 845 335 833 l 395 1025 l 564 1025 l 564 857 q 651 849 618 855 q 735 830 685 844 l 763 823 l 717 692 l 691 699 q 519 722 603 722 q 397 701 439 722 q 355 656 355 681 z "},"%":{"ha":1013,"x_min":58,"x_max":991,"o":"m 279 832 q 214 742 214 832 q 279 638 214 638 q 346 739 346 638 q 279 832 346 832 m 279 952 q 332 947 307 952 q 386 927 358 942 q 433 889 413 912 q 467 828 454 867 q 480 741 480 790 q 423 579 480 640 q 279 519 366 519 q 209 530 241 519 q 150 567 177 542 q 107 636 123 591 q 92 741 92 681 q 146 897 92 842 q 279 952 201 952 m 837 236 q 770 330 837 330 q 704 239 704 330 q 771 136 704 136 q 837 236 837 136 m 771 450 q 823 445 798 450 q 873 425 848 439 q 917 386 899 410 q 947 325 935 363 q 959 238 959 287 q 906 77 959 137 q 770 17 853 17 q 697 28 731 17 q 634 64 663 40 q 587 134 604 89 q 570 239 570 178 q 630 394 570 338 q 771 450 689 450 m 807 964 l 991 964 l 242 0 l 58 0 l 807 964 z "},"&":{"ha":1078,"x_min":94,"x_max":1050,"o":"m 733 797 q 726 740 733 768 q 701 686 718 712 q 668 641 683 659 q 625 596 654 622 q 582 558 595 570 q 534 521 568 547 l 730 313 l 948 551 l 1050 448 l 831 205 l 1050 -28 l 836 -28 l 715 97 q 653 43 683 66 q 579 -6 623 20 q 479 -46 534 -32 q 363 -60 425 -60 q 166 12 239 -60 q 94 191 94 83 q 110 287 94 240 q 145 367 125 334 q 197 434 165 400 q 250 486 229 468 q 300 526 271 504 q 209 640 241 586 q 177 762 177 693 q 265 937 177 869 q 479 1004 353 1004 q 663 945 593 1004 q 733 797 733 886 m 468 852 q 381 822 417 852 q 346 755 346 793 q 348 738 346 746 q 355 719 349 729 q 364 703 360 709 q 378 685 368 696 q 394 668 389 674 q 413 648 399 663 q 433 628 427 634 q 532 708 513 689 q 565 775 565 742 q 539 828 565 805 q 468 852 513 852 m 405 418 q 360 381 376 395 q 323 346 344 368 q 291 308 302 325 q 271 268 279 290 q 263 222 263 245 q 302 133 263 170 q 402 96 342 96 q 510 125 459 96 q 612 203 560 155 l 405 418 z "},"'":{"ha":275,"x_min":47,"x_max":228,"o":"m 47 1053 l 228 1053 l 228 707 l 47 707 l 47 1053 z "},"(":{"ha":503,"x_min":121,"x_max":488,"o":"m 349 1086 l 488 1014 l 473 989 q 346 708 396 861 q 296 389 296 555 q 346 72 296 225 q 473 -205 397 -81 l 487 -229 l 353 -315 l 338 -291 q 264 -157 298 -227 q 196 2 230 -87 q 141 193 161 92 q 121 391 121 294 q 141 586 121 486 q 195 774 161 686 q 262 931 229 862 q 336 1064 296 1000 l 349 1086 z "},")":{"ha":503,"x_min":16,"x_max":382,"o":"m 382 391 q 361 191 382 293 q 307 -1 341 89 q 238 -159 272 -90 q 165 -291 204 -228 l 151 -315 l 16 -229 l 31 -205 q 157 72 106 -81 q 208 389 208 225 q 157 708 208 554 q 31 989 106 861 l 16 1014 l 154 1086 l 168 1064 q 241 931 207 1000 q 309 774 275 862 q 362 586 342 686 q 382 391 382 486 z "},"*":{"ha":811,"x_min":83,"x_max":728,"o":"m 319 991 l 492 991 l 482 801 l 641 905 l 728 754 l 558 669 l 728 583 l 641 432 l 482 536 l 492 347 l 319 347 l 329 536 l 170 432 l 83 583 l 254 669 l 83 754 l 170 905 l 329 801 l 319 991 z "},"+":{"ha":949,"x_min":57,"x_max":892,"o":"m 397 864 l 553 864 l 553 521 l 892 521 l 892 372 l 553 372 l 553 28 l 397 28 l 397 372 l 57 372 l 57 521 l 397 521 l 397 864 z "},",":{"ha":387,"x_min":-13,"x_max":299,"o":"m 117 143 l 299 143 l 170 -177 l -13 -177 l 117 143 z "},"-":{"ha":821,"x_min":91,"x_max":730,"o":"m 91 522 l 730 522 l 730 372 l 91 372 l 91 522 z "},".":{"ha":387,"x_min":94,"x_max":292,"o":"m 94 170 l 292 170 l 292 -28 l 94 -28 l 94 170 z "},"/":{"ha":492,"x_min":-12,"x_max":517,"o":"m 343 991 l 517 991 l 163 -89 l -12 -89 l 343 991 z "},":":{"ha":387,"x_min":94,"x_max":292,"o":"m 94 170 l 292 170 l 292 -28 l 94 -28 l 94 170 m 94 701 l 292 701 l 292 503 l 94 503 l 94 701 z "},";":{"ha":387,"x_min":-13,"x_max":299,"o":"m 117 143 l 299 143 l 170 -177 l -13 -177 l 117 143 m 94 701 l 292 701 l 292 503 l 94 503 l 94 701 z "},"<":{"ha":728,"x_min":40,"x_max":688,"o":"m 688 810 l 688 643 l 249 422 l 688 211 l 688 37 l 40 344 l 40 491 l 688 810 z "},"=":{"ha":949,"x_min":121,"x_max":828,"o":"m 121 368 l 828 368 l 828 210 l 121 210 l 121 368 m 121 675 l 828 675 l 828 517 l 121 517 l 121 675 z "},">":{"ha":728,"x_min":40,"x_max":688,"o":"m 40 810 l 688 491 l 688 344 l 40 37 l 40 211 l 479 422 l 40 643 l 40 810 z "},"?":{"ha":709,"x_min":32,"x_max":622,"o":"m 183 163 l 374 163 l 374 -28 l 183 -28 l 183 163 m 622 744 q 608 639 622 686 q 571 563 593 593 q 520 507 548 532 q 466 458 493 481 q 415 410 438 435 q 378 349 393 385 q 364 266 364 312 l 364 238 l 193 238 l 193 266 q 208 376 193 327 q 245 459 222 426 q 296 519 268 492 q 352 569 323 547 q 403 612 380 591 q 440 663 426 634 q 454 725 454 691 q 451 756 454 741 q 435 789 447 771 q 403 819 422 806 q 349 841 383 832 q 269 850 314 850 q 187 841 231 850 q 114 820 142 832 l 88 809 l 32 942 l 56 954 q 287 1002 154 1002 q 532 937 443 1002 q 622 744 622 871 z "},"@":{"ha":1424,"x_min":95,"x_max":1359,"o":"m 865 650 l 878 684 l 1002 684 l 1002 171 q 1013 71 1002 101 q 1061 41 1025 41 q 1088 49 1074 41 q 1122 77 1103 56 q 1155 131 1140 98 q 1179 219 1169 163 q 1190 346 1190 275 q 1178 492 1190 427 q 1135 618 1166 557 q 1056 721 1105 680 q 928 787 1006 762 q 746 812 850 812 q 597 794 665 812 q 480 745 529 776 q 394 672 432 715 q 332 585 355 630 q 292 487 308 539 q 271 389 277 435 q 264 297 264 343 q 288 132 264 208 q 352 2 311 56 q 446 -91 392 -52 q 562 -147 500 -129 q 690 -165 624 -165 q 876 -123 789 -165 l 900 -111 l 968 -240 l 943 -253 q 673 -317 819 -317 q 582 -311 628 -317 q 477 -288 535 -305 q 367 -243 418 -271 q 264 -170 315 -216 q 176 -64 213 -123 q 117 83 140 -4 q 95 274 95 170 q 104 415 95 347 q 136 554 113 483 q 193 686 159 625 q 282 802 228 747 q 405 894 336 856 q 568 955 473 932 q 774 977 663 977 q 963 957 878 977 q 1108 904 1048 937 q 1213 823 1168 871 q 1286 722 1259 774 q 1330 606 1313 670 q 1353 484 1347 542 q 1359 359 1359 425 q 1347 211 1359 279 q 1316 97 1335 144 q 1270 13 1297 50 q 1215 -45 1243 -24 q 1156 -81 1187 -67 q 1099 -101 1124 -96 q 1048 -106 1073 -106 q 941 -78 989 -106 q 867 -1 893 -50 q 698 -41 785 -41 q 470 54 559 -41 q 380 307 380 149 q 472 576 380 471 q 715 680 565 680 q 865 650 791 680 m 730 542 q 591 484 644 542 q 538 322 538 427 q 593 159 538 217 q 734 102 648 102 q 841 126 788 102 l 841 520 q 730 542 783 542 z "},"A":{"ha":1049,"x_min":88,"x_max":1038,"o":"m 470 964 l 657 964 l 1038 0 l 863 0 l 755 252 l 361 252 l 254 0 l 88 0 l 470 964 m 695 409 l 558 766 l 420 409 l 695 409 z "},"B":{"ha":1077,"x_min":197,"x_max":992,"o":"m 526 820 l 368 820 l 368 553 q 573 566 515 556 q 724 684 714 592 q 724 699 724 691 q 717 739 724 720 q 690 777 709 758 q 629 808 671 797 q 526 820 587 820 m 536 444 q 368 437 531 444 l 368 157 l 519 157 q 566 158 547 157 q 619 161 585 158 q 677 169 653 163 q 731 184 702 174 q 778 208 760 194 q 809 244 796 222 q 821 294 821 267 q 744 404 821 364 q 536 444 667 444 m 197 964 l 564 964 q 677 954 626 964 q 764 929 728 945 q 826 893 799 914 q 870 849 854 871 q 896 803 886 827 q 909 758 906 778 q 913 718 913 738 q 888 625 913 672 q 825 545 863 577 q 946 447 901 513 q 992 302 992 381 q 988 257 992 280 q 970 203 983 233 q 937 145 958 172 q 881 90 916 117 q 800 44 846 63 q 686 12 753 24 q 538 0 618 0 l 197 0 l 197 964 z "},"C":{"ha":1095,"x_min":186,"x_max":1063,"o":"m 736 970 q 1024 917 888 970 l 1049 907 l 996 760 l 970 769 q 732 813 838 813 q 576 786 648 813 q 457 712 505 758 q 384 606 410 666 q 358 481 358 547 q 386 354 358 414 q 465 247 414 293 q 592 175 515 201 q 760 148 669 148 q 982 187 871 148 l 1007 196 l 1063 60 l 1038 50 q 727 -14 890 -14 q 497 25 600 -14 q 326 131 393 64 q 223 288 259 199 q 186 481 186 378 q 224 675 186 585 q 330 830 261 764 q 504 933 399 896 q 736 970 608 970 z "},"D":{"ha":1200,"x_min":202,"x_max":1092,"o":"m 549 806 l 373 806 l 373 157 l 497 157 q 574 159 544 157 q 654 168 605 160 q 739 191 704 176 q 811 235 774 205 q 874 307 849 264 q 920 488 920 384 q 904 597 920 547 q 860 682 887 648 q 795 742 832 716 q 720 782 758 768 q 642 802 682 796 q 549 806 608 806 m 544 964 q 711 949 635 964 q 844 911 788 935 q 943 852 899 886 q 1014 778 986 817 q 1060 692 1042 739 q 1085 602 1078 646 q 1092 510 1092 557 q 1082 390 1092 448 q 1046 272 1072 332 q 980 164 1020 212 q 874 78 939 116 q 726 21 810 39 q 631 6 684 12 q 546 1 579 1 q 452 0 512 0 l 202 0 l 202 964 l 544 964 z "},"E":{"ha":981,"x_min":197,"x_max":873,"o":"m 197 0 l 197 964 l 873 964 l 873 806 l 368 806 l 368 575 l 836 575 l 836 418 l 368 418 l 368 157 l 873 157 l 873 0 l 197 0 z "},"F":{"ha":958,"x_min":197,"x_max":866,"o":"m 368 806 l 368 575 l 825 575 l 825 418 l 368 418 l 368 0 l 197 0 l 197 964 l 866 964 l 866 806 l 368 806 z "},"G":{"ha":1190,"x_min":146,"x_max":1088,"o":"m 1088 140 q 687 -14 948 -14 q 484 15 576 -14 q 330 92 392 44 q 226 204 269 140 q 165 338 184 269 q 146 481 146 408 q 167 629 146 557 q 232 762 188 700 q 339 871 277 825 q 491 944 402 918 q 685 971 580 971 q 1030 886 877 971 l 1054 872 l 983 738 l 958 751 q 838 794 910 775 q 692 814 765 814 q 553 791 620 814 q 433 728 486 769 q 349 625 380 688 q 317 488 317 562 q 369 311 317 389 q 512 188 420 232 q 717 144 603 144 q 921 201 842 144 l 921 386 l 619 386 l 619 536 l 1088 536 l 1088 140 z "},"H":{"ha":1196,"x_min":197,"x_max":1054,"o":"m 883 964 l 1054 964 l 1054 0 l 883 0 l 883 418 l 368 418 l 368 0 l 197 0 l 197 964 l 368 964 l 368 576 l 883 576 l 883 964 z "},"I":{"ha":551,"x_min":217,"x_max":388,"o":"m 217 964 l 388 964 l 388 0 l 217 0 l 217 964 z "},"J":{"ha":758,"x_min":75,"x_max":620,"o":"m 449 964 l 620 964 l 620 347 q 617 279 620 310 q 604 210 614 248 q 578 142 594 172 q 532 82 562 112 q 464 33 503 52 q 368 1 425 13 q 240 -12 311 -12 q 100 5 168 -12 l 75 12 l 103 163 l 132 156 q 221 146 174 146 q 302 154 266 146 q 362 175 338 163 q 402 207 385 188 q 428 243 420 226 q 442 282 437 260 q 448 317 447 304 q 449 348 449 331 l 449 964 z "},"K":{"ha":1072,"x_min":197,"x_max":1050,"o":"m 368 522 l 807 964 l 1026 964 l 563 503 l 1050 0 l 829 0 l 368 467 l 368 0 l 197 0 l 197 964 l 368 964 l 368 522 z "},"L":{"ha":880,"x_min":197,"x_max":856,"o":"m 197 964 l 368 964 l 368 157 l 856 157 l 856 0 l 197 0 l 197 964 z "},"M":{"ha":1389,"x_min":197,"x_max":1246,"o":"m 197 964 l 404 964 l 724 410 l 1049 964 l 1246 964 l 1246 0 l 1076 0 l 1076 721 l 802 276 l 640 276 l 368 721 l 368 0 l 197 0 l 197 964 z "},"N":{"ha":1236,"x_min":197,"x_max":1094,"o":"m 197 964 l 385 964 l 923 223 l 923 964 l 1094 964 l 1094 0 l 903 0 l 368 742 l 368 0 l 197 0 l 197 964 z "},"O":{"ha":1255,"x_min":146,"x_max":1163,"o":"m 655 974 q 917 916 802 974 q 1097 748 1031 859 q 1163 492 1163 638 q 1099 230 1163 345 q 918 53 1034 116 q 650 -10 801 -10 q 460 21 550 -10 q 300 111 371 52 q 188 265 229 170 q 146 479 146 360 q 211 741 146 628 q 391 914 276 854 q 655 974 507 974 m 744 805 q 721 811 744 805 q 648 817 697 817 q 553 805 600 817 q 465 768 507 793 q 391 705 422 743 q 340 613 359 668 q 321 493 321 559 q 418 241 321 336 q 660 146 515 146 q 777 166 720 146 q 882 224 833 186 q 959 330 930 263 q 988 481 988 396 q 968 607 988 550 q 914 703 947 665 q 836 767 880 741 q 744 805 791 793 z "},"P":{"ha":1019,"x_min":197,"x_max":947,"o":"m 197 964 l 543 964 q 593 963 572 964 q 649 960 614 963 q 710 952 684 958 q 768 938 735 947 q 824 915 801 928 q 872 881 848 902 q 912 834 897 860 q 937 772 927 808 q 947 692 947 736 q 931 583 947 631 q 889 500 915 534 q 824 443 864 467 q 744 406 785 419 q 650 384 704 392 q 552 374 597 376 q 451 372 508 372 q 368 374 423 372 l 368 0 l 197 0 l 197 964 m 368 806 l 368 532 q 463 528 420 528 q 543 530 509 528 q 615 536 576 532 q 679 551 653 541 q 728 577 705 562 q 761 617 750 593 q 772 674 772 642 q 763 725 772 703 q 734 761 753 747 q 692 785 715 775 q 637 799 669 794 q 576 805 605 803 q 508 806 547 806 l 368 806 z "},"Q":{"ha":1268,"x_min":146,"x_max":1195,"o":"m 655 974 q 1025 840 886 974 q 1163 481 1163 705 q 1070 168 1163 296 l 1195 51 l 1095 -50 l 960 74 q 656 -10 830 -10 q 455 23 548 -10 q 293 117 361 56 q 185 271 224 178 q 146 478 146 364 q 211 741 146 628 q 391 914 275 854 q 655 974 506 974 m 645 817 q 553 806 598 817 q 466 769 508 794 q 391 706 423 743 q 340 613 359 669 q 321 490 321 557 q 349 341 321 408 q 426 233 378 275 q 538 169 475 191 q 671 146 601 146 q 831 182 760 146 l 605 365 l 725 470 l 943 286 q 985 466 985 358 q 963 610 985 547 q 905 711 940 673 q 823 774 870 749 q 733 808 777 799 q 645 817 690 817 z "},"R":{"ha":1086,"x_min":197,"x_max":1023,"o":"m 943 688 q 932 600 943 642 q 897 519 921 558 q 831 450 873 481 q 732 403 789 420 l 1023 0 l 801 0 l 531 374 l 368 374 l 368 0 l 197 0 l 197 964 l 607 964 q 663 962 637 964 q 725 954 688 960 q 789 937 761 947 q 847 905 817 926 q 898 856 878 884 q 930 784 918 827 q 943 688 943 741 m 368 807 l 368 531 l 525 531 q 597 534 566 531 q 661 545 628 536 q 716 568 694 553 q 751 610 737 583 q 765 672 765 636 q 557 807 765 807 l 368 807 z "},"S":{"ha":1034,"x_min":163,"x_max":947,"o":"m 629 972 q 895 932 764 972 l 923 924 l 867 767 l 842 774 q 618 808 719 808 q 447 776 518 808 q 376 692 376 743 q 408 634 376 659 q 490 592 439 609 q 601 557 540 574 q 722 518 661 541 q 833 467 783 496 q 915 389 884 437 q 947 277 947 340 q 933 197 947 237 q 886 119 919 157 q 805 51 853 80 q 681 4 756 22 q 513 -14 606 -14 q 346 4 420 -14 q 188 54 271 21 l 163 63 l 220 227 l 247 217 q 530 156 418 156 q 699 188 634 156 q 764 272 764 220 q 744 324 764 301 q 691 363 724 347 q 615 393 658 379 q 524 419 572 406 q 429 447 477 432 q 339 483 382 462 q 262 530 296 504 q 210 596 229 557 q 190 685 190 636 q 310 890 190 807 q 629 972 429 972 z "},"T":{"ha":932,"x_min":58,"x_max":928,"o":"m 58 964 l 928 964 l 928 806 l 578 806 l 578 0 l 408 0 l 408 806 l 58 806 l 58 964 z "},"U":{"ha":1178,"x_min":197,"x_max":1036,"o":"m 616 -14 q 200 255 233 -14 q 197 329 197 284 l 197 338 l 197 964 l 368 964 l 368 353 q 377 268 368 302 q 417 205 387 233 q 616 142 483 142 q 775 176 712 142 q 856 271 838 210 q 865 353 865 301 l 865 964 l 1034 964 q 1035 617 1034 752 q 1035 445 1035 483 q 1035 385 1035 408 q 1036 347 1036 361 q 1034 289 1036 315 q 1023 224 1032 264 q 998 155 1014 185 q 950 92 982 125 q 876 37 919 58 q 766 1 833 15 q 616 -14 700 -14 z "},"V":{"ha":1061,"x_min":95,"x_max":1043,"o":"m 95 964 l 291 964 l 574 184 l 857 964 l 1043 964 l 670 0 l 467 0 l 95 964 z "},"W":{"ha":1635,"x_min":95,"x_max":1614,"o":"m 95 964 l 275 964 l 497 223 l 776 964 l 933 964 l 1162 223 l 1434 964 l 1614 964 l 1244 0 l 1081 0 l 849 737 l 576 0 l 413 0 l 95 964 z "},"X":{"ha":1039,"x_min":75,"x_max":1068,"o":"m 831 964 l 1031 964 l 692 505 l 1068 0 l 852 0 l 568 384 l 285 0 l 75 0 l 456 503 l 117 964 l 323 964 l 581 623 l 831 964 z "},"Y":{"ha":968,"x_min":68,"x_max":986,"o":"m 68 964 l 270 964 l 528 590 l 791 964 l 986 964 l 616 450 l 616 0 l 425 0 l 425 450 l 68 964 z "},"Z":{"ha":1032,"x_min":105,"x_max":991,"o":"m 125 964 l 973 964 l 973 860 l 351 157 l 991 157 l 991 0 l 105 0 l 105 105 l 713 806 l 125 806 l 125 964 z "},"[":{"ha":534,"x_min":142,"x_max":508,"o":"m 142 1053 l 508 1053 l 508 896 l 309 896 l 309 -149 l 508 -149 l 508 -306 l 142 -306 l 142 1053 z "},"\\":{"ha":492,"x_min":-25,"x_max":504,"o":"m -25 991 l 149 991 l 504 -89 l 330 -89 l -25 991 z "},"]":{"ha":528,"x_min":26,"x_max":393,"o":"m 26 1053 l 393 1053 l 393 -306 l 26 -306 l 26 -149 l 226 -149 l 226 896 l 26 896 l 26 1053 z "},"^":{"ha":1003,"x_min":260,"x_max":704,"o":"m 492 1086 l 704 850 l 601 751 l 483 883 l 362 752 l 260 844 l 492 1086 z "},"_":{"ha":787,"x_min":74,"x_max":713,"o":"m 74 130 l 713 130 l 713 -28 l 74 -28 l 74 130 z "},"`":{"ha":761,"x_min":148,"x_max":614,"o":"m 224 1114 l 614 875 l 543 754 l 148 982 l 224 1114 z "},"a":{"ha":836,"x_min":83,"x_max":714,"o":"m 405 683 q 533 670 478 683 q 623 635 589 656 q 677 581 656 613 q 706 514 699 548 q 714 439 714 481 l 714 0 l 589 0 l 570 44 q 365 -14 480 -14 q 161 45 239 -14 q 83 185 83 104 q 109 273 83 235 q 176 332 134 310 q 279 369 217 355 q 405 389 342 383 q 547 395 467 394 l 547 418 q 542 460 547 444 q 523 496 538 477 q 473 525 508 515 q 384 535 438 535 q 182 505 308 535 l 155 498 l 121 631 l 144 640 q 405 683 270 683 m 547 173 l 547 269 l 530 269 q 327 252 393 269 q 260 197 260 236 q 300 151 260 173 q 400 130 341 130 q 547 173 484 130 z "},"b":{"ha":913,"x_min":129,"x_max":826,"o":"m 129 1025 l 296 1025 l 296 654 q 474 684 383 684 q 573 674 526 684 q 668 639 621 664 q 749 576 715 614 q 805 478 783 538 q 826 342 826 418 q 725 81 826 176 q 451 -14 624 -14 q 262 22 349 -14 l 252 0 l 129 0 l 129 1025 m 429 536 q 296 513 362 536 l 296 149 q 432 130 364 130 q 492 134 463 130 q 553 152 522 139 q 608 186 585 165 q 647 243 631 208 q 662 325 662 279 q 646 415 662 376 q 607 476 631 454 q 551 513 583 498 q 489 531 518 527 q 429 536 460 536 z "},"c":{"ha":790,"x_min":88,"x_max":719,"o":"m 88 321 q 110 463 88 400 q 169 566 132 526 q 257 633 205 606 q 364 671 308 660 q 484 682 420 682 q 695 640 598 682 l 719 630 l 675 498 l 648 507 q 500 531 578 531 q 408 522 450 531 q 330 493 366 513 q 272 435 293 473 q 252 342 252 396 q 515 134 252 134 q 640 155 581 134 l 667 163 l 712 35 l 687 26 q 468 -14 585 -14 q 355 -4 408 -14 q 252 30 302 5 q 166 91 202 54 q 110 186 131 127 q 88 321 88 245 z "},"d":{"ha":917,"x_min":88,"x_max":788,"o":"m 88 324 q 190 590 88 496 q 463 684 292 684 q 621 661 543 684 l 621 1025 l 788 1025 l 788 0 l 665 0 l 651 31 q 441 -14 553 -14 q 339 -3 388 -14 q 244 33 290 7 q 163 95 197 58 q 109 192 130 133 q 88 324 88 251 m 484 134 q 621 157 554 134 l 621 520 q 482 541 549 541 q 423 536 452 541 q 362 518 395 532 q 307 484 330 505 q 268 426 283 463 q 252 340 252 389 q 268 254 252 292 q 307 194 283 216 q 362 157 330 172 q 424 138 395 143 q 484 134 453 134 z "},"e":{"ha":859,"x_min":88,"x_max":770,"o":"m 476 683 q 581 670 534 683 q 657 638 627 658 q 710 588 688 619 q 743 529 732 557 q 761 462 755 501 q 769 395 768 422 q 770 331 770 368 l 770 255 l 267 255 q 347 168 281 205 q 522 131 414 131 q 678 154 599 131 l 706 162 l 739 33 l 715 25 q 473 -14 602 -14 q 315 6 384 -14 q 204 57 245 26 q 135 132 162 88 q 98 220 109 176 q 88 315 88 264 q 110 451 88 389 q 168 556 131 513 q 255 627 205 598 q 360 670 304 656 q 476 683 416 683 m 448 531 q 323 492 370 531 q 268 395 277 453 l 606 395 q 560 499 601 468 q 448 531 519 531 z "},"f":{"ha":667,"x_min":92,"x_max":689,"o":"m 202 710 q 202 746 202 732 q 205 783 203 760 q 213 823 208 807 q 228 860 218 838 q 252 895 238 881 q 288 924 266 909 q 337 948 309 939 q 403 963 365 958 q 487 969 441 969 q 665 941 572 969 l 689 934 l 661 798 l 633 805 q 532 821 568 821 q 409 793 449 821 q 369 715 369 765 l 369 670 l 637 670 l 637 527 l 369 527 l 369 0 l 202 0 l 202 527 l 92 527 l 92 670 l 202 670 l 202 710 z "},"g":{"ha":909,"x_min":87,"x_max":787,"o":"m 460 684 q 651 641 549 684 l 661 670 l 787 670 l 787 -14 q 782 -84 787 -50 q 765 -153 777 -117 q 734 -220 753 -189 q 685 -278 715 -250 q 615 -325 654 -306 q 521 -356 576 -345 q 401 -367 467 -367 q 155 -321 272 -367 l 130 -311 l 181 -179 l 209 -189 q 384 -218 298 -218 q 487 -204 444 -218 q 556 -169 531 -191 q 596 -116 581 -148 q 615 -55 611 -84 q 620 11 620 -25 l 620 17 q 448 -14 534 -14 q 344 -2 394 -14 q 246 35 294 9 q 164 101 199 62 q 108 199 129 140 q 87 333 87 259 q 112 471 87 410 q 175 572 136 533 q 265 636 214 610 q 365 673 316 663 q 460 684 413 684 m 469 538 q 316 485 374 538 q 259 345 259 433 q 317 193 259 252 q 484 134 376 134 q 620 158 552 134 l 620 512 q 469 538 532 538 z "},"h":{"ha":909,"x_min":129,"x_max":787,"o":"m 472 528 q 296 490 394 528 l 296 0 l 129 0 l 129 1025 l 296 1025 l 296 635 q 523 682 418 682 q 618 670 576 682 q 687 641 660 659 q 734 596 714 623 q 764 544 753 568 q 780 486 774 519 q 786 431 785 452 q 787 381 787 410 l 787 0 l 622 0 l 622 391 q 472 528 622 528 z "},"i":{"ha":411,"x_min":112,"x_max":299,"o":"m 112 964 l 299 964 l 299 780 l 112 780 l 112 964 m 122 670 l 289 670 l 289 0 l 122 0 l 122 670 z "},"j":{"ha":411,"x_min":12,"x_max":309,"o":"m 121 964 l 309 964 l 309 780 l 121 780 l 121 964 m 132 670 l 298 670 l 298 -65 q 298 -105 298 -88 q 293 -149 297 -122 q 281 -196 288 -176 q 259 -242 273 -217 q 224 -287 244 -267 q 172 -327 203 -307 q 101 -361 140 -347 l 78 -369 l 12 -237 l 38 -225 q 132 -77 132 -181 l 132 670 z "},"k":{"ha":839,"x_min":122,"x_max":822,"o":"m 289 401 l 610 684 l 812 684 l 466 377 l 822 0 l 617 0 l 289 334 l 289 0 l 122 0 l 122 1025 l 289 1025 l 289 401 z "},"l":{"ha":438,"x_min":136,"x_max":302,"o":"m 136 1025 l 302 1025 l 302 0 l 136 0 l 136 1025 z "},"m":{"ha":1343,"x_min":122,"x_max":1218,"o":"m 448 525 q 289 488 389 525 l 289 0 l 122 0 l 122 670 l 246 670 l 265 626 q 502 683 385 683 q 684 616 618 683 q 954 682 810 682 q 1063 667 1016 682 q 1140 627 1111 652 q 1186 565 1168 602 q 1211 487 1204 527 q 1218 397 1218 448 l 1218 0 l 1051 0 l 1051 395 q 1018 492 1051 459 q 909 525 984 525 q 747 488 846 525 q 753 393 753 453 l 753 0 l 586 0 l 586 398 q 448 525 586 525 z "},"n":{"ha":899,"x_min":122,"x_max":777,"o":"m 122 670 l 239 670 l 262 624 q 522 684 401 684 q 634 666 587 684 q 709 622 682 648 q 752 555 736 595 q 772 478 768 515 q 777 395 777 441 l 777 0 l 610 0 l 610 393 q 609 426 610 412 q 599 461 607 440 q 576 495 591 481 q 533 518 562 508 q 465 528 505 528 q 289 490 386 528 l 289 0 l 122 0 l 122 670 z "},"o":{"ha":932,"x_min":88,"x_max":844,"o":"m 471 683 q 742 594 639 683 q 844 347 844 506 q 740 83 844 180 q 458 -14 635 -14 q 189 78 290 -14 q 88 328 88 169 q 191 587 88 492 q 471 683 294 683 m 460 532 q 361 513 408 532 q 284 449 315 493 q 252 345 252 405 q 313 197 252 257 q 472 137 374 137 q 621 189 561 137 q 680 328 680 241 q 661 417 680 377 q 609 482 641 458 q 538 519 577 507 q 460 532 500 532 z "},"p":{"ha":909,"x_min":122,"x_max":822,"o":"m 474 683 q 572 673 525 683 q 666 638 620 663 q 746 575 712 613 q 801 478 780 538 q 822 342 822 418 q 722 81 822 176 q 451 -14 621 -14 q 296 9 372 -14 l 296 -360 l 122 -360 l 122 670 l 245 670 l 261 638 q 474 683 365 683 m 430 535 q 296 511 363 535 l 296 150 q 432 130 366 130 q 491 134 463 130 q 551 152 519 139 q 605 186 582 165 q 643 243 628 208 q 658 325 658 279 q 643 415 658 376 q 604 476 627 454 q 549 512 581 498 q 489 531 517 526 q 430 535 460 535 z "},"q":{"ha":902,"x_min":87,"x_max":780,"o":"m 453 684 q 649 641 541 684 l 661 670 l 780 670 l 780 -360 l 613 -360 l 613 18 q 435 -14 524 -14 q 335 -3 383 -14 q 241 33 287 7 q 162 96 195 58 q 107 195 128 134 q 87 331 87 255 q 117 486 87 417 q 198 597 147 555 q 315 662 250 640 q 453 684 380 684 m 461 538 q 308 485 366 538 q 251 341 251 433 q 266 254 251 292 q 304 194 281 216 q 359 158 328 172 q 419 139 391 144 q 479 134 448 134 q 613 158 546 134 l 613 512 q 461 538 524 538 z "},"r":{"ha":642,"x_min":122,"x_max":642,"o":"m 253 634 q 479 683 359 683 q 618 654 555 683 l 642 643 l 589 504 l 563 514 q 460 532 515 532 q 289 500 371 532 l 289 0 l 122 0 l 122 670 l 233 670 l 253 634 z "},"s":{"ha":800,"x_min":88,"x_max":726,"o":"m 547 200 q 521 230 546 217 q 458 253 496 243 q 373 274 419 263 q 281 301 327 285 q 197 338 235 317 q 136 394 159 359 q 112 474 112 429 q 122 527 112 500 q 157 583 132 554 q 222 633 183 612 q 328 669 262 655 q 476 683 393 683 q 564 678 525 683 q 620 669 604 673 q 669 654 636 665 l 697 646 l 651 509 l 625 516 q 454 541 537 541 q 380 535 412 541 q 331 521 348 529 q 304 503 315 513 q 292 485 294 492 q 289 472 289 478 q 313 444 289 456 q 376 420 337 431 q 461 398 414 410 q 554 369 507 386 q 640 330 601 352 q 702 275 678 309 q 726 199 726 241 q 718 142 726 170 q 685 86 709 115 q 623 36 661 57 q 521 0 585 14 q 373 -14 456 -14 q 113 39 243 -14 l 88 50 l 138 185 l 164 175 q 379 130 286 130 q 507 147 466 130 q 547 200 547 164 z "},"t":{"ha":637,"x_min":47,"x_max":594,"o":"m 568 12 q 401 -14 469 -14 q 291 -1 337 -14 q 218 32 244 12 q 176 84 191 52 q 156 145 161 115 q 151 215 151 175 l 151 527 l 47 527 l 47 670 l 151 670 l 151 862 l 318 862 l 318 670 l 564 670 l 564 527 l 318 527 l 318 227 q 324 194 318 210 q 342 163 330 178 q 381 138 355 147 q 442 129 407 129 q 541 142 460 129 l 568 147 l 594 19 l 568 12 z "},"u":{"ha":909,"x_min":122,"x_max":787,"o":"m 621 670 l 787 670 l 787 0 l 663 0 l 644 45 q 381 -14 507 -14 q 267 4 315 -14 q 192 48 219 21 q 148 115 164 75 q 127 191 132 155 q 122 274 122 228 l 122 670 l 289 670 l 289 275 q 291 244 289 258 q 300 210 292 231 q 323 176 309 189 q 368 152 338 162 q 439 142 398 142 q 621 179 520 142 l 621 670 z "},"v":{"ha":785,"x_min":44,"x_max":764,"o":"m 764 670 l 500 0 l 320 0 l 44 670 l 237 670 l 414 176 l 589 670 l 764 670 z "},"w":{"ha":1310,"x_min":41,"x_max":1293,"o":"m 41 670 l 219 670 l 380 173 l 588 670 l 738 670 l 897 172 l 1114 670 l 1293 670 l 972 0 l 820 0 l 662 481 l 450 0 l 298 0 l 41 670 z "},"x":{"ha":827,"x_min":44,"x_max":827,"o":"m 44 670 l 241 670 l 444 425 l 640 670 l 827 670 l 551 329 l 814 0 l 616 0 l 423 231 l 239 0 l 52 0 l 318 330 l 44 670 z "},"y":{"ha":830,"x_min":34,"x_max":822,"o":"m 34 670 l 225 670 l 446 155 l 646 670 l 822 670 l 387 -360 l 183 -360 l 349 -5 l 34 670 z "},"z":{"ha":842,"x_min":102,"x_max":741,"o":"m 102 670 l 724 670 l 724 584 l 340 143 l 741 143 l 741 0 l 102 0 l 102 86 l 479 527 l 102 527 l 102 670 z "},"{":{"ha":562,"x_min":33,"x_max":537,"o":"m 198 625 q 204 687 201 645 q 208 735 207 728 q 239 869 214 810 q 293 960 263 927 q 360 1014 322 992 q 426 1043 398 1036 q 481 1053 454 1050 l 505 1055 l 537 913 l 507 909 q 446 886 474 905 q 400 841 418 867 q 371 761 380 810 q 358 662 361 712 q 349 561 355 612 q 318 459 342 509 q 252 372 294 409 q 318 285 294 336 q 349 183 342 235 q 359 82 356 132 q 371 -16 362 33 q 400 -96 380 -64 q 446 -141 418 -122 q 507 -164 474 -159 l 537 -168 l 505 -309 l 481 -307 q 430 -298 456 -305 q 365 -271 403 -292 q 296 -218 327 -250 q 240 -129 266 -186 q 208 1 215 -72 q 203 58 206 16 q 198 121 201 100 q 186 174 195 142 q 162 230 178 206 q 122 271 146 253 q 56 298 92 292 l 33 302 l 33 443 l 56 446 q 149 498 111 455 q 198 625 187 542 z "},"|":{"ha":600,"x_min":216,"x_max":383,"o":"m 216 1114 l 383 1114 l 383 -237 l 216 -237 l 216 1114 z "},"}":{"ha":562,"x_min":24,"x_max":528,"o":"m 354 735 q 358 687 355 728 q 363 625 361 645 q 412 498 374 542 q 505 446 451 455 l 528 443 l 528 302 l 505 298 q 439 271 469 292 q 399 230 415 253 q 375 174 383 206 q 364 121 367 142 q 358 58 361 100 q 354 1 355 16 q 321 -129 347 -72 q 265 -218 296 -186 q 197 -271 235 -250 q 132 -298 159 -292 q 81 -307 105 -305 l 57 -309 l 24 -168 l 55 -164 q 116 -141 87 -159 q 161 -96 144 -122 q 191 -16 182 -64 q 202 82 199 33 q 212 183 205 132 q 243 285 219 235 q 310 372 267 336 q 243 459 267 409 q 213 561 220 509 q 203 662 206 612 q 191 761 200 712 q 161 841 182 810 q 116 886 144 867 q 55 909 87 905 l 24 913 l 57 1055 l 81 1053 q 126 1045 103 1050 q 179 1026 149 1039 q 237 990 210 1014 q 289 933 264 966 q 331 849 313 901 q 354 735 348 798 z "},"~":{"ha":949,"x_min":208,"x_max":768,"o":"m 594 950 q 617 974 609 950 q 633 1040 625 998 q 635 1053 634 1049 l 640 1080 l 768 1059 l 762 1031 q 757 1004 761 1025 q 750 972 753 982 q 743 941 748 962 q 731 908 737 920 q 717 879 726 896 q 697 851 708 861 q 671 831 686 842 q 638 817 657 821 q 598 812 620 812 q 517 834 555 814 q 457 877 479 854 q 414 918 435 899 q 382 937 393 937 q 368 929 374 937 q 357 906 361 921 q 350 878 353 892 q 343 845 347 864 q 342 837 342 840 l 337 810 l 208 828 l 214 857 q 219 882 216 863 q 224 909 222 900 q 231 938 227 919 q 240 967 236 956 q 252 994 244 978 q 267 1020 259 1010 q 286 1042 275 1030 q 311 1059 298 1053 q 341 1070 324 1065 q 378 1074 359 1074 q 459 1053 421 1072 q 520 1010 498 1033 q 563 969 543 987 q 594 950 583 950 z "}," ":{"ha":380,"x_min":0,"x_max":0,"o":""},"¡":{"ha":441,"x_min":125,"x_max":316,"o":"m 135 613 l 306 613 l 306 -306 l 135 -306 l 135 613 m 125 924 l 316 924 l 316 732 l 125 732 l 125 924 z "},"¢":{"ha":692,"x_min":74,"x_max":649,"o":"m 340 861 l 340 1053 l 478 1053 l 478 868 q 625 828 545 862 l 649 818 l 605 686 l 578 694 q 440 719 509 719 q 288 664 339 719 q 237 507 237 610 q 247 421 237 459 q 272 359 256 384 q 309 316 289 334 q 355 289 330 298 q 404 276 380 280 q 454 272 428 272 q 570 293 511 272 l 597 302 l 642 174 l 617 164 q 478 129 540 134 l 478 -72 l 340 -72 l 340 132 q 236 168 283 142 q 152 235 189 193 q 95 341 115 277 q 74 484 74 404 q 143 734 74 634 q 340 861 212 834 z "},"£":{"ha":882,"x_min":75,"x_max":806,"o":"m 241 119 l 241 421 l 121 421 l 121 568 l 241 568 l 241 636 q 262 782 241 718 q 318 886 283 846 q 400 952 353 926 q 496 988 448 978 q 598 998 545 998 q 766 971 680 998 l 794 962 l 742 829 l 718 835 q 613 850 659 850 q 526 838 563 850 q 467 806 489 826 q 431 754 444 785 q 412 691 417 724 q 408 618 408 659 l 408 568 l 767 568 l 767 421 l 408 421 l 408 119 l 806 119 l 806 -28 l 75 -28 l 75 119 l 241 119 z "},"¤":{"ha":882,"x_min":86,"x_max":795,"o":"m 553 739 l 671 857 l 795 732 l 677 615 q 703 503 703 562 q 677 391 703 443 l 794 274 l 670 150 l 553 267 q 440 241 500 241 q 328 266 379 241 l 211 149 l 87 273 l 204 390 q 178 503 178 444 q 204 616 178 562 l 86 734 l 210 858 l 329 739 q 441 765 382 765 q 553 739 500 765 m 516 582 q 501 598 516 582 q 441 614 485 614 q 365 582 397 614 q 333 503 333 549 q 364 424 333 456 q 440 392 395 392 q 516 425 484 392 q 548 503 548 457 q 516 582 548 549 z "},"¥":{"ha":882,"x_min":49,"x_max":833,"o":"m 49 991 l 239 991 l 441 613 l 650 991 l 833 991 l 544 502 l 714 502 l 714 361 l 518 361 l 518 281 l 714 281 l 714 141 l 518 141 l 518 -28 l 354 -28 l 354 141 l 168 141 l 168 281 l 354 281 l 354 361 l 168 361 l 168 502 l 329 502 l 49 991 z "},"¦":{"ha":600,"x_min":216,"x_max":383,"o":"m 216 340 l 383 340 l 383 -237 l 216 -237 l 216 340 m 216 1114 l 383 1114 l 383 540 l 216 540 l 216 1114 z "},"§":{"ha":770,"x_min":73,"x_max":689,"o":"m 633 970 l 661 962 l 612 820 l 587 828 q 425 853 507 853 q 321 832 361 853 q 281 779 281 812 q 299 744 281 760 q 345 717 317 728 q 410 693 374 706 q 485 667 447 680 q 560 635 524 654 q 625 594 597 616 q 671 538 654 572 q 689 463 689 504 q 643 323 689 384 q 688 208 688 275 q 682 154 688 180 q 662 99 675 127 q 622 45 648 70 q 560 1 595 21 q 472 -30 525 -19 q 355 -41 420 -41 l 347 -41 q 98 5 216 -41 l 73 15 l 123 150 l 149 141 q 346 102 260 102 q 505 194 505 102 q 488 229 505 214 q 443 254 471 244 q 378 276 414 264 q 305 299 342 288 q 231 329 267 311 q 167 371 195 348 q 122 429 139 393 q 104 510 104 465 q 153 639 104 580 q 104 764 104 690 q 114 825 104 795 q 149 888 124 856 q 211 945 174 920 q 308 985 248 969 q 441 1000 368 1000 q 486 999 465 1000 q 522 996 508 997 q 555 990 535 994 q 582 984 575 985 q 609 977 588 983 q 633 970 630 970 m 294 558 q 281 523 281 543 q 291 498 281 510 q 314 477 300 486 q 351 459 328 469 q 394 443 374 450 q 445 426 414 436 q 495 409 475 416 q 505 449 505 425 q 494 478 505 465 q 459 503 484 492 q 414 520 435 513 q 355 539 393 528 q 294 558 317 551 z "},"¨":{"ha":814,"x_min":164,"x_max":650,"o":"m 164 991 l 345 991 l 345 810 l 164 810 l 164 991 m 469 991 l 650 991 l 650 810 l 469 810 l 469 991 z "},"©":{"ha":1194,"x_min":87,"x_max":1106,"o":"m 762 711 l 785 701 l 747 592 l 721 601 q 623 618 672 618 q 486 471 486 618 q 632 310 486 310 q 716 325 673 310 l 742 334 l 781 227 l 755 217 q 607 189 683 189 q 536 196 570 189 q 468 223 502 204 q 408 272 433 243 q 368 349 383 302 q 352 456 352 397 q 375 591 352 534 q 438 681 399 649 q 521 728 477 713 q 614 743 566 743 q 762 711 690 743 m 781 770 q 739 794 781 770 q 597 819 696 819 q 413 770 497 819 q 281 639 329 721 q 233 463 233 557 q 281 287 233 369 q 413 157 329 205 q 597 108 497 108 q 781 157 696 108 q 912 287 865 205 q 960 463 960 369 q 912 639 960 557 q 781 770 865 721 m 1106 463 q 1081 308 1106 383 q 1009 170 1056 232 q 900 61 962 109 q 759 -12 838 14 q 597 -37 681 -37 q 339 31 457 -37 q 155 215 222 100 q 87 463 87 330 q 126 653 87 562 q 233 813 165 745 q 395 923 300 882 q 597 964 490 964 q 797 923 702 964 q 959 815 891 883 q 1066 655 1027 747 q 1106 463 1106 563 z "},"ª":{"ha":519,"x_min":102,"x_max":438,"o":"m 338 674 l 336 674 q 234 662 267 674 q 201 622 201 650 q 219 590 201 605 q 267 574 237 574 q 338 617 308 574 l 338 674 m 338 764 q 258 837 338 837 q 148 819 204 837 l 131 814 l 111 895 l 125 899 q 266 925 195 925 q 327 919 300 925 q 372 904 354 913 q 402 880 389 895 q 422 852 415 865 q 432 822 429 840 q 437 793 436 805 q 438 767 438 781 l 438 498 l 362 498 l 353 523 q 257 486 308 486 q 145 522 189 486 q 102 621 102 557 q 112 680 102 655 q 141 721 123 705 q 190 747 159 737 q 255 760 220 756 q 338 764 290 764 z "},"«":{"ha":731,"x_min":17,"x_max":724,"o":"m 529 698 l 724 698 l 517 422 l 724 147 l 529 147 l 336 422 l 529 698 m 210 698 l 405 698 l 198 422 l 405 147 l 210 147 l 17 422 l 210 698 z "},"¬":{"ha":949,"x_min":57,"x_max":892,"o":"m 57 524 l 892 524 l 892 163 l 736 163 l 736 368 l 57 368 l 57 524 z "},"­":{"ha":728,"x_min":121,"x_max":607,"o":"m 121 522 l 607 522 l 607 372 l 121 372 l 121 522 z "},"®":{"ha":836,"x_min":44,"x_max":791,"o":"m 418 824 l 370 824 l 370 736 q 398 736 389 736 q 414 736 406 736 q 468 746 452 736 q 484 778 484 755 q 468 814 484 804 q 418 824 452 824 m 440 912 q 508 901 479 912 q 550 871 536 890 q 571 831 565 852 q 577 785 577 810 q 512 668 577 701 l 591 512 q 658 600 634 549 q 682 707 682 650 q 605 889 682 812 q 418 966 528 966 q 231 890 308 966 q 153 707 153 813 q 230 525 153 602 q 418 448 307 448 q 588 509 515 448 l 486 509 l 418 650 l 370 650 l 370 509 l 273 509 l 273 912 l 440 912 m 741 892 q 766 850 741 892 q 791 707 791 808 q 741 522 791 607 q 604 388 690 437 q 418 339 518 339 q 271 369 341 339 q 152 448 201 399 q 73 566 102 498 q 44 707 44 633 q 95 892 44 808 q 231 1026 145 977 q 418 1076 317 1076 q 604 1026 518 1076 q 741 892 690 977 z "},"¯":{"ha":949,"x_min":165,"x_max":784,"o":"m 165 1140 l 784 1140 l 784 983 l 165 983 l 165 1140 z "},"°":{"ha":399,"x_min":23,"x_max":376,"o":"m 200 900 q 157 882 174 900 q 140 838 140 863 q 157 793 140 812 q 200 774 174 774 q 241 793 224 774 q 258 838 258 812 q 241 881 258 863 q 200 900 224 900 m 324 965 q 350 938 324 965 q 376 838 376 912 q 325 710 376 763 q 200 657 273 657 q 75 710 127 657 q 23 838 23 763 q 75 964 23 911 q 199 1017 127 1017 q 324 965 272 1017 z "},"±":{"ha":949,"x_min":121,"x_max":828,"o":"m 121 222 l 828 222 l 828 74 l 121 74 l 121 222 m 397 991 l 552 991 l 552 712 l 828 712 l 828 564 l 552 564 l 552 285 l 397 285 l 397 564 l 121 564 l 121 712 l 397 712 l 397 991 z "},"²":{"ha":543,"x_min":66,"x_max":444,"o":"m 83 561 q 132 668 100 618 q 194 749 163 718 q 255 807 226 781 q 302 853 284 833 q 321 889 321 873 q 298 928 321 910 q 240 947 275 947 q 119 913 202 947 l 104 907 l 66 999 l 81 1006 q 251 1050 169 1050 q 382 1008 329 1050 q 435 899 435 966 q 419 831 435 863 q 378 775 404 800 q 325 725 352 749 q 268 669 297 701 q 220 602 238 636 l 444 602 l 444 497 l 83 497 l 83 561 z "},"³":{"ha":543,"x_min":64,"x_max":437,"o":"m 243 1048 q 366 1009 316 1048 q 416 907 416 969 q 372 803 416 845 q 437 682 437 763 q 376 545 437 597 q 222 492 315 492 q 79 523 155 492 l 64 529 l 96 624 l 112 620 q 224 600 185 600 q 294 620 264 600 q 324 670 324 640 q 313 706 324 692 q 280 727 301 720 q 238 736 259 734 q 188 739 216 739 l 171 739 l 171 842 l 188 842 q 304 898 304 842 q 287 928 304 915 q 236 942 269 942 q 127 912 193 942 l 112 905 l 73 1000 l 87 1007 q 243 1048 174 1048 z "},"´":{"ha":761,"x_min":149,"x_max":613,"o":"m 538 1114 l 613 981 l 218 753 l 149 874 l 538 1114 z "},"µ":{"ha":805,"x_min":101,"x_max":711,"o":"m 101 698 l 268 698 l 268 292 q 405 104 268 104 q 544 146 456 104 l 544 698 l 711 698 l 711 -28 l 587 -28 l 572 5 q 387 -46 478 -46 q 268 -17 323 -46 l 268 -306 l 101 -306 l 101 698 z "},"¶":{"ha":899,"x_min":60,"x_max":798,"o":"m 408 1053 l 798 1053 l 798 -28 l 631 -28 l 631 895 l 524 895 l 524 -28 l 357 -28 l 357 438 q 277 452 315 441 q 198 488 238 463 q 128 548 157 513 q 79 641 98 584 q 60 768 60 698 q 69 851 60 813 q 92 916 78 889 q 127 965 105 943 q 170 1001 149 987 q 219 1025 191 1015 q 270 1041 248 1036 q 321 1048 292 1046 q 367 1052 350 1051 q 408 1053 385 1053 z "},"·":{"ha":400,"x_min":101,"x_max":299,"o":"m 101 596 l 299 596 l 299 398 l 101 398 l 101 596 z "},"¸":{"ha":747,"x_min":227,"x_max":583,"o":"m 419 -245 q 450 -237 441 -245 q 459 -220 459 -229 q 439 -196 459 -205 q 362 -170 420 -187 q 323 -159 338 -163 l 298 -151 l 350 43 l 493 43 l 464 -73 q 583 -213 583 -111 q 537 -318 583 -272 q 416 -365 492 -365 q 390 -363 404 -365 q 366 -360 376 -361 q 337 -353 356 -358 q 312 -347 319 -349 q 281 -337 304 -345 q 254 -329 258 -330 l 227 -321 l 260 -206 l 288 -214 q 419 -245 388 -245 z "},"¹":{"ha":368,"x_min":20,"x_max":250,"o":"m 168 1042 l 250 1042 l 250 498 l 139 498 l 139 929 l 45 903 l 20 1002 l 168 1042 z "},"º":{"ha":517,"x_min":28,"x_max":488,"o":"m 258 943 q 219 937 237 943 q 181 914 201 930 q 151 863 162 898 q 140 779 140 829 q 151 684 140 723 q 182 627 163 646 q 220 602 201 609 q 259 595 238 595 q 290 598 275 595 q 321 614 304 602 q 350 644 338 625 q 369 697 361 663 q 377 774 377 730 q 366 863 377 827 q 335 915 354 899 q 297 937 315 931 q 258 943 279 943 m 488 777 q 423 570 488 646 q 258 493 357 493 q 190 502 222 493 q 128 531 158 510 q 76 583 98 551 q 41 665 54 615 q 28 777 28 714 q 48 896 28 843 q 101 981 68 948 q 174 1030 134 1013 q 259 1047 215 1047 q 318 1041 290 1047 q 379 1017 347 1035 q 434 969 411 998 q 473 891 458 941 q 488 777 488 841 z "},"»":{"ha":731,"x_min":7,"x_max":714,"o":"m 7 698 l 202 698 l 395 422 l 202 147 l 7 147 l 214 422 l 7 698 m 326 698 l 522 698 l 714 422 l 522 147 l 326 147 l 533 422 l 326 698 z "},"¼":{"ha":1221,"x_min":81,"x_max":1139,"o":"m 791 981 l 948 981 l 372 -17 l 214 -17 l 791 981 m 229 981 l 324 981 l 324 402 l 200 402 l 200 853 l 110 828 l 81 941 l 229 981 m 935 584 l 1067 584 l 1067 224 l 1139 224 l 1139 115 l 1067 115 l 1067 -17 l 943 -17 l 943 115 l 678 115 l 678 198 l 935 584 m 943 408 l 827 224 l 943 224 l 943 408 z "},"½":{"ha":1286,"x_min":81,"x_max":1195,"o":"m 791 981 l 948 981 l 372 -17 l 214 -17 l 791 981 m 229 981 l 324 981 l 324 395 l 200 395 l 200 853 l 110 828 l 81 941 l 229 981 m 801 52 q 844 152 817 104 q 900 231 871 199 q 958 292 928 263 q 1011 341 988 321 q 1049 379 1034 360 q 1063 412 1063 397 q 1038 456 1063 436 q 972 477 1012 477 q 840 441 930 477 l 825 435 l 784 532 l 798 540 q 985 588 899 588 q 1127 542 1069 588 q 1185 423 1185 496 q 1168 350 1185 384 q 1122 287 1151 315 q 1063 232 1094 259 q 1000 170 1033 205 q 948 96 967 134 l 1195 96 l 1195 -17 l 801 -17 l 801 52 z "},"¾":{"ha":1322,"x_min":111,"x_max":1241,"o":"m 899 981 l 1057 981 l 481 -17 l 323 -17 l 899 981 m 1036 584 l 1168 584 l 1168 224 l 1241 224 l 1241 115 l 1168 115 l 1168 -17 l 1044 -17 l 1044 115 l 780 115 l 780 198 l 1036 584 m 1044 408 l 928 224 l 1044 224 l 1044 408 m 307 1000 q 440 957 386 1000 q 494 846 494 913 q 445 731 494 778 q 517 598 517 687 q 450 448 517 506 q 282 391 383 391 q 125 425 212 391 l 111 431 l 146 533 l 161 529 q 285 506 246 506 q 364 528 331 506 q 397 585 397 550 q 361 643 397 624 q 245 663 325 663 l 228 663 l 228 773 l 245 773 q 306 778 279 773 q 354 798 333 783 q 374 836 374 812 q 355 871 374 855 q 298 886 336 886 q 179 853 251 886 l 163 846 l 120 947 l 134 954 q 307 1000 228 1000 z "},"¿":{"ha":710,"x_min":51,"x_max":641,"o":"m 212 698 l 383 698 l 383 670 q 397 555 383 605 q 434 474 412 505 q 485 418 457 443 q 539 371 512 393 q 590 323 567 349 q 627 257 612 297 q 641 163 641 216 q 611 48 641 103 q 536 -43 582 -7 q 437 -102 491 -80 q 333 -123 383 -123 q 201 -108 260 -123 q 75 -61 142 -93 l 51 -50 l 107 83 l 132 73 q 315 28 242 28 q 432 65 391 28 q 473 153 473 102 q 459 210 473 184 q 422 254 445 235 q 371 295 399 274 q 315 348 342 317 q 264 418 287 378 q 227 523 241 458 q 212 670 212 588 l 212 698 m 202 991 l 393 991 l 393 800 l 202 800 l 202 991 z "},"À":{"ha":1049,"x_min":88,"x_max":1038,"o":"m 470 964 l 657 964 l 1038 0 l 863 0 l 755 252 l 361 252 l 254 0 l 88 0 l 470 964 m 695 409 l 558 766 l 420 409 l 695 409 m 399 1319 l 828 1080 l 751 959 l 317 1187 l 399 1319 z "},"Á":{"ha":1049,"x_min":88,"x_max":1038,"o":"m 470 964 l 657 964 l 1038 0 l 863 0 l 755 252 l 361 252 l 254 0 l 88 0 l 470 964 m 695 409 l 558 766 l 420 409 l 695 409 m 726 1319 l 809 1187 l 374 959 l 298 1080 l 726 1319 z "},"Â":{"ha":1049,"x_min":88,"x_max":1038,"o":"m 470 964 l 657 964 l 1038 0 l 863 0 l 755 252 l 361 252 l 254 0 l 88 0 l 470 964 m 695 409 l 558 766 l 420 409 l 695 409 m 579 1318 l 812 1082 l 699 983 l 568 1115 l 435 985 l 323 1076 l 579 1318 z "},"Ã":{"ha":1049,"x_min":88,"x_max":1038,"o":"m 746 1278 l 885 1257 l 879 1229 q 876 1211 878 1223 q 868 1174 871 1187 q 858 1137 865 1161 q 844 1098 851 1113 q 823 1065 836 1084 q 793 1037 809 1047 q 753 1019 777 1027 q 701 1012 729 1012 q 611 1034 654 1014 q 545 1076 569 1053 q 498 1117 520 1098 q 463 1135 475 1135 q 427 1079 441 1135 q 418 1034 426 1073 l 412 1008 l 271 1026 l 277 1055 q 282 1080 279 1061 q 288 1108 286 1099 q 296 1136 290 1117 q 306 1165 301 1154 q 319 1192 311 1176 q 336 1218 327 1208 q 357 1240 345 1228 q 384 1257 370 1251 q 418 1268 399 1263 q 458 1272 437 1272 q 531 1258 496 1271 q 590 1226 566 1244 q 634 1191 614 1208 q 670 1162 654 1174 q 696 1149 686 1149 q 704 1151 700 1149 q 711 1156 707 1153 q 716 1164 714 1160 q 721 1175 719 1168 q 725 1187 724 1181 q 729 1201 727 1192 q 732 1217 731 1211 q 736 1234 734 1223 q 740 1251 739 1244 l 746 1278 m 695 409 l 558 766 l 420 409 l 695 409 m 470 964 l 657 964 l 1038 0 l 863 0 l 755 252 l 361 252 l 254 0 l 88 0 l 470 964 z "},"Ä":{"ha":1049,"x_min":88,"x_max":1038,"o":"m 470 964 l 657 964 l 1038 0 l 863 0 l 755 252 l 361 252 l 254 0 l 88 0 l 470 964 m 695 409 l 558 766 l 420 409 l 695 409 m 298 1286 l 497 1286 l 497 1105 l 298 1105 l 298 1286 m 632 1286 l 831 1286 l 831 1105 l 632 1105 l 632 1286 z "},"Å":{"ha":1049,"x_min":88,"x_max":1038,"o":"m 405 1212 q 438 1241 405 1212 q 565 1270 472 1270 q 726 1212 658 1270 q 793 1069 793 1154 q 764 975 793 1018 q 684 905 734 931 l 1038 0 l 863 0 l 755 252 l 361 252 l 254 0 l 88 0 l 444 907 q 367 976 395 932 q 338 1069 338 1019 q 405 1212 338 1153 m 566 1144 q 505 1122 529 1144 q 480 1069 480 1100 q 504 1016 480 1039 q 566 994 528 994 q 625 1016 602 994 q 649 1069 649 1039 q 626 1122 649 1099 q 566 1144 602 1144 m 695 409 l 558 766 l 420 409 l 695 409 z "},"Æ":{"ha":1410,"x_min":88,"x_max":1314,"o":"m 614 806 l 439 409 l 696 409 l 696 806 l 614 806 m 502 964 l 1314 964 l 1314 806 l 878 806 l 878 575 l 1277 575 l 1277 418 l 878 418 l 878 157 l 1314 157 l 1314 0 l 696 0 l 696 253 l 374 253 l 258 0 l 88 0 l 502 964 z "},"Ç":{"ha":1095,"x_min":186,"x_max":1063,"o":"m 667 -215 q 691 -211 682 -215 q 703 -202 701 -207 q 706 -194 706 -198 q 677 -170 706 -181 q 577 -141 648 -159 q 552 -135 561 -137 l 523 -127 l 564 6 q 285 179 383 50 q 186 481 186 308 q 224 675 186 585 q 332 830 262 765 q 507 933 402 896 q 737 970 611 970 q 1024 917 888 970 l 1049 907 l 996 760 l 970 769 q 734 813 839 813 q 579 786 650 813 q 462 712 509 758 q 389 606 415 666 q 363 481 363 547 q 391 354 363 414 q 469 247 418 293 q 595 175 519 201 q 761 148 671 148 q 982 187 871 148 l 1007 196 l 1063 60 l 1038 50 q 732 -14 895 -12 l 724 -45 q 764 -61 745 -52 q 804 -86 783 -70 q 839 -128 826 -102 q 852 -186 852 -154 q 799 -296 852 -250 q 663 -343 745 -343 q 602 -337 632 -343 q 475 -306 572 -332 l 446 -298 l 486 -174 l 515 -182 q 667 -215 633 -215 z "},"È":{"ha":981,"x_min":197,"x_max":873,"o":"m 197 964 l 873 964 l 873 806 l 368 806 l 368 575 l 836 575 l 836 418 l 368 418 l 368 157 l 873 157 l 873 0 l 197 0 l 197 964 m 343 1333 l 788 1093 l 718 972 l 267 1200 l 343 1333 z "},"É":{"ha":981,"x_min":197,"x_max":873,"o":"m 197 964 l 873 964 l 873 806 l 368 806 l 368 575 l 836 575 l 836 418 l 368 418 l 368 157 l 873 157 l 873 0 l 197 0 l 197 964 m 739 1333 l 814 1200 l 363 972 l 294 1093 l 739 1333 z "},"Ê":{"ha":981,"x_min":197,"x_max":873,"o":"m 197 964 l 873 964 l 873 806 l 368 806 l 368 575 l 836 575 l 836 418 l 368 418 l 368 157 l 873 157 l 873 0 l 197 0 l 197 964 m 547 1323 l 784 1086 l 675 989 l 534 1120 l 391 991 l 285 1081 l 547 1323 z "},"Ë":{"ha":981,"x_min":197,"x_max":873,"o":"m 197 964 l 873 964 l 873 806 l 368 806 l 368 575 l 836 575 l 836 418 l 368 418 l 368 157 l 873 157 l 873 0 l 197 0 l 197 964 m 264 1287 l 461 1287 l 461 1106 l 264 1106 l 264 1287 m 608 1287 l 805 1287 l 805 1106 l 608 1106 l 608 1287 z "},"Ì":{"ha":551,"x_min":92,"x_max":558,"o":"m 227 964 l 398 964 l 398 0 l 227 0 l 227 964 m 169 1318 l 558 1078 l 488 959 l 92 1185 l 169 1318 z "},"Í":{"ha":606,"x_min":86,"x_max":606,"o":"m 282 964 l 453 964 l 453 0 l 282 0 l 282 964 m 531 1320 l 606 1187 l 155 959 l 86 1080 l 531 1320 z "},"Î":{"ha":551,"x_min":95,"x_max":538,"o":"m 229 964 l 400 964 l 400 0 l 229 0 l 229 964 m 327 1318 l 538 1081 l 434 983 l 317 1115 l 197 985 l 95 1076 l 327 1318 z "},"Ï":{"ha":510,"x_min":60,"x_max":505,"o":"m 197 964 l 368 964 l 368 0 l 197 0 l 197 964 m 60 1237 l 241 1237 l 241 1056 l 60 1056 l 60 1237 m 323 1237 l 505 1237 l 505 1056 l 323 1056 l 323 1237 z "},"Ð":{"ha":1200,"x_min":79,"x_max":1122,"o":"m 227 964 l 550 964 q 609 962 581 964 q 682 956 637 961 q 765 942 726 951 q 850 916 804 933 q 933 877 896 899 q 1007 819 970 854 q 1068 741 1043 784 q 1107 639 1093 699 q 1122 510 1122 580 q 507 0 1122 0 l 227 0 l 227 418 l 79 418 l 79 576 l 227 576 l 227 964 m 559 806 l 398 806 l 398 576 l 575 576 l 575 418 l 398 418 l 398 157 l 511 157 q 590 159 555 157 q 672 169 625 161 q 756 190 720 176 q 831 228 793 203 q 893 287 869 253 q 934 372 918 321 q 950 488 950 423 q 941 573 950 532 q 904 657 931 614 q 835 733 877 701 q 722 786 793 765 q 559 806 650 806 z "},"Ñ":{"ha":1236,"x_min":197,"x_max":1094,"o":"m 834 1278 l 973 1257 l 967 1229 q 964 1211 966 1223 q 956 1174 959 1187 q 946 1137 954 1161 q 932 1098 939 1113 q 911 1065 924 1084 q 881 1037 897 1047 q 841 1019 865 1027 q 789 1012 817 1012 q 700 1034 742 1014 q 633 1076 657 1053 q 586 1117 608 1098 q 551 1135 564 1135 q 515 1079 529 1135 q 506 1034 514 1073 l 500 1008 l 359 1026 l 366 1055 q 371 1080 367 1061 q 376 1108 374 1099 q 384 1136 378 1117 q 394 1165 389 1154 q 407 1192 399 1176 q 424 1218 415 1208 q 445 1240 433 1228 q 472 1257 458 1251 q 506 1268 487 1263 q 547 1272 525 1272 q 620 1258 585 1271 q 679 1226 654 1244 q 723 1191 703 1208 q 758 1162 743 1174 q 784 1149 774 1149 q 792 1151 788 1149 q 799 1156 795 1153 q 805 1164 802 1160 q 809 1175 807 1168 q 813 1187 812 1181 q 817 1201 815 1192 q 821 1217 819 1211 q 824 1234 822 1223 q 828 1251 827 1244 l 834 1278 m 197 964 l 385 964 l 923 223 l 923 964 l 1094 964 l 1094 0 l 903 0 l 368 742 l 368 0 l 197 0 l 197 964 z "},"Ò":{"ha":1255,"x_min":146,"x_max":1163,"o":"m 655 974 q 917 916 802 974 q 1097 748 1031 859 q 1163 492 1163 638 q 1099 230 1163 345 q 918 53 1034 116 q 650 -10 801 -10 q 460 21 550 -10 q 300 111 371 52 q 188 265 229 170 q 146 479 146 360 q 211 741 146 628 q 391 914 276 854 q 655 974 507 974 m 988 481 q 958 633 988 566 q 877 739 927 700 q 768 798 827 778 q 646 817 709 817 q 553 806 599 817 q 466 768 508 794 q 391 706 423 743 q 340 614 359 669 q 321 493 321 559 q 418 241 321 336 q 660 146 515 146 q 777 166 720 146 q 882 224 833 186 q 959 330 930 263 q 988 481 988 396 m 536 1321 l 960 1082 l 883 961 l 453 1189 l 536 1321 z "},"Ó":{"ha":1255,"x_min":146,"x_max":1163,"o":"m 655 974 q 917 916 802 974 q 1097 748 1031 859 q 1163 492 1163 638 q 1099 230 1163 345 q 918 53 1034 116 q 650 -10 801 -10 q 460 21 550 -10 q 300 111 371 52 q 188 265 229 170 q 146 479 146 360 q 211 741 146 628 q 391 914 276 854 q 655 974 507 974 m 988 481 q 958 633 988 566 q 877 739 927 700 q 768 798 827 778 q 646 817 709 817 q 553 806 599 817 q 466 768 508 794 q 391 706 423 743 q 340 614 359 669 q 321 493 321 559 q 418 241 321 336 q 660 146 515 146 q 777 166 720 146 q 882 224 833 186 q 959 330 930 263 q 988 481 988 396 m 831 1320 l 913 1187 l 482 959 l 407 1080 l 831 1320 z "},"Ô":{"ha":1255,"x_min":146,"x_max":1163,"o":"m 655 974 q 917 916 802 974 q 1097 748 1031 859 q 1163 492 1163 638 q 1099 230 1163 345 q 918 53 1034 116 q 650 -10 801 -10 q 460 21 550 -10 q 300 111 371 52 q 188 265 229 170 q 146 479 146 360 q 211 741 146 628 q 391 914 276 854 q 655 974 507 974 m 988 481 q 958 633 988 566 q 877 739 927 700 q 768 798 827 778 q 646 817 709 817 q 553 806 599 817 q 466 768 508 794 q 391 706 423 743 q 340 614 359 669 q 321 493 321 559 q 418 241 321 336 q 660 146 515 146 q 777 166 720 146 q 882 224 833 186 q 959 330 930 263 q 988 481 988 396 m 677 1318 l 907 1082 l 794 983 l 666 1115 l 534 985 l 424 1076 l 677 1318 z "},"Õ":{"ha":1255,"x_min":146,"x_max":1163,"o":"m 842 1278 l 981 1257 l 975 1229 q 972 1211 974 1223 q 964 1174 967 1187 q 955 1137 962 1161 q 940 1098 947 1113 q 919 1065 932 1084 q 889 1037 905 1047 q 849 1019 873 1027 q 797 1012 825 1012 q 708 1034 750 1014 q 641 1076 665 1053 q 594 1117 616 1098 q 559 1135 572 1135 q 524 1079 537 1135 q 514 1034 522 1073 l 509 1008 l 368 1026 l 374 1055 q 379 1080 375 1061 q 385 1108 382 1099 q 392 1136 387 1117 q 402 1165 397 1154 q 415 1192 407 1176 q 432 1218 423 1208 q 453 1240 441 1228 q 480 1257 466 1251 q 514 1268 495 1263 q 555 1272 533 1272 q 628 1258 593 1271 q 687 1226 663 1244 q 731 1191 711 1208 q 766 1162 751 1174 q 792 1149 782 1149 q 800 1151 796 1149 q 807 1156 804 1153 q 813 1164 810 1160 q 818 1175 815 1168 q 822 1187 820 1181 q 825 1201 823 1192 q 829 1217 827 1211 q 832 1234 830 1223 q 836 1251 835 1244 l 842 1278 m 988 481 q 968 607 988 549 q 915 702 948 664 q 837 767 882 741 q 744 805 792 793 q 646 817 696 817 q 553 806 599 817 q 466 768 508 794 q 391 706 423 743 q 340 614 359 669 q 321 493 321 559 q 418 241 321 336 q 660 146 515 146 q 777 166 720 146 q 882 224 833 186 q 959 330 930 263 q 988 481 988 396 m 655 974 q 917 916 802 974 q 1097 748 1031 859 q 1163 492 1163 638 q 1099 230 1163 345 q 918 53 1034 116 q 650 -10 801 -10 q 460 21 550 -10 q 300 111 371 52 q 188 265 229 170 q 146 479 146 360 q 211 741 146 628 q 391 914 276 854 q 655 974 507 974 z "},"Ö":{"ha":1255,"x_min":146,"x_max":1163,"o":"m 655 974 q 917 916 802 974 q 1097 748 1031 859 q 1163 492 1163 638 q 1099 230 1163 345 q 918 53 1034 116 q 650 -10 801 -10 q 460 21 550 -10 q 300 111 371 52 q 188 265 229 170 q 146 479 146 360 q 211 741 146 628 q 391 914 276 854 q 655 974 507 974 m 988 481 q 958 633 988 566 q 877 739 927 700 q 768 798 827 778 q 646 817 709 817 q 553 806 599 817 q 466 768 508 794 q 391 706 423 743 q 340 614 359 669 q 321 493 321 559 q 418 241 321 336 q 660 146 515 146 q 777 166 720 146 q 882 224 833 186 q 959 330 930 263 q 988 481 988 396 m 397 1287 l 595 1287 l 595 1106 l 397 1106 l 397 1287 m 729 1287 l 926 1287 l 926 1106 l 729 1106 l 729 1287 z "},"×":{"ha":992,"x_min":123,"x_max":890,"o":"m 235 112 l 123 222 l 375 444 l 129 659 l 239 769 l 513 544 l 780 765 l 890 654 l 640 433 l 886 218 l 775 107 l 502 332 l 235 112 z "},"Ø":{"ha":1302,"x_min":108,"x_max":1223,"o":"m 662 817 q 567 805 613 817 q 478 768 521 793 q 404 705 436 743 q 353 613 372 668 q 334 493 334 559 q 378 313 334 391 l 888 741 q 662 817 793 817 m 1150 961 l 1223 874 l 1098 769 q 1177 492 1177 652 q 1112 230 1177 345 q 931 53 1048 116 q 663 -10 814 -10 q 473 20 564 -10 q 314 111 382 51 l 181 -1 l 108 87 l 239 196 q 159 479 159 315 q 224 741 159 628 q 405 914 290 854 q 669 974 520 974 q 1023 854 884 974 l 1150 961 m 961 654 l 450 224 q 673 146 543 146 q 790 166 734 146 q 895 224 847 186 q 972 330 943 263 q 1002 481 1002 396 q 961 654 1002 580 z "},"Ù":{"ha":1183,"x_min":197,"x_max":1040,"o":"m 197 964 l 368 964 l 368 353 q 373 290 368 318 q 394 234 378 262 q 437 185 410 205 q 510 154 463 166 q 618 142 556 142 q 742 157 691 142 q 820 203 793 173 q 858 269 846 233 q 869 353 869 305 l 869 964 l 1040 964 l 1040 336 q 1040 297 1040 313 q 1035 252 1039 281 q 1024 201 1031 222 q 1001 150 1017 179 q 965 99 986 120 q 912 55 945 78 q 838 19 879 33 q 739 -4 797 5 q 613 -14 682 -14 q 490 -4 547 -14 q 394 19 434 5 q 322 56 354 33 q 270 99 290 78 q 235 150 250 121 q 213 201 220 179 q 202 253 205 223 q 197 298 198 282 q 197 336 197 313 l 197 964 m 450 1338 l 886 1099 l 809 979 l 365 1206 l 450 1338 z "},"Ú":{"ha":1183,"x_min":197,"x_max":1040,"o":"m 197 964 l 368 964 l 368 353 q 373 290 368 318 q 394 234 378 262 q 437 185 410 205 q 510 154 463 166 q 618 142 556 142 q 742 157 691 142 q 820 203 793 173 q 858 269 846 233 q 869 353 869 305 l 869 964 l 1040 964 l 1040 336 q 1040 297 1040 313 q 1035 252 1039 281 q 1024 201 1031 222 q 1001 150 1017 179 q 965 99 986 120 q 912 55 945 78 q 838 19 879 33 q 739 -4 797 5 q 613 -14 682 -14 q 490 -4 547 -14 q 394 19 434 5 q 322 56 354 33 q 270 99 290 78 q 235 150 250 121 q 213 201 220 179 q 202 253 205 223 q 197 298 198 282 q 197 336 197 313 l 197 964 m 808 1340 l 890 1208 l 448 979 l 370 1101 l 808 1340 z "},"Û":{"ha":1183,"x_min":197,"x_max":1040,"o":"m 197 964 l 368 964 l 368 353 q 373 290 368 318 q 394 234 378 262 q 437 185 410 205 q 510 154 463 166 q 618 142 556 142 q 742 157 691 142 q 820 203 793 173 q 858 269 846 233 q 869 353 869 305 l 869 964 l 1040 964 l 1040 336 q 1040 297 1040 313 q 1035 252 1039 281 q 1024 201 1031 222 q 1001 150 1017 179 q 965 99 986 120 q 912 55 945 78 q 838 19 879 33 q 739 -4 797 5 q 613 -14 682 -14 q 490 -4 547 -14 q 394 19 434 5 q 322 56 354 33 q 270 99 290 78 q 235 150 250 121 q 213 201 220 179 q 202 253 205 223 q 197 298 198 282 q 197 336 197 313 l 197 964 m 630 1318 l 868 1081 l 751 983 l 618 1115 l 484 985 l 369 1076 l 630 1318 z "},"Ü":{"ha":1183,"x_min":197,"x_max":1040,"o":"m 197 964 l 368 964 l 368 353 q 373 290 368 318 q 394 234 378 262 q 437 185 410 205 q 510 154 463 166 q 618 142 556 142 q 742 157 691 142 q 820 203 793 173 q 858 269 846 233 q 869 353 869 305 l 869 964 l 1040 964 l 1040 336 q 1040 297 1040 313 q 1035 252 1039 281 q 1024 201 1031 222 q 1001 150 1017 179 q 965 99 986 120 q 912 55 945 78 q 838 19 879 33 q 739 -4 797 5 q 613 -14 682 -14 q 490 -4 547 -14 q 394 19 434 5 q 322 56 354 33 q 270 99 290 78 q 235 150 250 121 q 213 201 220 179 q 202 253 205 223 q 197 298 198 282 q 197 336 197 313 l 197 964 m 348 1287 l 549 1287 l 549 1106 l 348 1106 l 348 1287 m 688 1287 l 889 1287 l 889 1106 l 688 1106 l 688 1287 z "},"Ý":{"ha":968,"x_min":68,"x_max":986,"o":"m 68 964 l 270 964 l 528 590 l 791 964 l 986 964 l 616 450 l 616 0 l 425 0 l 425 450 l 68 964 m 696 1340 l 781 1208 l 338 979 l 262 1101 l 696 1340 z "},"Þ":{"ha":1010,"x_min":197,"x_max":949,"o":"m 509 656 q 368 651 433 656 l 368 353 q 488 349 438 349 l 510 349 q 589 352 556 349 q 660 363 622 354 q 721 390 698 373 q 760 437 745 406 q 776 510 776 467 q 761 574 776 547 q 723 617 746 602 q 663 641 699 632 q 591 653 626 650 q 509 656 556 656 m 197 964 l 368 964 l 368 787 q 546 793 456 793 q 676 786 618 793 q 786 760 734 779 q 874 712 839 741 q 929 635 909 682 q 949 524 949 587 q 939 436 949 479 q 906 348 929 393 q 838 267 883 302 q 730 215 793 232 q 464 193 640 193 q 368 195 415 193 l 368 0 l 197 0 l 197 964 z "},"ß":{"ha":964,"x_min":136,"x_max":883,"o":"m 450 970 q 581 946 522 970 q 675 886 640 923 q 730 805 711 848 q 749 719 749 762 q 734 650 749 682 q 697 598 720 618 q 649 558 675 577 q 602 527 624 540 q 565 500 579 515 q 550 473 550 486 q 568 444 550 456 q 616 422 587 431 q 681 402 646 412 q 752 375 716 391 q 817 336 787 359 q 865 276 846 314 q 883 189 883 238 q 876 136 883 163 q 849 81 869 109 q 801 32 830 53 q 725 -4 772 10 q 617 -18 677 -18 q 370 16 500 -18 l 339 23 l 380 153 l 409 148 q 591 127 526 127 q 684 144 658 127 q 709 196 709 161 q 690 239 709 221 q 640 268 671 256 q 571 289 608 279 q 496 313 534 299 q 428 346 459 327 q 377 397 397 364 q 358 473 358 429 q 379 548 358 515 q 431 601 401 581 q 491 638 461 621 q 543 674 522 656 q 564 712 564 692 q 524 785 564 756 q 437 814 484 814 q 411 812 425 814 q 377 801 397 810 q 341 777 357 792 q 314 733 326 762 q 302 665 302 704 l 302 0 l 136 0 l 136 666 q 153 781 136 729 q 201 867 171 832 q 271 925 231 901 q 357 959 312 949 q 450 970 401 970 z "},"à":{"ha":836,"x_min":83,"x_max":714,"o":"m 399 682 q 531 669 475 682 q 622 634 587 656 q 677 579 656 612 q 706 513 699 547 q 714 437 714 479 l 714 0 l 589 0 l 570 44 q 358 -14 479 -14 q 160 46 237 -14 q 83 185 83 105 q 108 273 83 235 q 173 332 133 310 q 276 369 214 355 q 401 388 338 382 q 547 394 465 393 l 547 418 q 544 452 547 437 q 532 483 542 466 q 506 510 523 500 q 456 528 488 521 q 378 535 423 535 q 182 505 295 535 l 155 498 l 121 631 l 144 640 q 399 682 259 682 m 547 173 l 547 269 l 530 269 q 319 252 388 269 q 250 197 250 236 q 292 151 250 172 q 395 130 334 130 q 547 173 481 130 m 345 1056 l 670 800 l 582 689 l 228 939 l 345 1056 z "},"á":{"ha":836,"x_min":83,"x_max":714,"o":"m 544 1063 l 644 945 l 299 696 l 201 806 l 544 1063 m 547 173 l 547 269 l 530 269 q 319 252 388 269 q 250 197 250 236 q 292 151 250 172 q 395 130 334 130 q 547 173 481 130 m 399 682 q 531 669 475 682 q 622 634 587 656 q 677 579 656 612 q 706 513 699 547 q 714 437 714 479 l 714 0 l 589 0 l 570 44 q 358 -14 479 -14 q 160 46 237 -14 q 83 185 83 105 q 108 273 83 235 q 173 332 133 310 q 276 369 214 355 q 401 388 338 382 q 547 394 465 393 l 547 418 q 544 452 547 437 q 532 483 542 466 q 506 510 523 500 q 456 528 488 521 q 378 535 423 535 q 182 505 295 535 l 155 498 l 121 631 l 144 640 q 399 682 259 682 z "},"â":{"ha":836,"x_min":83,"x_max":714,"o":"m 431 1023 l 665 787 l 562 689 l 420 821 l 271 691 l 165 781 l 431 1023 m 547 173 l 547 269 l 530 269 q 319 252 388 269 q 250 197 250 236 q 292 151 250 172 q 395 130 334 130 q 547 173 481 130 m 399 682 q 531 669 475 682 q 622 634 587 656 q 677 579 656 612 q 706 513 699 547 q 714 437 714 479 l 714 0 l 589 0 l 570 44 q 358 -14 479 -14 q 160 46 237 -14 q 83 185 83 105 q 108 273 83 235 q 173 332 133 310 q 276 369 214 355 q 401 388 338 382 q 547 394 465 393 l 547 418 q 544 452 547 437 q 532 483 542 466 q 506 510 523 500 q 456 528 488 521 q 378 535 423 535 q 182 505 295 535 l 155 498 l 121 631 l 144 640 q 399 682 259 682 z "},"ã":{"ha":836,"x_min":83,"x_max":734,"o":"m 605 983 l 734 963 l 716 877 q 563 718 686 718 q 482 732 521 719 q 417 763 444 745 q 369 799 391 781 q 331 828 348 816 q 302 840 313 840 q 261 777 274 840 q 260 774 260 775 l 247 714 l 118 732 l 136 819 q 170 911 149 879 q 296 978 212 978 q 394 956 347 976 q 468 914 441 937 q 520 873 495 892 q 557 854 545 854 q 570 859 564 854 q 578 870 575 863 q 585 885 582 876 q 589 900 588 894 q 592 914 591 907 q 593 922 593 921 l 605 983 m 543 173 l 543 269 l 526 269 q 318 252 386 269 q 250 197 250 236 q 291 151 250 172 q 393 130 332 130 q 543 173 478 130 m 397 682 q 530 669 473 682 q 621 634 587 656 q 677 579 656 612 q 706 513 699 547 q 714 437 714 479 l 714 0 l 589 0 l 570 44 q 357 -14 472 -14 q 160 46 237 -14 q 83 185 83 105 q 100 260 83 227 q 148 315 116 293 q 220 353 180 337 q 314 377 260 368 q 422 389 368 385 q 543 394 476 393 l 543 418 q 541 446 543 434 q 534 473 539 458 q 517 498 529 488 q 489 517 506 508 q 443 530 471 526 q 376 535 414 535 q 182 505 295 535 l 155 498 l 121 631 l 144 640 q 397 682 259 682 z "},"ä":{"ha":836,"x_min":83,"x_max":717,"o":"m 532 964 l 717 964 l 717 782 l 532 782 l 532 964 m 176 964 l 381 964 l 381 782 l 176 782 l 176 964 m 546 173 l 546 269 l 529 269 q 319 252 387 269 q 250 197 250 236 q 292 151 250 172 q 394 130 334 130 q 546 173 480 130 m 399 682 q 531 669 475 682 q 622 634 588 656 q 677 579 656 612 q 706 513 699 547 q 714 437 714 479 l 714 0 l 589 0 l 570 44 q 357 -14 478 -14 q 160 46 237 -14 q 83 185 83 105 q 100 260 83 227 q 148 315 116 293 q 220 353 180 337 q 315 377 260 368 q 424 389 370 385 q 546 394 479 393 l 546 418 q 544 452 546 438 q 532 483 541 466 q 505 510 522 500 q 455 528 488 521 q 378 535 423 535 q 182 505 295 535 l 155 498 l 121 631 l 144 640 q 399 682 259 682 z "},"å":{"ha":836,"x_min":83,"x_max":714,"o":"m 436 949 q 383 931 404 949 q 362 887 362 913 q 383 843 362 861 q 436 824 404 824 q 487 843 466 824 q 508 887 508 862 q 487 931 508 912 q 436 949 466 949 m 435 1067 q 578 1015 522 1067 q 633 887 633 964 q 578 759 633 811 q 436 707 523 707 q 286 759 347 707 q 224 887 224 812 q 286 1014 224 962 q 435 1067 347 1067 m 547 173 l 547 269 l 530 269 q 319 252 388 269 q 250 197 250 236 q 292 151 250 172 q 395 130 334 130 q 547 173 481 130 m 399 682 q 531 669 475 682 q 622 634 587 656 q 677 579 656 612 q 706 513 699 547 q 714 437 714 479 l 714 0 l 589 0 l 570 44 q 358 -14 479 -14 q 160 46 237 -14 q 83 185 83 105 q 108 273 83 235 q 173 332 133 310 q 276 369 214 355 q 401 388 338 382 q 547 394 465 393 l 547 418 q 544 452 547 437 q 532 483 542 466 q 506 510 523 500 q 456 528 488 521 q 378 535 423 535 q 182 505 295 535 l 155 498 l 121 631 l 144 640 q 399 682 259 682 z "},"æ":{"ha":1246,"x_min":83,"x_max":1158,"o":"m 250 214 q 289 156 250 182 q 380 131 328 131 q 511 180 455 131 l 511 296 q 392 290 441 295 q 315 277 342 284 q 273 258 288 269 q 254 237 258 247 q 250 214 250 227 m 863 530 q 751 495 795 530 q 699 408 708 460 l 995 408 q 985 451 993 431 q 964 490 978 471 q 924 519 949 509 q 863 530 898 530 m 144 642 q 392 682 263 682 q 628 583 553 682 q 745 656 679 629 q 883 682 811 682 q 987 666 941 682 q 1061 620 1032 650 q 1110 554 1090 590 q 1140 472 1130 519 q 1154 385 1150 426 q 1158 296 1158 344 l 1158 268 l 694 268 q 771 170 706 209 q 928 132 836 132 q 1065 155 989 132 l 1093 163 l 1124 35 l 1101 26 q 882 -14 991 -14 q 613 75 715 -14 q 357 -14 520 -14 q 165 45 246 -14 q 83 192 83 104 q 155 330 83 274 q 361 397 226 385 q 511 404 412 402 l 511 410 q 504 459 511 437 q 481 502 497 482 q 434 534 465 522 q 361 545 404 545 q 189 519 296 545 l 164 512 l 119 633 l 144 642 z "},"ç":{"ha":790,"x_min":88,"x_max":719,"o":"m 462 -218 q 497 -210 484 -217 q 510 -193 510 -203 q 487 -170 510 -178 q 399 -144 464 -161 q 349 -132 367 -136 l 318 -124 l 355 -7 q 252 26 298 3 q 168 85 206 48 q 109 181 130 123 q 88 316 88 240 q 111 458 88 395 q 172 561 134 521 q 262 628 210 602 q 369 666 314 655 q 486 677 425 677 q 695 635 598 677 l 719 625 l 675 493 l 648 502 q 503 526 578 526 q 431 521 464 526 q 366 503 398 516 q 311 469 334 490 q 275 415 289 448 q 262 337 262 381 q 517 129 262 129 q 640 150 581 129 l 667 159 l 712 31 l 687 21 q 524 -16 606 -10 l 515 -45 q 640 -186 640 -81 q 592 -292 640 -246 q 459 -338 544 -338 q 428 -336 444 -338 q 399 -333 411 -334 q 366 -326 387 -331 q 335 -319 344 -321 q 300 -310 327 -317 q 267 -302 273 -303 l 235 -294 l 274 -179 l 306 -187 q 460 -218 426 -218 l 462 -218 z "},"è":{"ha":859,"x_min":88,"x_max":770,"o":"m 473 683 q 579 670 532 683 q 656 638 626 658 q 709 588 687 619 q 743 529 732 557 q 761 462 755 501 q 769 395 768 422 q 770 331 770 368 l 770 255 l 258 255 q 341 168 273 205 q 520 131 409 131 q 678 154 599 131 l 706 162 l 739 33 l 715 25 q 471 -14 602 -14 q 314 6 382 -14 q 204 57 245 26 q 135 132 162 88 q 98 220 109 176 q 88 315 88 264 q 119 480 88 408 q 205 595 151 552 q 327 661 259 639 q 473 683 395 683 m 445 531 q 316 492 365 531 q 259 395 268 452 l 606 395 q 559 500 601 469 q 445 531 518 531 m 353 1063 l 680 806 l 590 696 l 238 945 l 353 1063 z "},"é":{"ha":859,"x_min":88,"x_max":770,"o":"m 473 683 q 579 670 532 683 q 656 638 626 658 q 709 588 687 619 q 743 529 732 557 q 761 462 755 501 q 769 395 768 422 q 770 331 770 368 l 770 255 l 258 255 q 341 168 273 205 q 520 131 409 131 q 678 154 599 131 l 706 162 l 739 33 l 715 25 q 471 -14 602 -14 q 314 6 382 -14 q 204 57 245 26 q 135 132 162 88 q 98 220 109 176 q 88 315 88 264 q 119 480 88 408 q 205 595 151 552 q 327 661 259 639 q 473 683 395 683 m 445 531 q 316 492 365 531 q 259 395 268 452 l 606 395 q 559 500 601 469 q 445 531 518 531 m 612 1063 l 711 945 l 377 696 l 272 806 l 612 1063 z "},"ê":{"ha":859,"x_min":88,"x_max":770,"o":"m 473 683 q 579 670 532 683 q 656 638 626 658 q 709 588 687 619 q 743 529 732 557 q 761 462 755 501 q 769 395 768 422 q 770 331 770 368 l 770 255 l 258 255 q 341 168 273 205 q 520 131 409 131 q 678 154 599 131 l 706 162 l 739 33 l 715 25 q 471 -14 602 -14 q 314 6 382 -14 q 204 57 245 26 q 135 132 162 88 q 98 220 109 176 q 88 315 88 264 q 119 480 88 408 q 205 595 151 552 q 327 661 259 639 q 473 683 395 683 m 445 531 q 316 492 365 531 q 259 395 268 452 l 606 395 q 559 500 601 469 q 445 531 518 531 m 494 1023 l 724 787 l 621 689 l 483 821 l 340 691 l 224 781 l 494 1023 z "},"ë":{"ha":859,"x_min":88,"x_max":770,"o":"m 473 683 q 579 670 532 683 q 656 638 626 658 q 709 588 687 619 q 743 529 732 557 q 761 462 755 501 q 769 395 768 422 q 770 331 770 368 l 770 255 l 259 255 q 341 168 273 205 q 520 131 409 131 q 678 154 599 131 l 706 162 l 739 33 l 715 25 q 471 -14 602 -14 q 314 6 382 -14 q 204 57 245 26 q 135 132 162 88 q 98 220 109 176 q 88 315 88 264 q 119 480 88 408 q 205 595 151 552 q 327 661 259 639 q 473 683 395 683 m 445 531 q 315 492 364 531 q 258 395 267 452 l 606 395 q 559 500 601 469 q 445 531 518 531 m 200 964 l 405 964 l 405 782 l 200 782 l 200 964 m 552 964 l 741 964 l 741 782 l 552 782 l 552 964 z "},"ì":{"ha":411,"x_min":0,"x_max":387,"o":"m 134 670 l 300 670 l 300 0 l 134 0 l 134 670 m 99 1063 l 387 806 l 298 696 l 0 945 l 99 1063 z "},"í":{"ha":411,"x_min":76,"x_max":463,"o":"m 132 670 l 299 670 l 299 0 l 132 0 l 132 670 m 363 1063 l 463 945 l 164 696 l 76 806 l 363 1063 z "},"î":{"ha":415,"x_min":12,"x_max":412,"o":"m 133 670 l 300 670 l 300 0 l 133 0 l 133 670 m 221 1027 l 412 786 l 308 688 l 211 810 l 113 690 l 12 780 l 221 1027 z "},"ï":{"ha":411,"x_min":-10,"x_max":421,"o":"m 122 670 l 289 670 l 289 0 l 122 0 l 122 670 m -10 964 l 171 964 l 171 783 l -10 783 l -10 964 m 240 964 l 421 964 l 421 783 l 240 783 l 240 964 z "},"ð":{"ha":960,"x_min":88,"x_max":838,"o":"m 252 354 q 315 196 252 259 q 467 133 378 133 q 523 141 495 133 q 582 168 551 149 q 636 228 613 187 q 669 327 660 269 q 675 454 675 376 l 675 481 q 454 547 548 547 q 309 494 366 547 q 252 354 252 440 m 403 988 q 627 896 526 959 l 765 972 l 830 859 l 732 803 q 815 651 792 734 q 838 461 838 568 q 834 359 838 406 q 820 263 831 313 q 791 174 809 213 q 744 98 774 134 q 675 39 715 62 q 580 1 636 15 q 454 -14 524 -14 q 187 69 286 -14 q 88 295 88 152 q 112 430 88 366 q 180 541 136 493 q 291 617 224 589 q 437 645 357 645 q 656 599 538 645 q 572 720 633 666 l 426 646 l 352 759 l 445 806 q 336 848 397 829 l 301 858 l 377 994 l 403 988 z "},"ñ":{"ha":909,"x_min":122,"x_max":791,"o":"m 663 987 l 791 966 l 774 880 q 621 720 743 720 q 541 735 579 722 q 477 766 503 748 q 430 801 451 784 q 391 831 408 819 q 363 843 374 843 q 321 777 336 843 l 307 717 l 176 736 l 193 822 q 233 922 207 887 q 357 981 277 981 q 437 966 399 979 q 502 935 475 953 q 549 900 528 917 q 587 870 570 882 q 614 858 604 858 q 628 863 622 858 q 638 878 634 869 q 645 896 642 888 q 649 913 647 903 q 651 925 650 924 l 663 987 m 122 670 l 246 670 l 266 624 q 528 684 404 684 q 642 666 594 684 q 718 622 690 648 q 762 555 745 595 q 783 478 778 515 q 787 395 787 441 l 787 0 l 620 0 l 620 393 q 619 416 620 406 q 615 440 618 426 q 606 466 612 455 q 590 490 601 477 q 563 510 578 502 q 524 523 547 517 q 471 528 500 528 q 289 490 389 528 l 289 0 l 122 0 l 122 670 z "},"ò":{"ha":932,"x_min":88,"x_max":844,"o":"m 404 1063 l 727 806 l 633 696 l 290 945 l 404 1063 m 460 532 q 361 513 408 532 q 284 449 315 493 q 252 345 252 405 q 313 197 252 257 q 472 137 374 137 q 621 189 561 137 q 680 328 680 241 q 661 417 680 377 q 609 482 641 458 q 538 519 577 507 q 460 532 500 532 m 471 683 q 742 594 639 683 q 844 347 844 506 q 740 83 844 180 q 458 -14 635 -14 q 189 78 290 -14 q 88 328 88 169 q 191 587 88 492 q 471 683 294 683 z "},"ó":{"ha":932,"x_min":88,"x_max":844,"o":"m 471 683 q 742 594 639 683 q 844 347 844 506 q 740 83 844 180 q 458 -14 635 -14 q 189 78 290 -14 q 88 328 88 169 q 191 587 88 492 q 471 683 294 683 m 460 532 q 361 513 408 532 q 284 449 315 493 q 252 345 252 405 q 313 197 252 257 q 472 137 374 137 q 621 189 561 137 q 680 328 680 241 q 661 417 680 377 q 609 482 641 458 q 538 519 577 507 q 460 532 500 532 m 548 1063 l 662 945 l 319 696 l 222 806 l 548 1063 z "},"ô":{"ha":932,"x_min":88,"x_max":844,"o":"m 471 683 q 742 594 639 683 q 844 347 844 506 q 740 83 844 180 q 458 -14 635 -14 q 189 78 290 -14 q 88 328 88 169 q 191 587 88 492 q 471 683 294 683 m 460 532 q 361 513 408 532 q 284 449 315 493 q 252 345 252 405 q 313 197 252 257 q 472 137 374 137 q 621 189 561 137 q 680 328 680 241 q 661 417 680 377 q 609 482 641 458 q 538 519 577 507 q 460 532 500 532 m 481 1023 l 719 787 l 607 689 l 471 821 l 332 691 l 220 781 l 481 1023 z "},"õ":{"ha":932,"x_min":88,"x_max":844,"o":"m 649 986 l 778 966 l 760 880 q 607 720 730 720 q 526 735 565 722 q 461 766 488 748 q 413 801 435 784 q 375 831 392 819 q 346 843 357 843 q 305 780 318 843 q 304 777 304 778 l 291 717 l 162 734 l 180 821 q 214 914 193 882 q 340 981 256 981 q 438 959 391 979 q 512 917 485 939 q 564 876 539 895 q 602 857 589 857 q 614 862 608 857 q 623 872 619 866 q 629 888 626 879 q 633 903 632 897 q 636 917 635 909 q 637 924 637 924 l 649 986 m 460 532 q 361 513 408 532 q 284 449 315 493 q 252 345 252 405 q 313 197 252 257 q 472 137 374 137 q 621 189 561 137 q 680 328 680 241 q 661 417 680 377 q 609 482 641 458 q 538 519 577 507 q 460 532 500 532 m 471 683 q 742 594 639 683 q 844 347 844 506 q 740 83 844 180 q 458 -14 635 -14 q 189 78 290 -14 q 88 328 88 169 q 191 587 88 492 q 471 683 294 683 z "},"ö":{"ha":932,"x_min":88,"x_max":844,"o":"m 471 683 q 742 594 639 683 q 844 347 844 506 q 740 83 844 180 q 458 -14 635 -14 q 189 78 290 -14 q 88 328 88 169 q 191 587 88 492 q 471 683 294 683 m 460 532 q 361 513 408 532 q 284 449 315 493 q 252 345 252 405 q 313 197 252 257 q 472 137 374 137 q 621 189 561 137 q 680 328 680 241 q 661 417 680 377 q 609 482 641 458 q 538 519 577 507 q 460 532 500 532 m 216 964 l 419 964 l 419 782 l 216 782 l 216 964 m 561 964 l 758 964 l 758 782 l 561 782 l 561 964 z "},"÷":{"ha":1061,"x_min":85,"x_max":976,"o":"m 426 836 l 634 836 l 634 648 l 426 648 l 426 836 m 426 244 l 634 244 l 634 56 l 426 56 l 426 244 m 85 521 l 976 521 l 976 371 l 85 371 l 85 521 z "},"ø":{"ha":932,"x_min":83,"x_max":876,"o":"m 803 692 l 876 611 l 792 536 q 844 347 844 456 q 740 83 844 180 q 458 -14 635 -14 q 241 39 331 -14 l 156 -37 l 83 43 l 158 111 q 88 328 88 197 q 191 587 88 492 q 471 683 294 683 q 717 614 620 683 l 803 692 m 460 532 q 361 513 408 532 q 284 449 315 493 q 252 345 252 405 q 288 228 252 279 l 587 497 q 460 532 531 532 m 661 417 l 372 157 q 472 137 418 137 q 621 189 561 137 q 680 328 680 241 q 661 417 680 376 z "},"ù":{"ha":909,"x_min":122,"x_max":787,"o":"m 621 670 l 787 670 l 787 0 l 663 0 l 644 45 q 381 -14 507 -14 q 267 4 315 -14 q 192 48 219 21 q 148 115 164 75 q 127 191 132 155 q 122 274 122 228 l 122 670 l 289 670 l 289 275 q 291 244 289 258 q 300 210 292 231 q 323 176 309 189 q 368 152 338 162 q 439 142 398 142 q 621 179 520 142 l 621 670 m 361 1063 l 692 806 l 600 696 l 250 945 l 361 1063 z "},"ú":{"ha":909,"x_min":122,"x_max":787,"o":"m 621 670 l 787 670 l 787 0 l 663 0 l 644 45 q 381 -14 507 -14 q 267 4 315 -14 q 192 48 219 21 q 148 115 164 75 q 127 191 132 155 q 122 274 122 228 l 122 670 l 289 670 l 289 275 q 291 244 289 258 q 300 210 292 231 q 323 176 309 189 q 368 152 338 162 q 439 142 398 142 q 621 179 520 142 l 621 670 m 603 1063 l 705 945 l 363 696 l 262 806 l 603 1063 z "},"û":{"ha":909,"x_min":122,"x_max":787,"o":"m 621 670 l 787 670 l 787 0 l 663 0 l 644 45 q 381 -14 507 -14 q 267 4 315 -14 q 192 48 219 21 q 148 115 164 75 q 127 191 132 155 q 122 274 122 228 l 122 670 l 289 670 l 289 275 q 291 244 289 258 q 300 210 292 231 q 323 176 309 189 q 368 152 338 162 q 439 142 398 142 q 621 179 520 142 l 621 670 m 474 1023 l 710 787 l 604 689 l 462 821 l 317 691 l 211 781 l 474 1023 z "},"ü":{"ha":909,"x_min":122,"x_max":787,"o":"m 621 670 l 787 670 l 787 0 l 663 0 l 644 45 q 381 -14 507 -14 q 267 4 315 -14 q 192 48 219 21 q 148 115 164 75 q 127 191 132 155 q 122 274 122 228 l 122 670 l 289 670 l 289 275 q 291 244 289 258 q 300 210 292 231 q 323 176 309 189 q 368 152 338 162 q 439 142 398 142 q 621 179 520 142 l 621 670 m 187 964 l 385 964 l 385 782 l 187 782 l 187 964 m 532 964 l 728 964 l 728 782 l 532 782 l 532 964 z "},"ý":{"ha":823,"x_min":34,"x_max":815,"o":"m 34 670 l 210 670 l 433 155 l 640 670 l 815 670 l 373 -360 l 172 -360 l 338 2 l 34 670 m 616 1063 l 718 945 l 387 696 l 286 806 l 616 1063 z "},"þ":{"ha":939,"x_min":129,"x_max":851,"o":"m 471 529 q 341 481 385 529 q 296 319 296 433 q 299 270 296 292 q 313 221 302 248 q 343 177 324 195 q 395 147 361 159 q 474 135 429 135 q 529 141 501 135 q 585 161 556 146 q 636 196 614 175 q 673 251 659 217 q 687 327 687 285 q 668 415 687 376 q 616 479 648 455 q 547 516 585 503 q 471 529 509 529 m 492 680 q 676 641 595 680 q 804 525 757 602 q 851 345 851 448 q 806 160 851 242 q 677 31 761 78 q 486 -16 593 -16 q 304 29 388 -16 l 304 -360 l 129 -360 l 129 964 l 304 964 l 304 633 q 492 680 385 680 z "},"ÿ":{"ha":823,"x_min":34,"x_max":815,"o":"m 34 670 l 210 670 l 433 155 l 640 670 l 815 670 l 373 -360 l 172 -360 l 338 2 l 34 670 m 163 964 l 364 964 l 364 782 l 163 782 l 163 964 m 506 964 l 704 964 l 704 782 l 506 782 l 506 964 z "},"Ā":{"ha":1049,"x_min":88,"x_max":1038,"o":"m 470 964 l 657 964 l 1038 0 l 863 0 l 755 252 l 361 252 l 254 0 l 88 0 l 470 964 m 695 409 l 558 766 l 420 409 l 695 409 m 259 1151 l 871 1151 l 871 1008 l 259 1008 l 259 1151 z "},"ā":{"ha":836,"x_min":83,"x_max":714,"o":"m 180 904 l 652 904 l 652 761 l 180 761 l 180 904 m 547 173 l 547 269 l 530 269 q 319 252 388 269 q 250 197 250 236 q 292 151 250 173 q 395 130 334 130 q 547 173 481 130 m 399 683 q 552 665 489 683 q 649 614 614 648 q 699 537 684 580 q 714 437 714 494 l 714 0 l 589 0 l 570 44 q 358 -14 479 -14 q 160 46 237 -14 q 83 185 83 105 q 100 260 83 227 q 148 315 116 293 q 220 353 180 338 q 315 377 260 369 q 425 390 370 386 q 547 395 479 394 l 547 418 q 544 452 547 437 q 532 483 542 466 q 506 510 523 500 q 456 528 488 521 q 378 535 423 535 q 182 505 295 535 l 155 498 l 121 631 l 144 640 q 399 683 261 683 z "},"Ă":{"ha":1049,"x_min":88,"x_max":1038,"o":"m 248 1217 l 391 1286 l 405 1261 q 423 1232 412 1246 q 453 1197 433 1218 q 503 1163 473 1176 q 566 1149 532 1149 q 671 1184 618 1149 q 762 1265 723 1219 l 779 1286 l 909 1203 l 892 1179 q 740 1051 830 1102 q 553 1000 650 1000 q 367 1058 445 1000 q 256 1194 288 1115 l 248 1217 m 695 409 l 558 766 l 420 409 l 695 409 m 470 964 l 657 964 l 1038 0 l 863 0 l 755 252 l 361 252 l 254 0 l 88 0 l 470 964 z "},"ă":{"ha":836,"x_min":83,"x_max":771,"o":"m 110 922 l 240 992 l 254 966 q 267 945 260 956 q 291 917 275 935 q 325 887 307 899 q 370 865 343 874 q 427 855 397 855 q 540 890 484 855 q 632 971 596 926 l 648 992 l 771 909 l 753 885 q 606 756 694 807 q 414 706 517 706 q 302 723 353 706 q 215 768 251 740 q 156 830 180 797 q 118 900 132 863 l 110 922 m 538 173 l 538 269 l 522 269 q 317 252 384 269 q 250 197 250 236 q 291 151 250 172 q 391 130 332 130 q 538 173 475 130 m 394 682 q 528 669 471 682 q 621 634 586 656 q 677 579 656 612 q 706 513 699 547 q 714 437 714 479 l 714 0 l 589 0 l 567 44 q 355 -14 469 -14 q 160 46 236 -14 q 83 185 83 105 q 108 273 83 235 q 172 332 132 310 q 272 369 212 355 q 395 388 333 382 q 536 394 456 393 l 536 418 q 534 446 536 434 q 528 473 532 458 q 512 497 523 488 q 483 517 500 507 q 438 531 466 526 q 374 535 410 535 q 182 505 294 535 l 155 498 l 121 631 l 144 640 q 394 682 259 682 z "},"Ą":{"ha":1105,"x_min":88,"x_max":1094,"o":"m 88 0 l 506 964 l 676 964 l 1094 0 l 1055 0 q 932 -21 985 -1 q 852 -63 879 -40 q 809 -116 826 -86 q 788 -158 791 -145 q 784 -179 785 -171 q 795 -209 784 -196 q 836 -222 807 -222 q 949 -187 887 -222 l 974 -172 l 1031 -280 l 1012 -294 q 918 -346 974 -322 q 798 -369 861 -369 q 656 -322 712 -369 q 600 -203 600 -276 q 683 -39 600 -121 q 876 80 766 43 l 800 252 l 371 252 l 254 0 l 88 0 m 734 409 l 586 766 l 435 409 l 734 409 z "},"ą":{"ha":836,"x_min":83,"x_max":718,"o":"m 250 210 q 287 158 250 181 q 385 135 324 135 q 545 178 469 135 l 545 296 q 361 288 420 296 q 273 254 302 280 q 250 210 250 235 m 378 527 q 182 497 295 527 l 155 490 l 121 623 l 144 631 q 399 674 259 674 q 531 661 475 674 q 622 626 588 648 q 677 571 656 604 q 706 505 699 538 q 714 429 714 471 l 714 -20 l 699 -27 q 654 -49 683 -35 q 609 -72 626 -63 q 569 -93 593 -80 q 533 -116 546 -106 q 506 -138 519 -125 q 486 -163 492 -151 q 480 -189 480 -176 q 495 -219 480 -208 q 534 -231 510 -231 q 635 -196 571 -231 l 659 -183 l 718 -286 l 696 -300 q 493 -368 591 -368 q 348 -323 405 -368 q 292 -211 292 -279 q 490 11 292 -87 q 347 -12 418 -12 q 158 47 233 -12 q 83 185 83 106 q 94 239 83 212 q 126 294 104 267 q 191 343 149 321 q 291 376 233 365 q 545 394 385 393 l 545 410 q 541 452 545 435 q 521 488 536 469 q 470 517 506 507 q 378 527 434 527 z "},"Ć":{"ha":1095,"x_min":186,"x_max":1063,"o":"m 812 1351 l 897 1219 l 456 991 l 379 1112 l 812 1351 m 186 481 q 224 675 186 585 q 330 830 261 764 q 504 933 399 896 q 736 970 608 970 q 1024 917 888 970 l 1049 907 l 996 760 l 970 769 q 732 813 838 813 q 576 786 648 813 q 457 712 505 758 q 384 606 410 666 q 358 481 358 547 q 386 354 358 414 q 465 247 414 293 q 592 175 515 201 q 760 148 669 148 q 982 187 871 148 l 1007 196 l 1063 60 l 1038 50 q 727 -14 890 -14 q 497 25 600 -14 q 326 131 393 64 q 223 288 259 199 q 186 481 186 378 z "},"ć":{"ha":790,"x_min":88,"x_max":719,"o":"m 88 321 q 110 463 88 400 q 169 566 132 526 q 257 633 205 606 q 364 671 308 660 q 484 682 420 682 q 695 640 598 682 l 719 630 l 675 498 l 648 507 q 500 531 578 531 q 408 522 450 531 q 330 493 366 513 q 272 435 293 473 q 252 342 252 396 q 515 134 252 134 q 640 155 581 134 l 667 163 l 712 35 l 687 26 q 468 -14 585 -14 q 355 -4 408 -14 q 252 30 302 5 q 166 91 202 54 q 110 186 131 127 q 88 321 88 245 m 551 1063 l 650 945 l 306 696 l 208 806 l 551 1063 z "},"Ĉ":{"ha":1095,"x_min":186,"x_max":1063,"o":"m 186 481 q 224 675 186 585 q 330 830 261 764 q 504 933 399 896 q 736 970 608 970 q 1024 917 888 970 l 1049 907 l 996 760 l 970 769 q 732 813 838 813 q 576 786 648 813 q 457 712 505 758 q 384 606 410 666 q 358 481 358 547 q 386 354 358 414 q 465 247 414 293 q 592 175 515 201 q 760 148 669 148 q 982 187 871 148 l 1007 196 l 1063 60 l 1038 50 q 727 -14 890 -14 q 497 25 600 -14 q 326 131 393 64 q 223 288 259 199 q 186 481 186 378 m 665 1323 l 901 1087 l 785 989 l 654 1120 l 519 991 l 406 1081 l 665 1323 z "},"ĉ":{"ha":790,"x_min":88,"x_max":719,"o":"m 88 321 q 110 463 88 400 q 169 566 132 526 q 257 633 205 606 q 364 671 308 660 q 484 682 420 682 q 695 640 598 682 l 719 630 l 675 498 l 648 507 q 500 531 578 531 q 408 522 450 531 q 330 493 366 513 q 272 435 293 473 q 252 342 252 396 q 515 134 252 134 q 640 155 581 134 l 667 163 l 712 35 l 687 26 q 468 -14 585 -14 q 355 -4 408 -14 q 252 30 302 5 q 166 91 202 54 q 110 186 131 127 q 88 321 88 245 m 450 1029 l 680 793 l 577 694 l 437 826 l 289 696 l 181 787 l 450 1029 z "},"Ċ":{"ha":1095,"x_min":186,"x_max":1063,"o":"m 530 1240 l 750 1240 l 750 1042 l 530 1042 l 530 1240 m 186 481 q 224 675 186 585 q 330 830 261 764 q 504 933 399 896 q 736 970 608 970 q 1024 917 888 970 l 1049 907 l 996 760 l 970 769 q 732 813 838 813 q 576 786 648 813 q 457 712 505 758 q 384 606 410 666 q 358 481 358 547 q 386 354 358 414 q 465 247 414 293 q 592 175 515 201 q 760 148 669 148 q 982 187 871 148 l 1007 196 l 1063 60 l 1038 50 q 727 -14 890 -14 q 497 25 600 -14 q 326 131 393 64 q 223 288 259 199 q 186 481 186 378 z "},"ċ":{"ha":790,"x_min":88,"x_max":719,"o":"m 88 321 q 110 463 88 400 q 169 566 132 526 q 257 633 205 606 q 364 671 308 660 q 484 682 420 682 q 695 640 598 682 l 719 630 l 675 498 l 648 507 q 500 531 578 531 q 408 522 450 531 q 330 493 366 513 q 272 435 293 473 q 252 342 252 396 q 515 134 252 134 q 640 155 581 134 l 667 163 l 712 35 l 687 26 q 468 -14 585 -14 q 355 -4 408 -14 q 252 30 302 5 q 166 91 202 54 q 110 186 131 127 q 88 321 88 245 m 342 964 l 576 964 l 576 766 l 342 766 l 342 964 z "},"Č":{"ha":1095,"x_min":186,"x_max":1063,"o":"m 186 481 q 224 675 186 585 q 330 830 261 764 q 504 933 399 896 q 736 970 608 970 q 1024 917 888 970 l 1049 907 l 996 760 l 970 769 q 732 813 838 813 q 576 786 648 813 q 457 712 505 758 q 384 606 410 666 q 358 481 358 547 q 386 354 358 414 q 465 247 414 293 q 592 175 515 201 q 760 148 669 148 q 982 187 871 148 l 1007 196 l 1063 60 l 1038 50 q 727 -14 890 -14 q 497 25 600 -14 q 326 131 393 64 q 223 288 259 199 q 186 481 186 378 m 663 988 l 427 1224 l 542 1322 l 673 1191 l 808 1320 l 918 1230 l 663 988 z "},"č":{"ha":790,"x_min":88,"x_max":719,"o":"m 88 321 q 110 463 88 400 q 169 566 132 526 q 257 633 205 606 q 364 671 308 660 q 484 682 420 682 q 695 640 598 682 l 719 630 l 675 498 l 648 507 q 500 531 578 531 q 408 522 450 531 q 330 493 366 513 q 272 435 293 473 q 252 342 252 396 q 515 134 252 134 q 640 155 581 134 l 667 163 l 712 35 l 687 26 q 468 -14 585 -14 q 355 -4 408 -14 q 252 30 302 5 q 166 91 202 54 q 110 186 131 127 q 88 321 88 245 m 426 694 l 182 930 l 293 1028 l 437 897 l 580 1026 l 682 938 l 426 694 z "},"Ď":{"ha":1195,"x_min":197,"x_max":1086,"o":"m 604 989 l 393 1225 l 496 1323 l 614 1192 l 734 1321 l 836 1233 l 604 989 m 543 806 l 368 806 l 368 157 l 492 157 q 569 159 538 157 q 649 168 600 160 q 733 191 699 176 q 806 235 768 205 q 869 307 844 264 q 915 488 915 384 q 898 597 915 547 q 854 682 882 648 q 790 742 827 716 q 715 782 753 768 q 637 802 677 796 q 543 806 603 806 m 538 964 q 706 949 629 964 q 838 911 783 935 q 937 852 894 886 q 1008 778 981 817 q 1054 692 1036 739 q 1079 602 1072 646 q 1086 510 1086 557 q 1076 390 1086 448 q 1040 272 1066 332 q 974 164 1015 212 q 869 78 934 117 q 721 21 804 40 q 446 0 627 0 l 197 0 l 197 964 l 538 964 z "},"ď":{"ha":1169,"x_min":88,"x_max":1145,"o":"m 942 1025 l 1145 1025 l 1000 705 l 798 705 l 942 1025 m 88 324 q 190 590 88 496 q 463 684 292 684 q 621 661 543 684 l 621 1025 l 788 1025 l 788 0 l 665 0 l 651 31 q 441 -14 553 -14 q 339 -3 388 -14 q 244 33 290 7 q 163 95 197 58 q 109 192 130 133 q 88 324 88 251 m 484 134 q 621 157 554 134 l 621 520 q 482 541 549 541 q 423 536 452 541 q 362 518 395 532 q 307 484 330 505 q 268 426 283 463 q 252 340 252 389 q 268 254 252 292 q 307 194 283 216 q 362 157 330 172 q 424 138 395 143 q 484 134 453 134 z "},"Đ":{"ha":1200,"x_min":79,"x_max":1122,"o":"m 559 806 l 398 806 l 398 576 l 575 576 l 575 418 l 398 418 l 398 157 l 511 157 q 590 159 555 157 q 672 169 625 161 q 756 190 720 176 q 831 228 793 203 q 893 287 869 253 q 934 372 918 321 q 950 488 950 423 q 941 573 950 532 q 904 657 931 614 q 835 733 877 701 q 722 786 793 765 q 559 806 650 806 m 227 964 l 550 964 q 609 962 581 964 q 682 956 637 961 q 765 942 726 951 q 850 916 804 933 q 933 877 896 899 q 1007 819 970 854 q 1068 741 1043 784 q 1107 639 1093 699 q 1122 510 1122 580 q 507 0 1122 0 l 227 0 l 227 418 l 79 418 l 79 576 l 227 576 l 227 964 z "},"đ":{"ha":951,"x_min":88,"x_max":880,"o":"m 486 541 q 428 536 456 541 q 369 518 400 532 q 314 484 337 505 q 276 426 291 463 q 260 340 260 389 q 276 254 260 292 q 314 194 291 216 q 369 157 337 172 q 429 138 400 143 q 487 134 457 134 q 621 157 556 134 l 621 520 q 486 541 551 541 m 467 684 q 621 661 545 684 l 621 743 l 412 743 l 412 886 l 621 886 l 621 1025 l 788 1025 l 788 886 l 880 886 l 880 743 l 788 743 l 788 0 l 665 0 l 651 31 q 445 -14 555 -14 q 344 -3 393 -14 q 248 33 295 7 q 166 95 201 58 q 110 192 131 133 q 88 324 88 251 q 137 521 88 439 q 271 643 186 603 q 467 684 356 684 z "},"Ē":{"ha":981,"x_min":197,"x_max":873,"o":"m 197 0 l 197 964 l 873 964 l 873 806 l 368 806 l 368 575 l 836 575 l 836 418 l 368 418 l 368 157 l 873 157 l 873 0 l 197 0 m 244 1151 l 852 1151 l 852 1008 l 244 1008 l 244 1151 z "},"ē":{"ha":859,"x_min":88,"x_max":770,"o":"m 88 315 q 119 480 88 408 q 205 595 151 552 q 327 661 259 639 q 473 683 395 683 q 579 670 532 683 q 656 638 626 658 q 709 588 687 619 q 743 529 732 557 q 761 462 755 501 q 769 395 768 422 q 770 331 770 368 l 770 255 l 258 255 q 341 168 273 205 q 520 131 409 131 q 678 154 599 131 l 706 162 l 739 33 l 715 25 q 471 -14 602 -14 q 314 6 382 -14 q 204 57 245 26 q 135 132 162 88 q 98 220 109 176 q 88 315 88 264 m 445 531 q 316 492 365 531 q 259 395 268 452 l 606 395 q 559 500 601 469 q 445 531 518 531 m 180 904 l 693 904 l 693 747 l 180 747 l 180 904 z "},"Ĕ":{"ha":981,"x_min":197,"x_max":880,"o":"m 758 1286 l 880 1203 l 863 1179 q 707 1046 795 1090 q 521 1002 618 1002 q 337 1053 414 1002 q 227 1194 259 1104 l 218 1217 l 350 1286 l 362 1261 q 437 1179 391 1208 q 536 1149 483 1149 q 741 1265 644 1149 l 758 1286 m 197 0 l 197 964 l 873 964 l 873 806 l 368 806 l 368 575 l 836 575 l 836 418 l 368 418 l 368 157 l 873 157 l 873 0 l 197 0 z "},"ĕ":{"ha":859,"x_min":88,"x_max":812,"o":"m 88 315 q 109 452 88 390 q 165 556 130 513 q 249 627 200 598 q 353 670 298 656 q 469 683 408 683 q 555 675 515 683 q 624 655 595 667 q 675 623 652 643 q 713 583 699 603 q 740 535 728 563 q 756 485 751 508 q 766 432 762 463 q 770 380 769 401 q 770 331 770 359 l 770 255 l 258 255 q 339 168 272 205 q 515 131 406 131 q 678 154 599 131 l 706 162 l 739 33 l 715 25 q 466 -14 602 -14 q 311 6 378 -14 q 202 57 243 26 q 134 132 161 88 q 98 220 108 176 q 88 315 88 264 m 441 531 q 315 492 362 531 q 259 395 268 453 l 600 395 q 553 500 593 469 q 441 531 513 531 m 151 922 l 286 992 l 300 966 q 318 938 307 952 q 351 903 330 924 q 403 868 372 882 q 470 855 435 855 q 582 890 527 855 q 673 971 637 926 l 689 992 l 812 909 l 794 885 q 647 756 735 807 q 458 706 559 706 q 266 763 343 706 q 159 900 188 821 l 151 922 z "},"Ė":{"ha":981,"x_min":197,"x_max":873,"o":"m 197 0 l 197 964 l 873 964 l 873 806 l 368 806 l 368 575 l 836 575 l 836 418 l 368 418 l 368 157 l 873 157 l 873 0 l 197 0 m 409 1240 l 645 1240 l 645 1042 l 409 1042 l 409 1240 z "},"ė":{"ha":859,"x_min":88,"x_max":770,"o":"m 88 315 q 119 480 88 408 q 205 595 151 552 q 327 661 259 639 q 473 683 395 683 q 579 670 532 683 q 656 638 626 658 q 709 588 687 619 q 743 529 732 557 q 761 462 755 501 q 769 395 768 422 q 770 331 770 368 l 770 255 l 258 255 q 341 168 273 205 q 520 131 409 131 q 678 154 599 131 l 706 162 l 739 33 l 715 25 q 471 -14 602 -14 q 314 6 382 -14 q 204 57 245 26 q 135 132 162 88 q 98 220 109 176 q 88 315 88 264 m 445 531 q 316 492 365 531 q 259 395 268 452 l 606 395 q 559 500 601 469 q 445 531 518 531 m 353 964 l 589 964 l 589 766 l 353 766 l 353 964 z "},"Ę":{"ha":981,"x_min":197,"x_max":880,"o":"m 197 964 l 873 964 l 873 806 l 368 806 l 368 575 l 836 575 l 836 418 l 368 418 l 368 157 l 873 157 l 873 33 l 861 24 q 805 -14 840 9 q 752 -50 771 -37 q 710 -82 734 -63 q 674 -114 686 -100 q 654 -145 663 -128 q 645 -178 645 -162 q 660 -211 645 -199 q 699 -222 675 -222 q 796 -186 741 -222 l 821 -171 l 880 -279 l 860 -294 q 659 -368 758 -368 q 518 -322 573 -368 q 463 -203 463 -276 q 586 0 463 -93 l 197 0 l 197 964 z "},"ę":{"ha":859,"x_min":88,"x_max":770,"o":"m 88 304 q 111 449 88 385 q 171 555 134 513 q 259 625 208 597 q 362 664 309 652 q 473 676 416 676 q 579 664 532 676 q 656 632 626 651 q 709 582 687 613 q 743 523 732 551 q 761 456 755 495 q 769 390 768 417 q 770 325 770 362 l 770 248 l 258 248 q 345 163 273 197 q 522 129 417 129 q 678 152 604 129 l 706 161 l 739 31 l 715 23 q 559 -73 623 -7 q 496 -185 496 -138 q 511 -220 496 -208 q 549 -231 526 -231 q 656 -197 591 -231 l 680 -184 l 739 -286 l 718 -300 q 509 -369 616 -369 q 368 -323 422 -369 q 315 -208 315 -277 q 416 -12 315 -111 q 172 81 255 1 q 88 304 88 160 m 445 524 q 316 485 365 524 q 259 388 268 446 l 606 388 q 559 493 601 462 q 445 524 518 524 z "},"Ě":{"ha":981,"x_min":197,"x_max":873,"o":"m 197 0 l 197 964 l 873 964 l 873 806 l 368 806 l 368 575 l 836 575 l 836 418 l 368 418 l 368 157 l 873 157 l 873 0 l 197 0 m 524 988 l 286 1224 l 393 1322 l 535 1191 l 680 1320 l 785 1230 l 524 988 z "},"ě":{"ha":859,"x_min":88,"x_max":770,"o":"m 88 315 q 119 480 88 408 q 205 595 151 552 q 327 661 259 639 q 473 683 395 683 q 579 670 532 683 q 656 638 626 658 q 709 588 687 619 q 743 529 732 557 q 761 462 755 501 q 769 395 768 422 q 770 331 770 368 l 770 255 l 258 255 q 341 168 273 205 q 520 131 409 131 q 678 154 599 131 l 706 162 l 739 33 l 715 25 q 471 -14 602 -14 q 314 6 382 -14 q 204 57 245 26 q 135 132 162 88 q 98 220 109 176 q 88 315 88 264 m 445 531 q 316 492 365 531 q 259 395 268 452 l 606 395 q 559 500 601 469 q 445 531 518 531 m 471 694 l 224 930 l 342 1028 l 481 897 l 622 1026 l 724 938 l 471 694 z "},"Ĝ":{"ha":1190,"x_min":146,"x_max":1088,"o":"m 1088 140 q 687 -14 948 -14 q 484 15 576 -14 q 330 92 392 44 q 226 204 269 140 q 165 338 184 269 q 146 481 146 408 q 180 664 146 577 q 279 820 214 751 q 449 930 345 889 q 685 971 554 971 q 1030 886 877 971 l 1054 872 l 983 738 l 958 751 q 838 794 910 775 q 692 814 765 814 q 553 791 620 814 q 433 728 486 769 q 349 625 380 688 q 317 488 317 562 q 369 311 317 389 q 512 188 420 232 q 717 144 603 144 q 921 201 842 144 l 921 386 l 619 386 l 619 536 l 1088 536 l 1088 140 m 652 1323 l 885 1087 l 771 989 l 642 1120 l 509 991 l 397 1081 l 652 1323 z "},"ĝ":{"ha":909,"x_min":87,"x_max":787,"o":"m 210 787 l 472 1029 l 709 793 l 597 694 l 460 826 l 321 696 l 210 787 m 453 684 q 649 641 541 684 l 661 670 l 787 670 l 787 -14 q 777 -112 787 -66 q 741 -207 768 -159 q 671 -289 713 -254 q 557 -345 629 -323 q 393 -367 486 -367 q 155 -321 263 -367 l 130 -311 l 181 -180 l 207 -189 q 376 -218 290 -218 q 464 -208 425 -218 q 527 -183 503 -198 q 568 -146 551 -169 q 594 -104 586 -123 q 607 -60 603 -85 q 612 -21 612 -34 q 613 10 613 -8 q 613 17 613 15 q 441 -14 526 -14 q 337 -2 387 -14 q 241 35 288 9 q 161 101 195 62 q 107 199 127 140 q 87 333 87 259 q 111 471 87 410 q 173 572 135 533 q 260 636 210 610 q 357 673 309 663 q 453 684 406 684 m 251 345 q 309 193 251 252 q 477 134 367 134 q 613 158 545 134 l 613 512 q 461 538 524 538 q 309 486 366 538 q 251 345 251 433 z "},"Ğ":{"ha":1190,"x_min":146,"x_max":1088,"o":"m 340 1217 l 483 1286 l 497 1261 q 515 1232 505 1246 q 545 1197 525 1218 q 594 1163 565 1176 q 658 1149 624 1149 q 763 1184 711 1149 q 854 1265 815 1219 l 871 1286 l 998 1203 l 981 1179 q 834 1052 923 1104 q 646 1000 745 1000 q 540 1017 590 1000 q 453 1062 490 1034 q 390 1124 416 1090 q 349 1194 363 1158 l 340 1217 m 1088 140 q 687 -14 948 -14 q 488 14 578 -14 q 336 87 398 41 q 230 195 273 133 q 166 328 186 258 q 146 473 146 397 q 167 620 146 549 q 232 756 188 692 q 338 868 275 820 q 490 943 400 916 q 685 971 579 971 q 1030 886 877 971 l 1054 872 l 983 738 l 958 751 q 838 794 910 775 q 692 814 765 814 q 553 791 620 814 q 433 728 486 769 q 349 625 380 688 q 317 488 317 562 q 369 311 317 389 q 512 188 420 232 q 717 144 603 144 q 921 201 842 144 l 921 386 l 619 386 l 619 536 l 1088 536 l 1088 140 z "},"ğ":{"ha":909,"x_min":87,"x_max":819,"o":"m 393 -367 q 155 -321 263 -367 l 130 -311 l 181 -180 l 207 -189 q 376 -218 290 -218 q 464 -208 425 -218 q 527 -183 503 -198 q 568 -146 551 -169 q 594 -104 586 -123 q 607 -60 603 -85 q 612 -21 612 -34 q 613 10 613 -8 q 613 17 613 15 q 441 -14 526 -14 q 337 -2 387 -14 q 241 35 288 9 q 161 101 195 62 q 107 199 127 140 q 87 333 87 259 q 111 471 87 410 q 173 572 135 533 q 260 636 210 610 q 357 673 309 663 q 453 684 406 684 q 649 641 541 684 l 661 670 l 787 670 l 787 -5 q 764 -151 787 -87 q 704 -255 741 -215 q 615 -321 667 -295 q 509 -357 563 -347 q 393 -367 454 -367 m 251 345 q 309 193 251 252 q 477 134 367 134 q 613 158 545 134 l 613 512 q 461 538 524 538 q 309 486 366 538 q 251 345 251 433 m 166 900 l 158 922 l 294 992 l 309 966 q 322 945 315 956 q 345 917 329 935 q 378 887 361 900 q 422 865 396 874 q 477 855 449 855 q 589 890 534 855 q 681 971 644 925 l 697 992 l 819 909 l 802 885 q 655 756 743 807 q 465 706 567 706 q 273 763 351 706 q 166 900 195 821 z "},"Ġ":{"ha":1190,"x_min":146,"x_max":1088,"o":"m 564 1240 l 781 1240 l 781 1042 l 564 1042 l 564 1240 m 1088 140 q 687 -14 948 -14 q 484 15 576 -14 q 330 92 392 44 q 226 204 269 140 q 165 338 184 269 q 146 481 146 408 q 180 664 146 577 q 279 820 214 751 q 449 930 345 889 q 685 971 554 971 q 1030 886 877 971 l 1054 872 l 983 738 l 958 751 q 838 794 910 775 q 692 814 765 814 q 553 791 620 814 q 433 728 486 769 q 349 625 380 688 q 317 488 317 562 q 369 311 317 389 q 512 188 420 232 q 717 144 603 144 q 921 201 842 144 l 921 386 l 619 386 l 619 536 l 1088 536 l 1088 140 z "},"ġ":{"ha":909,"x_min":87,"x_max":787,"o":"m 338 766 l 338 964 l 568 964 l 568 766 l 338 766 m 251 345 q 309 193 251 252 q 477 134 367 134 q 613 158 545 134 l 613 512 q 461 538 524 538 q 309 486 366 538 q 251 345 251 433 m 453 684 q 649 641 541 684 l 661 670 l 787 670 l 787 -14 q 777 -112 787 -66 q 741 -207 768 -159 q 671 -289 713 -254 q 557 -345 629 -323 q 393 -367 486 -367 q 155 -321 263 -367 l 130 -311 l 181 -179 l 207 -189 q 376 -218 284 -218 q 464 -208 425 -218 q 527 -183 503 -198 q 568 -146 551 -169 q 594 -104 586 -123 q 607 -60 603 -85 q 612 -21 612 -34 q 613 10 613 -8 q 613 17 613 15 q 441 -14 526 -14 q 337 -2 387 -14 q 241 35 288 9 q 161 101 195 62 q 107 199 127 140 q 87 333 87 259 q 111 471 87 410 q 173 572 135 533 q 260 636 210 610 q 357 673 309 663 q 453 684 406 684 z "},"Ģ":{"ha":1190,"x_min":146,"x_max":1088,"o":"m 1088 140 q 687 -14 948 -14 q 484 15 576 -14 q 330 92 392 44 q 226 204 269 140 q 165 338 184 269 q 146 481 146 408 q 167 629 146 557 q 232 762 188 700 q 339 871 277 825 q 491 944 402 918 q 685 971 580 971 q 1030 886 877 971 l 1054 872 l 983 738 l 958 751 q 838 794 910 775 q 692 814 765 814 q 553 791 620 814 q 433 728 486 769 q 349 625 380 688 q 317 488 317 562 q 369 311 317 389 q 512 188 420 232 q 717 144 603 144 q 921 201 842 144 l 921 386 l 619 386 l 619 536 l 1088 536 l 1088 140 m 640 -40 l 840 -40 l 697 -360 l 497 -360 l 640 -40 z "},"ģ":{"ha":909,"x_min":87,"x_max":787,"o":"m 296 729 l 446 1049 l 656 1049 l 506 729 l 296 729 m 251 343 q 309 192 251 251 q 477 132 367 132 q 613 157 545 132 l 613 511 q 461 536 524 536 q 309 484 366 536 q 251 343 251 432 m 453 682 q 649 640 541 682 l 661 670 l 787 670 l 787 -16 q 777 -114 787 -67 q 741 -208 768 -160 q 671 -290 713 -256 q 557 -347 629 -325 q 393 -368 486 -368 q 155 -323 263 -368 l 130 -312 l 181 -180 l 207 -191 q 376 -220 284 -220 q 463 -210 425 -220 q 526 -185 502 -200 q 568 -148 551 -171 q 594 -106 586 -125 q 607 -62 602 -87 q 612 -23 612 -37 q 613 9 613 -9 q 613 16 613 14 q 441 -14 527 -14 q 337 -2 387 -14 q 241 35 288 9 q 161 100 195 61 q 107 198 127 138 q 87 332 87 258 q 111 470 87 408 q 173 570 135 532 q 260 635 210 609 q 357 672 309 661 q 453 682 406 682 z "},"Ĥ":{"ha":1196,"x_min":197,"x_max":1054,"o":"m 883 964 l 1054 964 l 1054 0 l 883 0 l 883 418 l 368 418 l 368 0 l 197 0 l 197 964 l 368 964 l 368 576 l 883 576 l 883 964 m 641 1326 l 878 1090 l 762 992 l 630 1124 l 495 994 l 382 1084 l 641 1326 z "},"ĥ":{"ha":919,"x_min":129,"x_max":797,"o":"m 477 528 q 296 490 396 528 l 296 0 l 129 0 l 129 1025 l 296 1025 l 296 635 q 530 682 420 682 q 626 670 583 682 q 695 641 668 659 q 743 596 723 623 q 773 544 763 568 q 789 486 783 519 q 796 431 795 452 q 797 381 797 410 l 797 0 l 627 0 l 627 391 q 626 420 627 408 q 617 454 625 432 q 594 491 609 476 q 550 516 580 505 q 477 528 519 528 m 493 1360 l 733 1124 l 623 1026 l 482 1158 l 336 1028 l 234 1118 l 493 1360 z "},"Ħ":{"ha":1196,"x_min":95,"x_max":1156,"o":"m 883 964 l 1054 964 l 1054 867 l 1156 867 l 1156 726 l 1054 726 l 1054 0 l 883 0 l 883 418 l 368 418 l 368 0 l 197 0 l 197 726 l 95 726 l 95 867 l 197 867 l 197 964 l 368 964 l 368 862 l 883 862 l 883 964 m 883 576 l 883 741 l 368 741 l 368 576 l 883 576 z "},"ħ":{"ha":919,"x_min":37,"x_max":797,"o":"m 129 1025 l 296 1025 l 296 886 l 553 886 l 553 743 l 296 743 l 296 635 q 525 682 418 682 q 638 667 589 682 q 716 625 687 651 q 765 561 746 599 q 790 484 783 524 q 797 397 797 445 l 797 0 l 621 0 l 621 394 q 619 425 621 412 q 610 459 618 439 q 587 494 602 480 q 543 517 572 507 q 474 528 514 528 q 296 490 395 528 l 296 0 l 129 0 l 129 743 l 37 743 l 37 886 l 129 886 l 129 1025 z "},"Ĩ":{"ha":551,"x_min":57,"x_max":560,"o":"m 385 996 q 332 1009 357 996 q 291 1042 307 1023 q 262 1080 275 1061 q 239 1112 249 1099 q 220 1126 229 1126 q 210 1113 214 1126 q 190 1045 205 1101 q 181 1013 184 1025 l 57 1046 q 65 1079 60 1057 q 75 1114 71 1102 q 84 1147 78 1126 q 97 1179 91 1167 q 112 1206 103 1191 q 133 1231 121 1222 q 158 1249 144 1240 q 190 1262 172 1258 q 230 1265 208 1265 q 296 1246 267 1265 q 341 1203 326 1226 q 371 1160 357 1179 q 394 1140 385 1140 q 402 1149 399 1140 q 419 1207 406 1158 q 437 1271 429 1244 l 560 1236 q 552 1203 557 1227 q 542 1166 546 1179 q 532 1131 538 1154 q 518 1095 525 1108 q 502 1064 512 1082 q 481 1036 492 1046 q 456 1015 470 1025 q 424 1000 441 1005 q 385 996 406 996 m 223 0 l 223 964 l 394 964 l 394 0 l 223 0 z "},"ĩ":{"ha":411,"x_min":-39,"x_max":464,"o":"m 122 670 l 289 670 l 289 0 l 122 0 l 122 670 m 289 760 q 236 774 260 760 q 195 806 211 787 q 165 844 178 825 q 142 877 153 863 q 124 890 132 890 q 113 878 118 890 q 94 810 109 865 q 85 777 88 789 l -39 810 q -31 844 -37 821 q -22 879 -25 867 q -12 911 -18 891 q 1 944 -5 932 q 16 971 7 956 q 36 996 25 987 q 62 1014 47 1005 q 94 1026 76 1023 q 134 1030 112 1030 q 200 1010 170 1030 q 245 967 230 991 q 275 924 260 944 q 298 905 289 905 q 306 914 302 905 q 323 972 309 923 q 340 1036 333 1009 l 464 1001 q 455 967 461 991 q 446 931 450 943 q 435 896 442 918 q 422 860 429 873 q 406 829 416 847 q 385 801 396 811 q 359 780 374 790 q 328 765 345 770 q 289 760 310 760 z "},"Ī":{"ha":551,"x_min":136,"x_max":469,"o":"m 136 1151 l 469 1151 l 469 1008 l 136 1008 l 136 1151 m 217 964 l 388 964 l 388 0 l 217 0 l 217 964 z "},"ī":{"ha":411,"x_min":54,"x_max":357,"o":"m 122 670 l 289 670 l 289 0 l 122 0 l 122 670 m 54 904 l 357 904 l 357 761 l 54 761 l 54 904 z "},"Ĭ":{"ha":606,"x_min":58,"x_max":603,"o":"m 58 1215 l 189 1284 l 201 1259 q 209 1238 203 1255 q 221 1208 214 1221 q 239 1180 228 1196 q 270 1156 250 1165 q 313 1147 289 1147 q 336 1149 325 1147 q 357 1157 347 1152 q 375 1165 368 1162 q 393 1179 383 1169 q 409 1193 404 1189 q 424 1211 414 1198 q 438 1228 435 1224 q 452 1246 441 1232 q 465 1263 463 1261 l 481 1284 l 603 1201 l 585 1177 q 527 1109 555 1138 q 464 1053 499 1080 q 388 1012 429 1026 q 302 998 347 998 q 211 1015 252 998 q 143 1061 171 1031 q 99 1122 116 1091 q 66 1192 81 1152 l 58 1215 m 222 964 l 393 964 l 393 0 l 222 0 l 222 964 z "},"ĭ":{"ha":467,"x_min":-30,"x_max":515,"o":"m -30 970 l 100 1040 l 113 1015 q 120 994 115 1011 q 133 964 126 977 q 151 936 140 951 q 181 912 162 921 q 225 903 201 903 q 248 905 237 903 q 269 912 258 907 q 287 921 279 918 q 305 935 295 925 q 320 949 315 945 q 336 967 326 954 q 350 984 347 980 q 363 1002 353 987 q 376 1019 374 1017 l 393 1040 l 515 957 l 497 933 q 439 865 467 894 q 376 809 411 836 q 300 768 341 782 q 214 754 259 754 q 123 770 163 754 q 55 817 83 787 q 11 878 28 847 q -22 948 -7 908 l -30 970 m 127 670 l 294 670 l 294 0 l 127 0 l 127 670 z "},"Į":{"ha":551,"x_min":20,"x_max":398,"o":"m 20 -202 q 76 -53 20 -125 q 217 65 131 19 l 217 964 l 388 964 l 388 31 l 374 24 q 286 -31 323 -3 q 227 -80 248 -59 q 194 -121 206 -101 q 178 -154 181 -142 q 174 -178 174 -167 q 185 -210 174 -195 q 220 -224 195 -224 q 315 -187 253 -224 l 340 -172 l 398 -280 l 378 -294 q 186 -369 276 -369 q 67 -322 115 -369 q 20 -202 20 -276 z "},"į":{"ha":411,"x_min":-83,"x_max":299,"o":"m -83 -206 q -24 -46 -83 -125 q 122 81 35 33 l 122 670 l 289 670 l 289 23 l 271 16 q 127 -75 184 -15 q 70 -183 70 -134 q 82 -217 70 -204 q 115 -231 94 -231 q 212 -194 146 -231 l 236 -180 l 294 -286 l 274 -300 q 81 -376 172 -376 q -37 -329 9 -376 q -83 -206 -83 -281 m 112 964 l 299 964 l 299 780 l 112 780 l 112 964 z "},"İ":{"ha":551,"x_min":202,"x_max":400,"o":"m 202 1240 l 400 1240 l 400 1042 l 202 1042 l 202 1240 m 217 964 l 388 964 l 388 0 l 217 0 l 217 964 z "},"ı":{"ha":411,"x_min":122,"x_max":289,"o":"m 122 670 l 289 670 l 289 0 l 122 0 l 122 670 z "},"Ĳ":{"ha":1308,"x_min":217,"x_max":1171,"o":"m 217 964 l 388 964 l 388 0 l 217 0 l 217 964 m 1000 964 l 1171 964 l 1171 347 q 1167 279 1171 310 q 1155 210 1164 248 q 1128 142 1145 172 q 1083 82 1112 112 q 1015 33 1054 52 q 919 1 976 13 q 791 -12 861 -12 q 651 5 718 -12 l 625 12 l 654 163 l 682 156 q 772 146 725 146 q 853 154 817 146 q 912 175 889 163 q 953 207 936 188 q 979 243 970 226 q 992 282 987 260 q 999 317 998 304 q 1000 348 1000 331 l 1000 964 z "},"ĳ":{"ha":822,"x_min":112,"x_max":710,"o":"m 530 670 l 697 670 l 697 -65 q 696 -103 697 -88 q 692 -145 696 -117 q 681 -192 688 -172 q 658 -238 673 -212 q 622 -285 643 -265 q 568 -326 601 -305 q 492 -361 534 -346 l 463 -369 l 376 -237 l 410 -225 q 506 -163 481 -199 q 530 -79 530 -127 l 530 670 m 521 964 l 710 964 l 710 780 l 521 780 l 521 964 m 122 670 l 289 670 l 289 0 l 122 0 l 122 670 m 112 964 l 302 964 l 302 780 l 112 780 l 112 964 z "},"Ĵ":{"ha":758,"x_min":75,"x_max":749,"o":"m 449 964 l 620 964 l 620 347 q 617 279 620 310 q 604 210 614 248 q 578 142 594 172 q 532 82 562 112 q 464 33 503 52 q 368 1 425 13 q 240 -12 311 -12 q 100 5 168 -12 l 75 12 l 103 163 l 132 156 q 221 146 174 146 q 302 154 266 146 q 362 175 338 163 q 402 207 385 188 q 428 243 420 226 q 442 282 437 260 q 448 317 447 304 q 449 348 449 331 l 449 964 m 538 1323 l 749 1087 l 646 989 l 528 1120 l 408 991 l 306 1081 l 538 1323 z "},"ĵ":{"ha":411,"x_min":12,"x_max":412,"o":"m 221 1027 l 412 786 l 308 688 l 211 810 l 113 690 l 12 780 l 221 1027 m 133 670 l 300 670 l 300 -65 q 299 -105 300 -88 q 294 -149 298 -122 q 282 -196 290 -176 q 260 -242 275 -217 q 225 -287 245 -267 q 173 -327 205 -307 q 102 -361 142 -347 l 79 -369 l 14 -237 l 39 -225 q 133 -77 133 -181 l 133 670 z "},"Ķ":{"ha":1072,"x_min":197,"x_max":1050,"o":"m 197 0 l 197 964 l 368 964 l 368 522 l 807 964 l 1026 964 l 563 503 l 1050 0 l 829 0 l 368 467 l 368 0 l 197 0 m 319 -347 l 460 -27 l 667 -27 l 519 -347 l 319 -347 z "},"ķ":{"ha":839,"x_min":122,"x_max":822,"o":"m 210 -347 l 351 -27 l 558 -27 l 411 -347 l 210 -347 m 122 0 l 122 1025 l 289 1025 l 289 401 l 610 684 l 812 684 l 466 377 l 822 0 l 617 0 l 289 334 l 289 0 l 122 0 z "},"ĸ":{"ha":838,"x_min":122,"x_max":824,"o":"m 289 377 l 599 670 l 788 670 l 467 355 l 824 0 l 614 0 l 289 309 l 289 0 l 122 0 l 122 670 l 289 670 l 289 377 z "},"Ĺ":{"ha":880,"x_min":192,"x_max":865,"o":"m 206 964 l 377 964 l 381 157 l 865 157 l 865 0 l 206 0 l 206 964 m 624 1351 l 712 1219 l 261 991 l 192 1112 l 624 1351 z "},"ĺ":{"ha":494,"x_min":109,"x_max":629,"o":"m 145 1025 l 328 1025 l 312 0 l 145 0 l 145 1025 m 553 1402 l 629 1270 l 178 1042 l 109 1162 l 553 1402 z "},"Ļ":{"ha":880,"x_min":195,"x_max":869,"o":"m 210 964 l 381 964 l 385 157 l 869 157 l 869 0 l 210 0 l 210 964 m 325 -27 l 535 -27 l 380 -347 l 195 -347 l 325 -27 z "},"ļ":{"ha":438,"x_min":47,"x_max":359,"o":"m 149 1025 l 316 1025 l 316 0 l 149 0 l 149 1025 m 177 -27 l 359 -27 l 229 -347 l 47 -347 l 177 -27 z "},"Ľ":{"ha":880,"x_min":197,"x_max":856,"o":"m 630 964 l 812 964 l 682 644 l 500 644 l 630 964 m 197 964 l 368 964 l 368 157 l 856 157 l 856 0 l 197 0 l 197 964 z "},"ľ":{"ha":602,"x_min":136,"x_max":577,"o":"m 136 1025 l 302 1025 l 302 0 l 136 0 l 136 1025 m 408 1025 l 577 1025 l 480 705 l 311 705 l 408 1025 z "},"Ŀ":{"ha":880,"x_min":197,"x_max":856,"o":"m 197 964 l 368 964 l 368 157 l 856 157 l 856 0 l 197 0 l 197 964 m 480 586 l 714 586 l 714 388 l 480 388 l 480 586 z "},"ŀ":{"ha":614,"x_min":136,"x_max":560,"o":"m 136 1025 l 302 1025 l 302 0 l 136 0 l 136 1025 m 362 596 l 560 596 l 560 398 l 362 398 l 362 596 z "},"Ł":{"ha":880,"x_min":99,"x_max":856,"o":"m 197 964 l 368 964 l 368 608 l 581 710 l 581 529 l 383 435 l 383 157 l 856 157 l 856 0 l 197 0 l 197 336 l 99 283 l 99 454 l 197 507 l 197 964 z "},"ł":{"ha":522,"x_min":61,"x_max":467,"o":"m 156 1025 l 323 1025 l 323 595 l 467 679 l 467 513 l 323 437 l 323 0 l 156 0 l 156 361 l 61 307 l 61 472 l 156 524 l 156 1025 z "},"Ń":{"ha":1236,"x_min":197,"x_max":1094,"o":"m 197 964 l 385 964 l 923 223 l 923 964 l 1094 964 l 1094 0 l 903 0 l 368 742 l 368 0 l 197 0 l 197 964 m 823 1351 l 907 1219 l 467 991 l 389 1112 l 823 1351 z "},"ń":{"ha":909,"x_min":122,"x_max":787,"o":"m 122 670 l 246 670 l 266 624 q 528 684 404 684 q 642 666 594 684 q 718 622 690 648 q 762 555 745 595 q 783 478 778 515 q 787 395 787 441 l 787 0 l 620 0 l 620 393 q 619 416 620 406 q 615 440 618 426 q 606 466 612 455 q 590 490 601 477 q 563 510 578 502 q 524 523 547 517 q 471 528 500 528 q 289 490 389 528 l 289 0 l 122 0 l 122 670 m 672 1059 l 747 926 l 298 699 l 227 820 l 672 1059 z "},"Ņ":{"ha":1236,"x_min":197,"x_max":1094,"o":"m 541 -27 l 745 -27 l 600 -347 l 397 -347 l 541 -27 m 197 964 l 385 964 l 923 223 l 923 964 l 1094 964 l 1094 0 l 903 0 l 368 742 l 368 0 l 197 0 l 197 964 z "},"ņ":{"ha":909,"x_min":122,"x_max":787,"o":"m 122 670 l 246 670 l 266 624 q 528 684 404 684 q 642 666 594 684 q 718 622 690 648 q 762 555 745 595 q 783 478 778 515 q 787 395 787 441 l 787 0 l 620 0 l 620 393 q 619 416 620 406 q 615 440 618 426 q 606 466 612 455 q 590 490 601 477 q 563 510 578 502 q 524 523 547 517 q 471 528 500 528 q 289 490 389 528 l 289 0 l 122 0 l 122 670 m 360 -27 l 579 -27 l 423 -347 l 218 -347 l 360 -27 z "},"Ň":{"ha":1236,"x_min":197,"x_max":1094,"o":"m 197 964 l 385 964 l 923 223 l 923 964 l 1094 964 l 1094 0 l 903 0 l 368 742 l 368 0 l 197 0 l 197 964 m 671 988 l 435 1225 l 551 1322 l 682 1191 l 817 1320 l 929 1230 l 671 988 z "},"ň":{"ha":909,"x_min":122,"x_max":787,"o":"m 122 670 l 246 670 l 266 624 q 528 684 404 684 q 642 666 594 684 q 718 622 690 648 q 762 555 745 595 q 783 478 778 515 q 787 395 787 441 l 787 0 l 620 0 l 620 393 q 619 416 620 406 q 615 440 618 426 q 606 466 612 455 q 590 490 601 477 q 563 510 578 502 q 524 523 547 517 q 471 528 500 528 q 289 490 389 528 l 289 0 l 122 0 l 122 670 m 462 696 l 221 932 l 332 1031 l 473 900 l 618 1029 l 720 937 l 462 696 z "},"ŉ":{"ha":1024,"x_min":47,"x_max":902,"o":"m 237 670 l 361 670 l 380 624 q 643 684 519 684 q 757 666 709 684 q 832 622 805 648 q 876 555 860 595 q 897 478 892 515 q 902 395 902 441 l 902 0 l 734 0 l 734 393 q 734 416 734 406 q 730 440 733 426 q 721 466 726 455 q 704 490 715 477 q 677 510 693 502 q 638 523 662 517 q 585 528 615 528 q 404 490 504 528 l 404 0 l 237 0 l 237 670 m 47 964 l 204 964 l 204 614 l 47 614 l 47 964 z "},"Ŋ":{"ha":1229,"x_min":197,"x_max":1086,"o":"m 915 20 l 915 573 q 914 614 915 598 q 909 661 913 630 q 897 712 905 691 q 871 758 888 732 q 830 799 854 783 q 768 825 806 814 q 683 836 730 836 q 373 759 567 836 l 373 0 l 197 0 l 197 964 l 317 964 l 347 909 q 734 1006 587 1006 q 975 929 886 1006 q 1082 727 1065 852 q 1086 621 1086 691 l 1086 4 q 1065 -117 1086 -66 q 1007 -195 1044 -168 q 927 -235 970 -222 q 833 -248 884 -248 q 656 -223 758 -248 l 628 -216 l 659 -81 l 688 -86 q 799 -99 759 -99 q 855 -90 831 -99 q 889 -69 878 -81 q 907 -38 901 -58 q 914 -8 913 -19 q 915 20 915 3 z "},"ŋ":{"ha":909,"x_min":122,"x_max":787,"o":"m 474 528 q 296 490 395 528 l 296 0 l 122 0 l 122 670 l 246 670 l 269 625 q 527 683 406 683 q 787 405 787 683 l 787 17 q 781 -61 787 -26 q 760 -129 775 -96 q 720 -185 745 -162 q 656 -221 696 -208 q 564 -235 616 -235 q 376 -210 492 -235 l 346 -203 l 378 -68 l 410 -73 q 526 -86 505 -86 q 600 -60 581 -86 q 620 17 620 -33 l 620 394 q 618 427 620 413 q 608 461 616 441 q 586 495 600 481 q 543 518 572 508 q 474 528 514 528 z "},"Ō":{"ha":1255,"x_min":146,"x_max":1163,"o":"m 988 481 q 968 607 988 549 q 915 702 948 664 q 837 767 882 741 q 744 805 792 793 q 646 817 696 817 q 553 806 599 817 q 466 768 508 794 q 391 706 423 743 q 340 614 359 669 q 321 493 321 559 q 418 241 321 336 q 660 146 515 146 q 777 166 720 146 q 882 224 833 186 q 959 330 930 263 q 988 481 988 396 m 655 974 q 917 916 802 974 q 1097 748 1031 859 q 1163 492 1163 638 q 1099 230 1163 345 q 918 53 1034 116 q 650 -10 801 -10 q 460 21 550 -10 q 300 111 371 52 q 188 265 229 170 q 146 479 146 360 q 211 741 146 628 q 391 914 276 854 q 655 974 507 974 m 365 1151 l 972 1151 l 972 1008 l 365 1008 l 365 1151 z "},"ō":{"ha":932,"x_min":88,"x_max":844,"o":"m 471 683 q 742 594 639 683 q 844 347 844 506 q 740 83 844 180 q 458 -14 635 -14 q 189 78 290 -14 q 88 328 88 169 q 191 587 88 492 q 471 683 294 683 m 460 532 q 361 513 408 532 q 284 449 315 493 q 252 345 252 405 q 313 197 252 257 q 472 137 374 137 q 621 189 561 137 q 680 328 680 241 q 661 417 680 377 q 609 482 641 458 q 538 519 577 507 q 460 532 500 532 m 170 863 l 783 863 l 783 720 l 170 720 l 170 863 z "},"Ŏ":{"ha":1255,"x_min":146,"x_max":1163,"o":"m 351 1217 l 493 1286 l 507 1261 q 524 1232 514 1246 q 554 1197 534 1218 q 603 1163 574 1176 q 665 1149 632 1149 q 770 1184 718 1149 q 859 1265 821 1219 l 876 1286 l 1009 1203 l 991 1179 q 838 1051 927 1102 q 654 1000 749 1000 q 469 1058 546 1000 q 360 1194 391 1116 l 351 1217 m 988 481 q 968 607 988 549 q 915 702 948 664 q 837 767 882 741 q 744 805 792 793 q 646 817 696 817 q 553 806 599 817 q 466 768 508 794 q 391 706 423 743 q 340 614 359 669 q 321 493 321 559 q 418 241 321 336 q 660 146 515 146 q 777 166 720 146 q 882 224 833 186 q 959 330 930 263 q 988 481 988 396 m 655 974 q 917 916 802 974 q 1097 748 1031 859 q 1163 492 1163 638 q 1099 230 1163 345 q 918 53 1034 116 q 650 -10 801 -10 q 460 21 550 -10 q 300 111 371 52 q 188 265 229 170 q 146 479 146 360 q 211 741 146 628 q 391 914 276 854 q 655 974 507 974 z "},"ŏ":{"ha":932,"x_min":88,"x_max":844,"o":"m 174 922 l 313 992 l 327 966 q 340 945 333 956 q 363 917 347 935 q 396 887 378 900 q 440 865 414 874 q 495 855 467 855 q 606 890 551 855 q 697 971 661 925 l 713 992 l 836 909 l 818 885 q 671 757 759 808 q 482 706 583 706 q 372 723 423 706 q 283 768 320 740 q 221 830 247 796 q 182 900 196 863 l 174 922 m 460 532 q 361 513 408 532 q 284 449 315 493 q 252 345 252 405 q 313 197 252 257 q 472 137 374 137 q 621 189 561 137 q 680 328 680 241 q 661 417 680 377 q 609 482 641 458 q 538 519 577 507 q 460 532 500 532 m 471 683 q 742 594 639 683 q 844 347 844 506 q 740 83 844 180 q 458 -14 635 -14 q 189 78 290 -14 q 88 328 88 169 q 191 587 88 492 q 471 683 294 683 z "},"Ő":{"ha":1255,"x_min":146,"x_max":1163,"o":"m 1069 1364 l 1156 1239 l 764 977 l 676 1091 l 1069 1364 m 692 1364 l 787 1239 l 380 977 l 294 1091 l 692 1364 m 988 481 q 968 607 988 549 q 915 702 948 664 q 837 767 882 741 q 744 805 792 793 q 646 817 696 817 q 553 806 599 817 q 466 768 508 794 q 391 706 423 743 q 340 614 359 669 q 321 493 321 559 q 418 241 321 336 q 660 146 515 146 q 777 166 720 146 q 882 224 833 186 q 959 330 930 263 q 988 481 988 396 m 655 974 q 917 916 802 974 q 1097 748 1031 859 q 1163 492 1163 638 q 1099 230 1163 345 q 918 53 1034 116 q 650 -10 801 -10 q 460 21 550 -10 q 300 111 371 52 q 188 265 229 170 q 146 479 146 360 q 211 741 146 628 q 391 914 276 854 q 655 974 507 974 z "},"ő":{"ha":932,"x_min":88,"x_max":910,"o":"m 466 683 q 660 645 575 683 q 794 529 745 606 q 844 347 844 452 q 737 84 844 182 q 454 -14 629 -14 q 188 78 288 -14 q 88 328 88 170 q 190 587 88 492 q 466 683 292 683 m 456 532 q 382 520 418 532 q 317 486 347 509 q 270 427 288 464 q 252 345 252 391 q 312 197 252 257 q 468 137 372 137 q 613 189 555 137 q 672 328 672 241 q 639 441 672 393 q 557 511 606 489 q 456 532 509 532 m 811 1063 l 910 945 l 595 696 l 495 806 l 811 1063 m 484 1063 l 595 945 l 259 696 l 170 806 l 484 1063 z "},"Œ":{"ha":1466,"x_min":146,"x_max":1358,"o":"m 739 157 l 739 806 l 728 806 q 596 800 644 806 q 390 697 463 782 q 317 476 317 612 q 329 380 317 425 q 360 306 341 336 q 404 250 378 275 q 454 211 430 225 q 503 185 477 196 q 584 162 545 168 q 677 157 623 157 l 739 157 m 273 829 q 364 893 313 867 q 461 933 415 920 q 570 954 507 947 q 673 962 633 961 q 777 964 714 964 l 1358 964 l 1358 806 l 922 806 l 922 575 l 1320 575 l 1320 418 l 922 418 l 922 157 l 1358 157 l 1358 0 l 713 0 q 551 7 622 0 q 416 39 481 15 q 218 198 290 88 q 146 477 146 309 q 273 829 146 705 z "},"œ":{"ha":1334,"x_min":88,"x_max":1246,"o":"m 615 323 q 598 418 615 376 q 555 483 582 459 q 496 517 528 506 q 431 529 465 529 q 302 476 351 529 q 252 340 252 422 q 306 195 252 254 q 444 136 359 136 q 566 184 516 136 q 615 323 615 233 m 947 552 q 838 505 879 552 q 789 388 796 457 l 1083 388 q 1044 514 1079 477 q 947 552 1009 552 m 972 676 q 1068 664 1025 676 q 1139 632 1111 652 q 1188 583 1167 613 q 1219 524 1208 553 q 1236 456 1230 495 q 1244 389 1242 418 q 1246 323 1246 360 l 1246 248 l 787 248 q 859 156 800 195 q 1015 117 917 117 q 1153 138 1076 117 l 1181 145 l 1212 31 l 1189 24 q 968 -16 1082 -16 q 692 90 786 -16 q 430 -14 593 -14 q 181 79 274 -14 q 88 330 88 172 q 184 585 88 490 q 444 680 281 680 q 711 566 617 680 q 780 624 742 601 q 855 658 818 648 q 919 672 892 669 q 972 676 946 676 z "},"Ŕ":{"ha":1086,"x_min":197,"x_max":1024,"o":"m 944 688 q 933 600 944 642 q 898 519 922 558 q 832 450 873 481 q 733 403 790 420 l 1024 0 l 802 0 l 532 374 q 515 374 526 374 q 498 374 505 374 l 368 374 l 368 0 l 197 0 l 197 964 l 608 964 q 675 962 647 964 q 740 953 703 960 q 810 930 778 946 q 869 888 843 913 q 944 688 944 814 m 368 807 l 368 531 l 526 531 q 670 546 616 531 q 750 608 724 561 q 766 672 766 636 q 735 754 766 718 q 637 802 704 790 q 536 807 606 807 l 368 807 m 713 1351 l 798 1219 l 351 991 l 282 1112 l 713 1351 z "},"ŕ":{"ha":654,"x_min":122,"x_max":655,"o":"m 266 634 q 492 683 372 683 q 631 653 567 683 l 655 642 l 602 504 l 576 514 q 474 532 529 532 l 473 532 q 302 500 384 532 l 302 0 l 122 0 l 122 670 l 246 670 l 266 634 m 497 1063 l 596 945 l 242 696 l 154 806 l 497 1063 z "},"Ŗ":{"ha":1086,"x_min":197,"x_max":1027,"o":"m 326 -27 l 528 -27 l 380 -347 l 197 -347 l 326 -27 m 371 807 l 371 531 l 528 531 q 672 546 618 531 q 752 608 726 561 q 768 672 768 637 q 738 754 768 718 q 640 802 707 790 q 539 807 609 807 l 371 807 m 947 688 q 936 600 947 642 q 900 519 924 558 q 834 450 876 481 q 736 403 793 420 l 1027 0 l 804 0 l 534 374 q 518 374 529 374 q 501 374 507 374 l 371 374 l 371 0 l 199 0 l 199 964 l 610 964 q 677 962 649 964 q 743 953 705 960 q 813 930 781 946 q 872 888 846 913 q 947 688 947 814 z "},"ŗ":{"ha":654,"x_min":18,"x_max":669,"o":"m 279 634 q 505 683 385 683 q 645 653 581 683 l 669 642 l 615 504 l 589 514 q 488 532 543 532 l 486 532 q 315 500 397 532 l 315 0 l 136 0 l 136 670 l 260 670 l 279 634 m 147 -27 l 350 -27 l 199 -347 l 18 -347 l 147 -27 z "},"Ř":{"ha":1086,"x_min":197,"x_max":1024,"o":"m 944 688 q 933 600 944 642 q 898 519 922 558 q 832 450 873 481 q 733 403 790 420 l 1024 0 l 802 0 l 532 374 q 515 374 526 374 q 498 374 505 374 l 368 374 l 368 0 l 197 0 l 197 964 l 608 964 q 675 962 647 964 q 740 953 703 960 q 810 930 778 946 q 869 888 843 913 q 944 688 944 814 m 368 807 l 368 531 l 526 531 q 670 546 616 531 q 750 608 724 561 q 766 672 766 636 q 735 754 766 718 q 637 802 704 790 q 536 807 606 807 l 368 807 m 519 988 l 290 1224 l 396 1322 l 530 1191 l 668 1320 l 783 1230 l 519 988 z "},"ř":{"ha":654,"x_min":122,"x_max":655,"o":"m 266 634 q 492 683 372 683 q 631 653 567 683 l 655 642 l 602 504 l 576 514 q 474 532 529 532 l 473 532 q 302 500 384 532 l 302 0 l 122 0 l 122 670 l 246 670 l 266 634 m 395 694 l 149 930 l 256 1028 l 408 897 l 547 1026 l 648 938 l 395 694 z "},"Ś":{"ha":1034,"x_min":163,"x_max":947,"o":"m 728 1351 l 810 1219 l 363 991 l 289 1112 l 728 1351 m 629 972 q 895 932 764 972 l 923 924 l 867 767 l 842 774 q 618 808 719 808 q 447 776 518 808 q 376 692 376 743 q 408 634 376 659 q 490 592 439 609 q 601 557 540 574 q 722 518 661 541 q 833 467 783 496 q 915 389 884 437 q 947 277 947 340 q 933 197 947 237 q 886 119 919 157 q 805 51 853 80 q 681 4 756 22 q 513 -14 606 -14 q 346 4 420 -14 q 188 54 271 21 l 163 63 l 220 227 l 247 217 q 530 156 418 156 q 699 188 634 156 q 764 272 764 220 q 744 324 764 301 q 691 363 724 347 q 615 393 658 379 q 524 419 572 406 q 429 447 477 432 q 339 483 382 462 q 262 530 296 504 q 210 596 229 557 q 190 685 190 636 q 310 890 190 807 q 629 972 429 972 z "},"ś":{"ha":800,"x_min":88,"x_max":726,"o":"m 209 806 l 551 1063 l 651 945 l 307 696 l 209 806 m 547 200 q 521 230 546 217 q 458 253 496 243 q 373 274 419 263 q 281 301 327 285 q 197 338 235 317 q 136 394 159 359 q 112 474 112 429 q 122 527 112 500 q 157 583 132 554 q 222 633 183 612 q 328 669 262 655 q 476 683 393 683 q 564 678 525 683 q 620 669 604 673 q 669 654 636 665 l 697 646 l 651 509 l 625 516 q 454 541 537 541 q 380 535 412 541 q 331 521 348 529 q 304 503 315 513 q 292 485 294 492 q 289 472 289 478 q 313 444 289 456 q 376 420 337 431 q 461 398 414 410 q 554 369 507 386 q 640 330 601 352 q 702 275 678 309 q 726 199 726 241 q 718 142 726 170 q 685 86 709 115 q 623 36 661 57 q 521 0 585 14 q 373 -14 456 -14 q 113 39 243 -14 l 88 50 l 138 185 l 164 175 q 379 130 286 130 q 507 147 466 130 q 547 200 547 164 z "},"Ŝ":{"ha":1034,"x_min":163,"x_max":947,"o":"m 629 972 q 895 932 764 972 l 923 924 l 867 767 l 842 774 q 618 808 719 808 q 447 776 518 808 q 376 692 376 743 q 408 634 376 659 q 490 592 439 609 q 601 557 540 574 q 722 518 661 541 q 833 467 783 496 q 915 389 884 437 q 947 277 947 340 q 933 197 947 237 q 886 119 919 157 q 805 51 853 80 q 681 4 756 22 q 513 -14 606 -14 q 346 4 420 -14 q 188 54 271 21 l 163 63 l 220 227 l 247 217 q 530 156 418 156 q 699 188 634 156 q 764 272 764 220 q 744 324 764 301 q 691 363 724 347 q 615 393 658 379 q 524 419 572 406 q 429 447 477 432 q 339 483 382 462 q 262 530 296 504 q 210 596 229 557 q 190 685 190 636 q 310 890 190 807 q 629 972 429 972 m 547 1323 l 788 1087 l 671 989 l 536 1120 l 399 991 l 289 1081 l 547 1323 z "},"ŝ":{"ha":800,"x_min":88,"x_max":726,"o":"m 181 787 l 448 1029 l 680 793 l 577 694 l 437 826 l 289 696 l 181 787 m 547 200 q 521 230 546 217 q 458 253 496 243 q 373 274 419 263 q 281 301 327 285 q 197 338 235 317 q 136 394 159 359 q 112 474 112 429 q 122 527 112 500 q 157 583 132 554 q 222 633 183 612 q 328 669 262 655 q 476 683 393 683 q 564 678 525 683 q 620 669 604 673 q 669 654 636 665 l 697 646 l 651 509 l 625 516 q 454 541 537 541 q 380 535 412 541 q 331 521 348 529 q 304 503 315 513 q 292 485 294 492 q 289 472 289 478 q 313 444 289 456 q 376 420 337 431 q 461 398 414 410 q 554 369 507 386 q 640 330 601 352 q 702 275 678 309 q 726 199 726 241 q 718 142 726 170 q 685 86 709 115 q 623 36 661 57 q 521 0 585 14 q 373 -14 456 -14 q 113 39 243 -14 l 88 50 l 138 185 l 164 175 q 379 130 286 130 q 507 147 466 130 q 547 200 547 164 z "},"Ş":{"ha":1034,"x_min":163,"x_max":947,"o":"m 568 -215 q 594 -211 584 -215 q 607 -203 604 -207 q 610 -194 610 -199 q 581 -171 610 -181 q 480 -142 553 -161 q 450 -135 460 -138 l 420 -127 l 456 -12 q 322 8 382 -8 q 188 54 262 24 l 163 63 l 220 227 l 247 217 q 531 156 419 156 q 701 188 636 156 q 766 272 766 220 q 746 324 766 301 q 693 363 726 347 q 616 393 660 379 q 525 419 573 406 q 430 447 477 432 q 339 483 382 462 q 262 530 296 504 q 210 596 229 557 q 190 685 190 636 q 311 890 190 807 q 630 972 431 972 q 895 932 764 972 l 923 924 l 867 767 l 842 774 q 619 808 720 808 q 450 776 520 808 q 379 692 379 743 q 410 634 379 659 q 492 592 441 609 q 603 558 542 574 q 724 518 663 541 q 834 467 784 496 q 916 389 884 437 q 947 278 947 341 q 937 209 947 243 q 903 140 926 175 q 844 78 879 106 q 757 27 810 50 q 639 -5 704 5 l 627 -45 q 761 -186 761 -85 q 706 -296 761 -250 q 564 -343 650 -343 q 503 -337 534 -343 q 370 -306 472 -332 l 340 -298 l 381 -174 l 412 -182 q 568 -215 534 -215 z "},"ş":{"ha":800,"x_min":88,"x_max":726,"o":"m 425 -218 q 463 -210 450 -218 q 475 -193 475 -202 q 451 -169 475 -178 q 358 -144 426 -160 q 307 -132 326 -136 l 275 -124 l 313 -11 q 113 39 214 -2 l 88 50 l 138 185 l 164 175 q 380 130 286 130 q 509 147 468 130 q 549 200 549 164 q 523 230 548 217 q 460 253 498 243 q 375 274 422 263 q 282 301 328 285 q 198 338 236 317 q 136 394 159 359 q 112 474 112 429 q 121 528 112 501 q 157 583 131 554 q 222 633 183 612 q 328 669 262 655 q 477 683 394 683 q 565 678 526 683 q 620 669 604 673 q 669 654 636 665 l 697 646 l 651 509 l 625 516 q 456 541 537 541 q 336 519 378 541 q 294 474 294 498 q 318 445 294 458 q 380 420 342 431 q 464 398 418 410 q 556 369 510 386 q 641 330 602 352 q 703 275 679 309 q 726 199 726 241 q 716 138 726 168 q 681 79 705 109 q 608 26 656 49 q 493 -7 560 3 l 480 -45 q 611 -186 611 -80 q 562 -292 611 -246 q 422 -338 512 -338 q 240 -305 362 -338 q 227 -302 231 -303 l 201 -294 l 233 -179 l 262 -187 q 425 -218 389 -218 z "},"Š":{"ha":1034,"x_min":163,"x_max":947,"o":"m 565 988 l 324 1224 l 441 1322 l 576 1191 l 713 1320 l 823 1230 l 565 988 m 629 972 q 895 932 764 972 l 923 924 l 867 767 l 842 774 q 618 808 719 808 q 447 776 518 808 q 376 692 376 743 q 408 634 376 659 q 490 592 439 609 q 601 557 540 574 q 722 518 661 541 q 833 467 783 496 q 915 389 884 437 q 947 277 947 340 q 933 197 947 237 q 886 119 919 157 q 805 51 853 80 q 681 4 756 22 q 513 -14 606 -14 q 346 4 420 -14 q 188 54 271 21 l 163 63 l 220 227 l 247 217 q 530 156 418 156 q 699 188 634 156 q 764 272 764 220 q 744 324 764 301 q 691 363 724 347 q 615 393 658 379 q 524 419 572 406 q 429 447 477 432 q 339 483 382 462 q 262 530 296 504 q 210 596 229 557 q 190 685 190 636 q 310 890 190 807 q 629 972 429 972 z "},"š":{"ha":800,"x_min":88,"x_max":726,"o":"m 547 200 q 521 230 546 217 q 458 253 496 243 q 373 274 419 263 q 281 301 327 285 q 197 338 235 317 q 136 394 159 359 q 112 474 112 429 q 122 527 112 500 q 157 583 132 554 q 222 633 183 612 q 328 669 262 655 q 476 683 393 683 q 564 678 525 683 q 620 669 604 673 q 669 654 636 665 l 697 646 l 651 509 l 625 516 q 454 541 537 541 q 380 535 412 541 q 331 521 348 529 q 304 503 315 513 q 292 485 294 492 q 289 472 289 478 q 313 444 289 456 q 376 420 337 431 q 461 398 414 410 q 554 369 507 386 q 640 330 601 352 q 702 275 678 309 q 726 199 726 241 q 718 142 726 170 q 685 86 709 115 q 623 36 661 57 q 521 0 585 14 q 373 -14 456 -14 q 113 39 243 -14 l 88 50 l 138 185 l 164 175 q 379 130 286 130 q 507 147 466 130 q 547 200 547 164 m 682 938 l 425 694 l 182 930 l 293 1028 l 437 897 l 580 1026 l 682 938 z "},"Ţ":{"ha":987,"x_min":58,"x_max":928,"o":"m 495 -214 q 530 -196 530 -214 q 528 -188 530 -192 q 520 -181 526 -184 q 509 -174 515 -177 q 493 -167 503 -171 q 475 -161 483 -163 q 453 -154 467 -158 q 431 -148 440 -151 q 407 -142 422 -146 q 382 -135 391 -138 l 347 -127 l 357 -101 q 374 -59 363 -85 q 388 -26 385 -33 q 396 -2 391 -19 q 403 22 402 16 q 406 45 404 28 q 408 76 408 62 q 408 116 408 91 l 408 806 l 58 806 l 58 964 l 928 964 l 928 806 l 578 806 l 578 125 q 574 31 578 67 q 553 -48 569 -5 q 696 -186 696 -95 q 638 -295 696 -247 q 488 -343 579 -343 q 449 -340 469 -343 q 413 -334 429 -338 q 357 -322 397 -331 q 288 -306 318 -313 l 252 -298 l 302 -174 l 338 -182 q 378 -192 354 -186 q 412 -200 401 -198 q 438 -206 422 -203 q 461 -211 453 -210 q 478 -213 469 -212 q 495 -214 488 -214 z "},"ţ":{"ha":623,"x_min":47,"x_max":594,"o":"m 138 862 l 326 862 l 326 670 l 564 670 l 564 527 l 326 527 l 326 218 q 330 185 326 201 q 346 153 334 170 q 382 127 357 137 q 442 118 407 118 q 541 130 460 118 l 568 134 l 594 19 l 568 12 q 461 -11 508 -4 l 452 -46 q 570 -186 570 -85 q 524 -292 570 -245 q 396 -338 477 -338 q 282 -325 346 -338 q 186 -302 219 -312 l 160 -295 l 193 -180 l 222 -188 q 257 -195 224 -188 q 307 -206 290 -203 q 352 -214 324 -210 q 399 -218 380 -218 q 448 -195 448 -218 q 427 -170 448 -178 q 323 -144 406 -162 q 271 -132 290 -137 l 235 -125 l 281 1 q 138 206 138 43 l 138 527 l 47 527 l 47 670 l 138 670 l 138 862 z "},"Ť":{"ha":932,"x_min":58,"x_max":928,"o":"m 58 964 l 928 964 l 928 806 l 578 806 l 578 0 l 408 0 l 408 806 l 58 806 l 58 964 m 502 988 l 266 1224 l 381 1322 l 513 1191 l 648 1320 l 761 1230 l 502 988 z "},"ť":{"ha":623,"x_min":47,"x_max":706,"o":"m 358 715 l 499 1036 l 706 1036 l 559 715 l 358 715 m 138 862 l 326 862 l 326 670 l 564 670 l 564 527 l 326 527 l 326 227 q 328 193 326 207 q 340 163 331 180 q 370 138 349 146 q 426 129 392 129 q 541 142 449 129 l 568 147 l 594 19 l 568 12 q 385 -14 463 -14 q 281 -1 326 -14 q 210 32 237 12 q 166 83 182 53 q 144 145 150 114 q 138 215 138 176 l 138 527 l 47 527 l 47 670 l 138 670 l 138 862 z "},"Ŧ":{"ha":932,"x_min":58,"x_max":928,"o":"m 58 964 l 928 964 l 928 806 l 578 806 l 578 538 l 831 538 l 831 381 l 578 381 l 578 0 l 408 0 l 408 381 l 155 381 l 155 538 l 408 538 l 408 806 l 58 806 l 58 964 z "},"ŧ":{"ha":623,"x_min":47,"x_max":594,"o":"m 568 12 q 401 -14 469 -14 q 202 40 267 -14 q 138 218 138 94 l 138 297 l 47 297 l 47 427 l 138 427 l 138 527 l 47 527 l 47 670 l 138 670 l 138 862 l 326 862 l 326 670 l 564 670 l 564 527 l 326 527 l 326 427 l 564 427 l 564 297 l 326 297 l 326 224 q 330 193 326 208 q 346 162 334 178 q 382 138 357 147 q 442 129 407 129 q 541 142 460 129 l 568 147 l 594 19 l 568 12 z "},"Ũ":{"ha":1183,"x_min":195,"x_max":1042,"o":"m 618 -14 q 197 283 219 -14 q 195 338 195 304 q 196 384 195 355 q 197 423 197 413 l 197 964 l 368 964 l 368 353 q 377 267 368 301 q 417 205 387 233 q 618 142 485 142 q 780 176 716 142 q 861 271 843 210 q 869 353 869 298 l 869 964 l 1040 964 l 1040 423 q 1041 381 1040 410 q 1042 337 1042 352 q 1040 284 1042 307 q 1029 222 1038 261 q 1005 155 1021 184 q 958 92 990 125 q 883 37 926 58 q 772 1 840 16 q 618 -14 704 -14 m 481 1263 q 557 1247 522 1261 q 616 1217 592 1234 q 659 1182 640 1199 q 695 1152 678 1164 q 725 1140 712 1140 q 740 1145 732 1140 q 754 1156 748 1149 q 769 1175 761 1162 q 782 1197 777 1187 q 797 1223 787 1206 q 811 1249 806 1240 l 825 1272 l 951 1218 l 939 1192 q 890 1101 905 1122 q 725 1002 826 1002 q 650 1018 685 1004 q 591 1048 614 1031 q 548 1083 567 1066 q 511 1113 528 1101 q 481 1125 494 1125 q 468 1122 475 1125 q 455 1113 462 1119 q 444 1099 449 1106 q 432 1081 439 1093 q 420 1061 425 1069 q 408 1039 416 1053 q 395 1017 400 1025 l 382 993 l 259 1047 l 271 1073 q 281 1094 273 1077 q 293 1119 290 1112 q 306 1143 297 1126 q 322 1169 315 1160 q 339 1193 328 1178 q 360 1215 351 1207 q 385 1234 370 1223 q 413 1250 399 1244 q 445 1259 427 1255 q 481 1263 463 1263 z "},"ũ":{"ha":912,"x_min":121,"x_max":813,"o":"m 338 968 q 418 953 380 966 q 481 922 456 940 q 527 887 506 905 q 566 858 548 870 q 597 846 583 846 q 611 848 605 846 q 623 857 617 850 q 634 868 629 863 q 645 885 638 873 q 655 905 652 897 q 668 929 659 912 q 680 954 676 945 l 692 979 l 813 924 l 800 898 q 789 874 798 894 q 775 846 780 854 q 761 819 771 838 q 743 791 751 800 q 723 766 735 781 q 697 742 710 750 q 669 725 685 734 q 636 712 654 715 q 597 708 618 708 q 517 723 555 710 q 455 754 480 736 q 409 789 430 772 q 371 819 389 806 q 338 831 353 831 q 328 829 333 831 q 318 824 323 828 q 309 817 313 821 q 300 807 304 814 q 292 794 295 800 q 283 779 288 789 q 274 762 277 768 q 265 743 271 756 q 255 722 258 730 l 243 699 l 121 753 l 134 779 q 144 802 135 781 q 158 830 154 823 q 173 857 162 837 q 191 885 183 876 q 212 910 199 895 q 237 934 224 926 q 265 951 249 942 q 299 965 281 961 q 338 968 317 968 m 630 670 l 797 670 l 797 0 l 673 0 l 654 45 q 391 -14 517 -14 q 277 4 325 -14 q 201 48 229 21 q 157 115 174 75 q 136 191 141 155 q 132 274 132 228 l 132 670 l 298 670 l 298 275 q 300 244 298 258 q 310 210 302 231 q 334 176 319 189 q 378 152 349 162 q 449 142 408 142 q 630 179 530 142 l 630 670 z "},"Ū":{"ha":1183,"x_min":195,"x_max":1042,"o":"m 618 -14 q 197 283 219 -14 q 195 338 195 304 q 196 384 195 355 q 197 423 197 413 l 197 964 l 368 964 l 368 353 q 377 267 368 301 q 417 205 387 233 q 618 142 485 142 q 780 176 716 142 q 861 271 843 210 q 869 353 869 298 l 869 964 l 1040 964 l 1040 423 q 1041 381 1040 410 q 1042 337 1042 352 q 1040 284 1042 307 q 1029 222 1038 261 q 1005 155 1021 184 q 958 92 990 125 q 883 37 926 58 q 772 1 840 16 q 618 -14 704 -14 m 268 1151 l 942 1151 l 942 1008 l 268 1008 l 268 1151 z "},"ū":{"ha":909,"x_min":122,"x_max":787,"o":"m 621 670 l 787 670 l 787 0 l 663 0 l 644 45 q 381 -14 507 -14 q 267 4 315 -14 q 192 48 219 21 q 148 115 164 75 q 127 191 132 155 q 122 274 122 228 l 122 670 l 289 670 l 289 275 q 291 244 289 258 q 300 210 292 231 q 323 176 309 189 q 368 152 338 162 q 439 142 398 142 q 621 179 520 142 l 621 670 m 199 904 l 715 904 l 715 761 l 199 761 l 199 904 z "},"Ŭ":{"ha":1183,"x_min":195,"x_max":1042,"o":"m 248 1217 l 380 1286 l 394 1261 q 407 1239 400 1250 q 429 1211 414 1229 q 462 1181 445 1194 q 505 1159 479 1168 q 558 1149 530 1149 q 666 1184 612 1149 q 758 1265 719 1219 l 777 1286 l 909 1203 l 892 1179 q 736 1051 829 1102 q 546 1000 644 1000 q 439 1017 489 1000 q 354 1063 389 1034 q 294 1124 319 1091 q 256 1194 270 1158 l 248 1217 m 618 -14 q 493 -4 551 -14 q 395 19 436 5 q 321 56 354 33 q 269 100 289 79 q 233 151 248 121 q 211 202 218 180 q 200 254 204 224 q 196 299 197 283 q 195 337 195 314 q 196 381 195 352 q 197 423 197 410 l 197 964 l 368 964 l 368 353 q 377 267 368 301 q 417 205 387 233 q 618 142 485 142 q 780 176 716 142 q 861 271 843 210 q 869 353 869 298 l 869 964 l 1040 964 l 1040 423 q 1041 381 1040 410 q 1042 337 1042 352 q 1040 284 1042 307 q 1029 222 1038 261 q 1005 155 1021 184 q 958 92 990 125 q 883 37 926 58 q 772 1 840 16 q 618 -14 704 -14 z "},"ŭ":{"ha":909,"x_min":122,"x_max":796,"o":"m 621 670 l 787 670 l 787 0 l 663 0 l 644 45 q 381 -14 507 -14 q 267 4 315 -14 q 192 48 219 21 q 148 115 164 75 q 127 191 132 155 q 122 274 122 228 l 122 670 l 289 670 l 289 275 q 291 244 289 258 q 300 210 292 231 q 323 176 309 189 q 368 152 338 162 q 439 142 398 142 q 621 179 520 142 l 621 670 m 134 922 l 265 992 l 278 966 q 296 938 285 954 q 329 902 308 923 q 382 868 350 882 q 451 855 414 855 q 566 891 510 855 q 657 971 623 926 l 673 992 l 796 909 l 779 885 q 631 756 720 807 q 438 706 543 706 q 248 763 323 706 q 142 900 172 819 l 134 922 z "},"Ů":{"ha":1183,"x_min":195,"x_max":1042,"o":"m 463 1308 q 492 1335 463 1308 q 604 1361 522 1361 q 744 1309 686 1361 q 802 1181 802 1256 q 744 1054 802 1107 q 604 1001 686 1001 q 463 1054 522 1001 q 404 1181 404 1107 q 463 1308 404 1255 m 604 1244 q 555 1225 574 1244 q 535 1181 535 1207 q 554 1137 535 1156 q 604 1118 574 1118 q 651 1138 633 1118 q 669 1181 669 1158 q 650 1225 669 1206 q 604 1244 631 1244 m 618 -14 q 493 -4 551 -14 q 395 19 436 5 q 321 56 354 33 q 269 100 289 79 q 233 151 248 121 q 211 202 218 180 q 200 254 204 224 q 196 299 197 283 q 195 337 195 314 q 196 381 195 352 q 197 423 197 410 l 197 964 l 368 964 l 368 353 q 377 267 368 301 q 417 205 387 233 q 618 142 485 142 q 780 176 716 142 q 861 271 843 210 q 869 353 869 298 l 869 964 l 1040 964 l 1040 423 q 1041 381 1040 410 q 1042 337 1042 352 q 1040 284 1042 307 q 1029 222 1038 261 q 1005 155 1021 184 q 958 92 990 125 q 883 37 926 58 q 772 1 840 16 q 618 -14 704 -14 z "},"ů":{"ha":909,"x_min":122,"x_max":787,"o":"m 621 670 l 787 670 l 787 0 l 663 0 l 644 45 q 381 -14 507 -14 q 267 4 315 -14 q 192 48 219 21 q 148 115 164 75 q 127 191 132 155 q 122 274 122 228 l 122 670 l 289 670 l 289 275 q 291 244 289 258 q 300 210 292 231 q 323 176 309 189 q 368 152 338 162 q 439 142 398 142 q 621 179 520 142 l 621 670 m 312 1014 q 341 1040 312 1014 q 458 1067 371 1067 q 603 1015 545 1067 q 662 887 662 962 q 604 759 662 812 q 458 707 545 707 q 312 759 372 707 q 253 887 253 812 q 312 1014 253 962 m 458 949 q 407 931 428 949 q 386 887 386 913 q 406 843 386 861 q 458 824 427 824 q 508 843 488 824 q 528 887 528 862 q 508 931 528 912 q 458 949 488 949 z "},"Ű":{"ha":1183,"x_min":195,"x_max":1102,"o":"m 376 984 l 290 1109 l 663 1371 l 743 1257 l 376 984 m 1016 1371 l 1102 1246 l 728 984 l 649 1098 l 1016 1371 m 618 -14 q 493 -4 551 -14 q 395 19 436 5 q 321 56 354 33 q 269 100 289 79 q 233 151 248 121 q 211 202 218 180 q 200 254 204 224 q 196 299 197 283 q 195 337 195 314 q 196 381 195 352 q 197 423 197 410 l 197 964 l 368 964 l 368 353 q 377 267 368 301 q 417 205 387 233 q 618 142 485 142 q 780 176 716 142 q 861 271 843 210 q 869 353 869 298 l 869 964 l 1040 964 l 1040 423 q 1041 381 1040 410 q 1042 337 1042 352 q 1040 284 1042 307 q 1029 222 1038 261 q 1005 155 1021 184 q 958 92 990 125 q 883 37 926 58 q 772 1 840 16 q 618 -14 704 -14 z "},"ű":{"ha":912,"x_min":122,"x_max":917,"o":"m 451 1063 l 550 945 l 252 696 l 145 806 l 451 1063 m 621 670 l 787 670 l 787 0 l 663 0 l 644 45 q 381 -14 507 -14 q 267 4 315 -14 q 192 48 219 21 q 148 115 164 75 q 127 191 132 155 q 122 274 122 228 l 122 670 l 289 670 l 289 275 q 291 244 289 258 q 300 210 292 231 q 323 176 309 189 q 368 152 338 162 q 439 142 398 142 q 621 179 520 142 l 621 670 m 818 1063 l 917 945 l 618 696 l 512 806 l 818 1063 z "},"Ų":{"ha":1183,"x_min":195,"x_max":1041,"o":"m 195 337 q 196 381 195 352 q 197 423 197 410 l 197 964 l 368 964 l 368 353 q 377 267 368 301 q 417 205 387 233 q 618 142 485 142 q 780 176 716 142 q 861 271 843 210 q 869 353 869 298 l 869 964 l 1040 964 l 1040 424 q 1041 384 1040 411 q 1041 343 1041 357 q 1032 232 1041 279 q 1007 152 1023 185 q 963 93 992 119 q 904 50 935 67 q 824 11 873 32 q 724 -43 766 -14 q 663 -99 682 -73 q 636 -144 644 -125 q 629 -177 629 -163 q 642 -211 629 -198 q 680 -224 655 -224 q 785 -187 724 -224 l 814 -170 l 879 -280 l 859 -295 q 758 -347 816 -323 q 640 -370 701 -370 q 506 -323 557 -370 q 456 -202 456 -276 q 539 -11 456 -100 q 418 11 472 -5 q 328 50 363 28 q 267 103 293 72 q 228 162 241 134 q 207 226 214 191 q 197 285 199 261 q 195 337 195 309 z "},"ų":{"ha":912,"x_min":122,"x_max":796,"o":"m 292 670 q 292 275 292 670 q 293 247 292 259 q 302 213 294 234 q 325 177 311 191 q 370 153 340 163 q 441 142 399 142 q 623 179 524 142 l 623 670 l 790 670 l 790 -20 l 775 -27 q 727 -52 760 -35 q 676 -77 694 -68 q 633 -102 658 -87 q 594 -129 608 -117 q 570 -157 581 -141 q 560 -188 560 -172 q 611 -229 560 -229 q 713 -197 655 -229 l 736 -184 l 796 -286 l 774 -300 q 574 -368 670 -368 q 431 -323 484 -368 q 377 -212 377 -278 q 607 27 377 -77 q 389 -14 492 -14 q 275 4 325 -14 q 204 43 233 19 q 159 93 175 67 q 135 155 144 119 q 124 218 126 191 q 122 286 122 246 q 123 302 122 292 q 125 314 125 312 l 125 670 l 292 670 z "},"Ŵ":{"ha":1628,"x_min":95,"x_max":1607,"o":"m 95 964 l 277 964 l 498 223 l 777 964 l 935 964 l 1164 223 l 1435 964 l 1607 964 l 1246 0 l 1082 0 l 850 737 l 578 0 l 414 0 l 95 964 m 861 1326 l 1089 1090 l 974 991 l 851 1123 l 724 994 l 610 1084 l 861 1326 z "},"ŵ":{"ha":1310,"x_min":41,"x_max":1293,"o":"m 41 670 l 219 670 l 380 173 l 588 670 l 738 670 l 897 172 l 1114 670 l 1293 670 l 972 0 l 820 0 l 662 481 l 450 0 l 298 0 l 41 670 m 667 1032 l 903 796 l 783 698 l 658 829 l 528 700 l 408 790 l 667 1032 z "},"Ŷ":{"ha":968,"x_min":68,"x_max":986,"o":"m 68 964 l 270 964 l 528 590 l 791 964 l 986 964 l 616 450 l 616 0 l 425 0 l 425 450 l 68 964 m 540 1323 l 777 1087 l 661 989 l 529 1120 l 393 991 l 280 1081 l 540 1323 z "},"ŷ":{"ha":823,"x_min":34,"x_max":815,"o":"m 34 670 l 210 670 l 433 155 l 640 670 l 815 670 l 373 -360 l 172 -360 l 338 2 l 34 670 m 439 1029 l 677 793 l 563 694 l 427 826 l 289 696 l 177 787 l 439 1029 z "},"Ÿ":{"ha":968,"x_min":68,"x_max":986,"o":"m 68 964 l 270 964 l 528 590 l 791 964 l 986 964 l 616 450 l 616 0 l 425 0 l 425 450 l 68 964 m 595 1287 l 797 1287 l 797 1106 l 595 1106 l 595 1287 m 255 1287 l 456 1287 l 456 1106 l 255 1106 l 255 1287 z "},"Ź":{"ha":1032,"x_min":105,"x_max":991,"o":"m 125 964 l 973 964 l 973 860 l 351 157 l 991 157 l 991 0 l 105 0 l 105 105 l 713 806 l 125 806 l 125 964 m 736 1351 l 820 1219 l 380 991 l 303 1112 l 736 1351 z "},"ź":{"ha":842,"x_min":102,"x_max":741,"o":"m 102 670 l 724 670 l 724 584 l 340 143 l 741 143 l 741 0 l 102 0 l 102 86 l 479 527 l 102 527 l 102 670 m 547 1063 l 650 945 l 302 696 l 208 806 l 547 1063 z "},"Ż":{"ha":1032,"x_min":105,"x_max":991,"o":"m 125 964 l 973 964 l 973 860 l 351 157 l 991 157 l 991 0 l 105 0 l 105 105 l 713 806 l 125 806 l 125 964 m 427 1240 l 647 1240 l 647 1042 l 427 1042 l 427 1240 z "},"ż":{"ha":842,"x_min":102,"x_max":741,"o":"m 102 670 l 724 670 l 724 584 l 340 143 l 741 143 l 741 0 l 102 0 l 102 86 l 479 527 l 102 527 l 102 670 m 299 964 l 528 964 l 528 780 l 299 780 l 299 964 z "},"Ž":{"ha":1032,"x_min":105,"x_max":991,"o":"m 125 964 l 973 964 l 973 860 l 351 157 l 991 157 l 991 0 l 105 0 l 105 105 l 713 806 l 125 806 l 125 964 m 541 988 l 305 1224 l 420 1322 l 551 1191 l 686 1320 l 798 1230 l 541 988 z "},"ž":{"ha":842,"x_min":102,"x_max":741,"o":"m 102 670 l 724 670 l 724 584 l 340 143 l 741 143 l 741 0 l 102 0 l 102 86 l 479 527 l 102 527 l 102 670 m 404 694 l 168 930 l 271 1028 l 416 897 l 563 1026 l 667 938 l 404 694 z "},"Ƒ":{"ha":958,"x_min":-73,"x_max":871,"o":"m -73 -332 l -45 -196 l -16 -203 q 84 -219 40 -219 q 212 -104 212 -219 l 212 964 l 871 964 l 871 806 l 400 806 l 400 575 l 830 575 l 830 418 l 400 418 l 400 -109 q 323 -303 400 -239 q 119 -367 247 -367 q -48 -340 41 -367 l -73 -332 z "},"ƒ":{"ha":668,"x_min":-81,"x_max":694,"o":"m 78 670 l 208 670 l 208 715 q 243 858 208 806 q 345 941 278 912 q 496 969 411 969 q 669 941 578 969 l 694 934 l 666 798 l 637 805 q 537 821 578 821 q 473 812 500 821 q 432 792 446 804 q 411 764 418 781 q 402 734 404 746 q 401 706 401 722 l 401 670 l 642 670 l 642 527 l 401 527 l 401 -119 q 399 -158 401 -140 q 391 -202 397 -176 q 373 -250 384 -229 q 340 -294 361 -271 q 289 -332 318 -317 q 215 -357 260 -347 q 116 -367 171 -367 q -56 -339 37 -367 l -81 -332 l -53 -196 l -24 -203 q 76 -218 40 -218 q 139 -211 113 -218 q 178 -193 165 -203 q 198 -165 191 -182 q 207 -136 205 -148 q 208 -107 208 -125 l 208 527 l 78 527 l 78 670 z "},"Ȭ":{"ha":1255,"x_min":146,"x_max":1163,"o":"m 365 1463 l 972 1463 l 972 1320 l 365 1320 l 365 1463 m 842 1278 l 981 1257 l 975 1229 q 970 1204 974 1223 q 964 1177 966 1186 q 957 1148 962 1167 q 947 1119 951 1130 q 935 1092 943 1108 q 918 1066 926 1076 q 897 1044 909 1056 q 869 1027 884 1033 q 837 1016 855 1021 q 796 1012 818 1012 q 724 1026 758 1013 q 665 1058 689 1040 q 622 1093 642 1076 q 587 1122 602 1110 q 561 1135 571 1135 q 553 1133 557 1135 q 546 1127 549 1131 q 540 1120 543 1124 q 535 1108 538 1116 q 531 1096 533 1101 q 527 1081 530 1091 q 524 1066 525 1072 q 521 1049 523 1061 q 517 1033 519 1038 l 512 1006 l 372 1027 l 378 1055 q 384 1080 380 1062 q 389 1107 387 1097 q 396 1136 391 1118 q 406 1165 401 1154 q 419 1192 411 1176 q 435 1218 427 1208 q 457 1240 444 1228 q 484 1257 469 1251 q 516 1268 498 1263 q 557 1272 535 1272 q 629 1258 595 1271 q 688 1226 664 1244 q 731 1191 711 1208 q 766 1162 751 1174 q 792 1149 782 1149 q 800 1151 796 1149 q 807 1157 804 1153 q 813 1166 810 1162 q 818 1177 816 1170 q 823 1190 821 1185 q 827 1205 825 1196 q 830 1220 829 1215 q 833 1236 831 1226 q 836 1251 835 1246 l 842 1278 m 988 481 q 968 607 988 550 q 914 703 947 665 q 836 767 880 741 q 744 805 791 793 q 648 817 697 817 l 646 817 q 553 806 599 817 q 466 768 508 794 q 391 706 423 743 q 340 614 359 669 q 321 493 321 559 q 418 241 321 336 q 660 146 515 146 q 777 166 720 146 q 882 224 833 186 q 959 330 930 263 q 988 481 988 396 m 655 974 q 917 916 802 974 q 1097 748 1031 859 q 1163 492 1163 638 q 1099 230 1163 345 q 918 53 1034 116 q 650 -10 801 -10 q 460 21 550 -10 q 300 111 371 52 q 188 265 229 170 q 146 479 146 360 q 211 741 146 628 q 391 914 276 854 q 655 974 507 974 z "},"ȭ":{"ha":932,"x_min":88,"x_max":844,"o":"m 645 986 l 778 966 l 772 937 q 767 913 770 932 q 762 885 764 894 q 755 857 760 876 q 746 828 750 838 q 733 801 741 817 q 717 774 725 784 q 696 753 709 764 q 669 735 684 741 q 636 725 655 729 q 597 720 618 720 q 520 735 557 722 q 459 766 484 748 q 413 802 433 784 q 376 831 392 819 q 349 844 359 844 q 323 822 332 844 q 304 756 314 800 q 302 743 302 747 l 296 717 l 162 734 l 168 764 q 173 788 170 770 q 178 816 176 806 q 185 844 180 825 q 194 873 190 863 q 207 901 199 884 q 223 927 214 917 q 244 948 231 937 q 271 966 256 960 q 303 976 285 972 q 344 981 322 981 q 437 959 393 979 q 507 917 481 939 q 556 876 532 895 q 593 857 580 857 q 604 861 599 857 q 613 871 609 864 q 620 885 617 878 q 626 903 623 892 q 631 922 629 914 q 635 942 633 929 q 639 960 637 954 l 645 986 m 170 1166 l 783 1166 l 783 1023 l 170 1023 l 170 1166 m 471 683 q 742 594 639 683 q 844 347 844 506 q 740 83 844 180 q 458 -14 635 -14 q 189 78 290 -14 q 88 328 88 169 q 191 587 88 492 q 471 683 294 683 m 460 532 q 361 513 408 532 q 284 449 315 493 q 252 345 252 405 q 313 197 252 257 q 472 137 374 137 q 621 189 561 137 q 680 328 680 241 q 661 417 680 377 q 609 482 641 458 q 538 519 577 507 q 460 532 500 532 z "},"ȷ":{"ha":411,"x_min":12,"x_max":298,"o":"m 132 670 l 298 670 l 298 -65 q 298 -105 298 -88 q 293 -149 297 -122 q 281 -196 288 -176 q 259 -242 273 -217 q 224 -287 244 -267 q 172 -327 203 -307 q 101 -361 140 -347 l 78 -369 l 12 -237 l 38 -225 q 132 -77 132 -181 l 132 670 z "},"ˆ":{"ha":1003,"x_min":260,"x_max":704,"o":"m 492 1086 l 704 850 l 601 751 l 482 883 l 362 753 l 260 844 l 492 1086 z "},"ˇ":{"ha":731,"x_min":140,"x_max":583,"o":"m 351 722 l 140 958 l 243 1056 l 361 924 l 481 1054 l 583 966 l 351 722 z "},"˘":{"ha":731,"x_min":65,"x_max":671,"o":"m 65 950 l 195 1020 l 208 994 q 224 966 215 980 q 252 930 234 951 q 297 896 270 909 q 354 883 323 883 q 450 918 403 883 q 532 999 497 952 l 549 1020 l 671 937 l 653 913 q 512 785 594 836 q 343 734 431 734 q 247 751 292 734 q 168 796 201 768 q 111 858 134 824 q 73 928 87 891 l 65 950 z "},"˙":{"ha":814,"x_min":301,"x_max":499,"o":"m 301 1006 l 499 1006 l 499 808 l 301 808 l 301 1006 z "},"˚":{"ha":735,"x_min":217,"x_max":570,"o":"m 394 977 q 351 959 368 977 q 334 915 334 941 q 351 870 334 889 q 394 852 368 852 q 435 871 418 852 q 452 915 452 890 q 435 959 452 940 q 394 977 418 977 m 518 1042 q 544 1016 518 1042 q 570 915 570 989 q 518 787 570 840 q 394 734 467 734 q 269 787 321 734 q 217 915 217 840 q 269 1042 217 989 q 393 1095 321 1095 q 518 1042 466 1095 z "},"˛":{"ha":735,"x_min":284,"x_max":662,"o":"m 284 -227 q 375 -16 284 -119 q 602 125 467 88 l 629 132 l 662 4 l 638 -5 q 552 -48 591 -22 q 488 -103 512 -75 q 451 -157 464 -131 q 437 -205 437 -184 q 449 -239 437 -226 q 482 -252 461 -252 q 578 -215 516 -252 l 604 -200 l 661 -308 l 642 -322 q 449 -397 538 -397 q 330 -349 376 -397 q 284 -227 284 -300 z "},"˜":{"ha":949,"x_min":170,"x_max":806,"o":"m 597 951 q 608 954 603 951 q 620 963 614 956 q 630 976 625 969 q 640 993 634 982 q 650 1012 646 1004 q 661 1035 654 1021 q 673 1059 668 1049 l 685 1082 l 806 1028 l 794 1002 q 783 979 792 998 q 769 951 774 960 q 755 924 765 942 q 738 895 745 905 q 718 870 730 885 q 693 846 705 854 q 666 829 681 838 q 633 816 651 820 q 597 812 616 812 q 530 828 562 814 q 478 859 499 841 q 439 894 456 876 q 406 924 421 911 q 380 936 391 936 q 364 931 372 936 q 349 913 357 926 q 336 891 340 901 q 320 860 331 882 q 304 827 309 838 l 292 803 l 170 857 l 182 883 q 194 907 185 888 q 207 935 202 925 q 221 962 212 944 q 239 990 231 980 q 259 1016 248 1001 q 283 1040 271 1031 q 311 1057 296 1048 q 343 1070 326 1066 q 380 1074 361 1074 q 446 1059 415 1072 q 499 1028 477 1046 q 537 993 520 1010 q 570 963 555 975 q 597 951 585 951 z "},"˝":{"ha":1120,"x_min":148,"x_max":960,"o":"m 234 740 l 148 865 l 522 1126 l 601 1013 l 234 740 m 874 1126 l 960 1002 l 587 740 l 507 854 l 874 1126 z "},"ˮ":{"ha":566,"x_min":47,"x_max":492,"o":"m 311 1053 l 492 1053 l 492 707 l 311 707 l 311 1053 m 47 1053 l 228 1053 l 228 707 l 47 707 l 47 1053 z "},"̂":{"ha":1003,"x_min":260,"x_max":704,"o":"m 492 1086 l 704 850 l 601 751 l 482 883 l 362 753 l 260 844 l 492 1086 z "},"Ḃ":{"ha":1077,"x_min":197,"x_max":992,"o":"m 526 820 l 368 820 l 368 553 q 573 566 515 556 q 724 684 714 592 q 724 699 724 691 q 717 739 724 720 q 690 777 709 758 q 629 808 671 797 q 526 820 587 820 m 536 444 q 368 437 531 444 l 368 157 l 519 157 q 566 158 547 157 q 619 161 585 158 q 677 169 653 163 q 731 184 702 174 q 778 208 760 194 q 809 244 796 222 q 821 294 821 267 q 744 404 821 364 q 536 444 667 444 m 197 964 l 564 964 q 677 954 626 964 q 764 929 728 945 q 826 893 799 914 q 870 849 854 871 q 896 803 886 827 q 909 758 906 778 q 913 718 913 738 q 888 625 913 672 q 825 545 863 577 q 946 447 901 513 q 992 302 992 381 q 988 257 992 280 q 970 203 983 233 q 937 145 958 172 q 881 90 916 117 q 800 44 846 63 q 686 12 753 24 q 538 0 618 0 l 197 0 l 197 964 m 461 1287 l 685 1287 l 685 1089 l 461 1089 l 461 1287 z "},"ḃ":{"ha":913,"x_min":129,"x_max":826,"o":"m 296 654 q 474 684 383 684 q 573 674 526 684 q 668 639 621 664 q 749 577 715 614 q 805 479 783 539 q 826 342 826 418 q 725 81 826 176 q 451 -14 624 -14 q 262 22 349 -14 l 252 0 l 129 0 l 129 1025 l 296 1025 l 296 654 m 429 536 q 296 513 361 536 l 296 149 q 432 130 364 130 q 492 134 463 130 q 553 152 522 139 q 608 186 585 165 q 647 243 631 208 q 662 325 662 279 q 646 415 662 376 q 607 476 631 454 q 551 513 583 498 q 489 531 518 527 q 429 536 460 536 m 368 1287 l 602 1287 l 602 1089 l 368 1089 l 368 1287 z "},"Ḋ":{"ha":1200,"x_min":197,"x_max":1092,"o":"m 503 1287 l 730 1287 l 730 1089 l 503 1089 l 503 1287 m 528 806 l 368 806 l 368 157 l 480 157 q 535 158 513 157 q 593 162 557 159 q 655 170 629 165 q 715 187 682 176 q 774 213 748 198 q 826 252 800 229 q 871 307 852 276 q 920 488 920 383 q 902 597 920 547 q 856 682 884 648 q 788 742 827 716 q 709 782 749 768 q 627 802 669 796 q 528 806 591 806 m 523 964 q 699 949 618 964 q 836 911 779 935 q 939 852 894 887 q 1012 778 984 817 q 1059 692 1040 739 q 1084 602 1077 646 q 1092 510 1092 558 q 1084 410 1092 458 q 1061 311 1077 361 q 1015 216 1044 260 q 946 133 986 172 q 846 65 905 94 q 715 21 787 37 q 439 0 618 0 l 197 0 l 197 964 l 523 964 z "},"ḋ":{"ha":917,"x_min":88,"x_max":788,"o":"m 252 340 q 268 254 252 292 q 307 194 283 216 q 362 157 330 172 q 424 138 395 143 q 484 134 453 134 q 621 157 554 134 l 621 520 q 482 541 549 541 q 423 536 452 541 q 362 518 395 532 q 307 484 330 505 q 268 426 283 463 q 252 340 252 389 m 330 1089 l 330 1287 l 563 1287 l 563 1089 l 330 1089 m 463 684 q 621 661 541 684 l 621 1025 l 788 1025 l 788 0 l 665 0 l 651 31 q 441 -14 553 -14 q 339 -3 388 -14 q 244 33 290 7 q 163 95 197 58 q 109 192 130 133 q 88 324 88 251 q 190 590 88 496 q 463 684 292 684 z "},"Ḟ":{"ha":958,"x_min":197,"x_max":866,"o":"m 368 806 l 368 575 l 825 575 l 825 418 l 368 418 l 368 0 l 197 0 l 197 964 l 866 964 l 866 806 l 368 806 m 404 1287 l 642 1287 l 642 1089 l 404 1089 l 404 1287 z "},"ḟ":{"ha":667,"x_min":92,"x_max":689,"o":"m 202 710 q 202 746 202 732 q 205 783 203 760 q 213 823 208 807 q 228 860 218 838 q 252 895 238 881 q 288 924 266 909 q 337 948 309 939 q 403 963 365 958 q 487 969 441 969 q 665 941 572 969 l 689 934 l 661 798 l 633 805 q 532 821 568 821 q 409 793 449 821 q 369 715 369 765 l 369 670 l 637 670 l 637 527 l 369 527 l 369 0 l 202 0 l 202 527 l 92 527 l 92 670 l 202 670 l 202 710 m 294 1240 l 540 1240 l 540 1042 l 294 1042 l 294 1240 z "},"Ṁ":{"ha":1389,"x_min":197,"x_max":1246,"o":"m 197 964 l 404 964 l 724 410 l 1049 964 l 1246 964 l 1246 0 l 1076 0 l 1076 721 l 802 276 l 640 276 l 368 721 l 368 0 l 197 0 l 197 964 m 606 1287 l 822 1287 l 822 1089 l 606 1089 l 606 1287 z "},"ṁ":{"ha":1340,"x_min":122,"x_max":1218,"o":"m 448 525 q 289 488 389 525 l 289 0 l 122 0 l 122 670 l 246 670 l 265 626 q 502 683 385 683 q 684 616 618 683 q 954 682 810 682 q 1063 667 1016 682 q 1140 627 1111 652 q 1186 565 1168 602 q 1211 487 1204 527 q 1218 397 1218 448 l 1218 0 l 1050 0 l 1050 396 q 1017 492 1050 460 q 909 525 984 525 q 747 488 846 525 q 753 385 753 450 l 753 0 l 586 0 l 586 398 q 448 525 586 525 m 576 964 l 782 964 l 782 766 l 576 766 l 576 964 z "},"Ṗ":{"ha":1019,"x_min":197,"x_max":947,"o":"m 197 964 l 543 964 q 593 963 572 964 q 649 960 614 963 q 710 952 684 958 q 768 938 735 947 q 824 915 801 928 q 872 881 848 902 q 912 834 897 860 q 937 772 927 808 q 947 692 947 736 q 931 583 947 631 q 889 500 915 534 q 824 443 864 467 q 744 406 785 419 q 650 384 704 392 q 552 374 597 376 q 451 372 508 372 q 368 374 423 372 l 368 0 l 197 0 l 197 964 m 368 806 l 368 532 q 463 528 420 528 q 543 530 509 528 q 615 536 576 532 q 679 551 653 541 q 728 577 705 562 q 761 617 750 593 q 772 674 772 642 q 763 725 772 703 q 734 761 753 747 q 692 785 715 775 q 637 799 669 794 q 576 805 605 803 q 508 806 547 806 l 368 806 m 412 1287 l 630 1287 l 630 1089 l 412 1089 l 412 1287 z "},"ṗ":{"ha":909,"x_min":122,"x_max":822,"o":"m 382 766 l 382 964 l 612 964 l 612 766 l 382 766 m 658 325 q 643 415 658 376 q 604 476 627 454 q 549 512 581 498 q 489 531 517 526 q 430 535 460 535 q 296 511 363 535 l 296 150 q 432 130 366 130 q 491 134 463 130 q 551 152 519 139 q 605 186 582 165 q 643 243 628 208 q 658 325 658 279 m 261 638 q 474 683 365 683 q 572 673 525 683 q 666 638 620 663 q 746 575 712 613 q 801 478 780 538 q 822 342 822 418 q 722 81 822 176 q 451 -14 621 -14 q 296 9 374 -14 l 296 -360 l 122 -360 l 122 670 l 245 670 l 261 638 z "},"Ṡ":{"ha":1034,"x_min":163,"x_max":947,"o":"m 463 1287 l 688 1287 l 688 1089 l 463 1089 l 463 1287 m 629 972 q 895 932 764 972 l 923 924 l 867 767 l 842 774 q 618 808 719 808 q 447 776 518 808 q 376 692 376 743 q 408 634 376 659 q 490 592 439 609 q 601 557 540 574 q 722 518 661 541 q 833 467 783 496 q 915 389 884 437 q 947 277 947 340 q 933 197 947 237 q 886 119 919 157 q 805 51 853 80 q 681 4 756 22 q 513 -14 606 -14 q 346 4 420 -14 q 188 54 271 21 l 163 63 l 220 227 l 247 217 q 530 156 418 156 q 699 188 634 156 q 764 272 764 220 q 744 324 764 301 q 691 363 724 347 q 615 393 658 379 q 524 419 572 406 q 429 447 477 432 q 339 483 382 462 q 262 530 296 504 q 210 596 229 557 q 190 685 190 636 q 310 890 190 807 q 629 972 429 972 z "},"ṡ":{"ha":800,"x_min":88,"x_max":726,"o":"m 307 766 l 307 964 l 549 964 l 549 766 l 307 766 m 547 200 q 521 230 546 217 q 458 253 496 243 q 373 274 419 263 q 281 301 327 285 q 197 338 235 317 q 136 394 159 359 q 112 474 112 429 q 122 527 112 500 q 157 583 132 554 q 222 633 183 612 q 328 669 262 655 q 476 683 393 683 q 564 678 525 683 q 620 669 604 673 q 669 654 636 665 l 697 646 l 651 509 l 625 516 q 454 541 537 541 q 380 535 412 541 q 331 521 348 529 q 304 503 315 513 q 292 485 294 492 q 289 472 289 478 q 313 444 289 456 q 376 420 337 431 q 461 398 414 410 q 554 369 507 386 q 640 330 601 352 q 702 275 678 309 q 726 199 726 241 q 718 142 726 170 q 685 86 709 115 q 623 36 661 57 q 521 0 585 14 q 373 -14 456 -14 q 113 39 243 -14 l 88 50 l 138 185 l 164 175 q 379 130 286 130 q 507 147 466 130 q 547 200 547 164 z "},"Ṫ":{"ha":932,"x_min":58,"x_max":928,"o":"m 58 964 l 928 964 l 928 806 l 578 806 l 578 0 l 408 0 l 408 806 l 58 806 l 58 964 m 382 1287 l 603 1287 l 603 1089 l 382 1089 l 382 1287 z "},"ṫ":{"ha":623,"x_min":47,"x_max":594,"o":"m 568 12 q 401 -14 469 -14 q 291 -1 337 -14 q 218 32 244 12 q 176 84 191 52 q 156 145 161 115 q 151 215 151 175 l 151 527 l 47 527 l 47 670 l 151 670 l 151 862 l 318 862 l 318 670 l 564 670 l 564 527 l 318 527 l 318 227 q 324 194 318 210 q 342 163 330 178 q 381 138 355 147 q 442 129 407 129 q 541 142 460 129 l 568 147 l 594 19 l 568 12 m 119 1099 l 359 1099 l 359 901 l 119 901 l 119 1099 z "},"Ẁ":{"ha":1628,"x_min":95,"x_max":1607,"o":"m 95 964 l 277 964 l 498 223 l 777 964 l 935 964 l 1164 223 l 1435 964 l 1607 964 l 1246 0 l 1082 0 l 850 737 l 578 0 l 414 0 l 95 964 m 734 1318 l 1152 1079 l 1074 959 l 649 1186 l 734 1318 z "},"ẁ":{"ha":1310,"x_min":41,"x_max":1293,"o":"m 41 670 l 219 670 l 380 173 l 588 670 l 738 670 l 897 172 l 1114 670 l 1293 670 l 972 0 l 820 0 l 662 481 l 450 0 l 298 0 l 41 670 m 567 1063 l 879 806 l 775 696 l 451 945 l 567 1063 z "},"Ẃ":{"ha":1628,"x_min":95,"x_max":1607,"o":"m 95 964 l 277 964 l 498 223 l 777 964 l 935 964 l 1164 223 l 1435 964 l 1607 964 l 1246 0 l 1082 0 l 850 737 l 578 0 l 414 0 l 95 964 m 1006 1318 l 1091 1186 l 667 959 l 588 1079 l 1006 1318 z "},"ẃ":{"ha":1310,"x_min":41,"x_max":1293,"o":"m 41 670 l 219 670 l 380 173 l 588 670 l 738 670 l 897 172 l 1114 670 l 1293 670 l 972 0 l 820 0 l 662 481 l 450 0 l 298 0 l 41 670 m 787 1063 l 903 945 l 579 696 l 475 806 l 787 1063 z "},"Ẅ":{"ha":1628,"x_min":95,"x_max":1607,"o":"m 95 964 l 277 964 l 498 223 l 777 964 l 935 964 l 1164 223 l 1435 964 l 1607 964 l 1246 0 l 1082 0 l 850 737 l 578 0 l 414 0 l 95 964 m 587 1287 l 789 1287 l 789 1106 l 587 1106 l 587 1287 m 913 1287 l 1114 1287 l 1114 1106 l 913 1106 l 913 1287 z "},"ẅ":{"ha":1310,"x_min":41,"x_max":1293,"o":"m 41 670 l 219 670 l 380 173 l 588 670 l 738 670 l 897 172 l 1114 670 l 1293 670 l 972 0 l 820 0 l 662 481 l 450 0 l 298 0 l 41 670 m 390 964 l 601 964 l 601 783 l 390 783 l 390 964 m 725 964 l 935 964 l 935 783 l 725 783 l 725 964 z "},"Ỳ":{"ha":968,"x_min":68,"x_max":986,"o":"m 68 964 l 270 964 l 528 590 l 791 964 l 986 964 l 616 450 l 616 0 l 425 0 l 425 450 l 68 964 m 362 1318 l 798 1079 l 720 959 l 277 1186 l 362 1318 z "},"ỳ":{"ha":823,"x_min":34,"x_max":815,"o":"m 34 670 l 210 670 l 433 155 l 640 670 l 815 670 l 373 -360 l 172 -360 l 338 2 l 34 670 m 304 1063 l 635 806 l 534 696 l 194 945 l 304 1063 z "},"–":{"ha":842,"x_min":0,"x_max":842,"o":"m 0 522 l 842 522 l 842 372 l 0 372 l 0 522 z "},"—":{"ha":994,"x_min":0,"x_max":994,"o":"m 0 522 l 994 522 l 994 372 l 0 372 l 0 522 z "},"―":{"ha":1141,"x_min":0,"x_max":1141,"o":"m 0 522 l 1141 522 l 1141 372 l 0 372 l 0 522 z "},"‘":{"ha":305,"x_min":24,"x_max":315,"o":"m 24 1053 l 214 1053 l 315 703 l 125 703 l 24 1053 z "},"’":{"ha":305,"x_min":-10,"x_max":281,"o":"m 91 1053 l 281 1053 l 180 703 l -10 703 l 91 1053 z "},"‚":{"ha":305,"x_min":-10,"x_max":281,"o":"m 91 175 l 281 175 l 180 -174 l -10 -174 l 91 175 z "},"‛":{"ha":305,"x_min":24,"x_max":315,"o":"m 214 1053 l 315 703 l 125 703 l 24 1053 l 214 1053 z "},"“":{"ha":563,"x_min":-10,"x_max":539,"o":"m 539 1053 l 438 703 l 248 703 l 349 1053 l 539 1053 m 281 1053 l 180 703 l -10 703 l 91 1053 l 281 1053 z "},"”":{"ha":563,"x_min":-10,"x_max":539,"o":"m 349 1053 l 539 1053 l 438 703 l 248 703 l 349 1053 m 91 1053 l 281 1053 l 180 703 l -10 703 l 91 1053 z "},"„":{"ha":563,"x_min":-10,"x_max":539,"o":"m 349 173 l 539 173 l 438 -176 l 248 -176 l 349 173 m 91 173 l 281 173 l 180 -176 l -10 -176 l 91 173 z "},"‟":{"ha":563,"x_min":24,"x_max":573,"o":"m 214 1053 l 315 703 l 125 703 l 24 1053 l 214 1053 m 472 1053 l 573 703 l 382 703 l 281 1053 l 472 1053 z "},"†":{"ha":639,"x_min":87,"x_max":551,"o":"m 243 768 l 87 762 l 87 895 l 243 888 l 243 1053 l 395 1053 l 395 888 l 551 895 l 551 762 l 395 768 l 395 73 l 243 73 l 243 768 z "},"‡":{"ha":639,"x_min":87,"x_max":551,"o":"m 243 768 l 87 762 l 87 895 l 243 888 l 243 1053 l 395 1053 l 395 888 l 551 895 l 551 762 l 395 768 l 395 94 l 551 100 l 551 -33 l 395 -26 l 395 -191 l 243 -191 l 243 -26 l 87 -33 l 87 100 l 243 94 l 243 768 z "},"•":{"ha":434,"x_min":101,"x_max":333,"o":"m 101 613 l 333 613 l 333 381 l 101 381 l 101 613 z "},"…":{"ha":1166,"x_min":94,"x_max":1059,"o":"m 94 170 l 292 170 l 292 -28 l 94 -28 l 94 170 m 477 170 l 675 170 l 675 -28 l 477 -28 l 477 170 m 861 170 l 1059 170 l 1059 -28 l 861 -28 l 861 170 z "},"‰":{"ha":1302,"x_min":5,"x_max":1255,"o":"m 700 991 l 883 991 l 188 -28 l 5 -28 l 700 991 m 1255 238 q 1203 77 1255 137 q 1072 17 1152 17 q 1005 28 1036 17 q 948 64 975 40 q 906 134 922 89 q 890 239 890 178 q 944 395 890 339 q 1073 450 998 450 q 1122 445 1098 450 q 1171 424 1145 439 q 1214 386 1196 409 q 1244 325 1232 363 q 1255 238 1255 287 m 1072 330 q 1012 239 1012 330 q 1073 136 1012 136 q 1133 236 1133 136 q 1072 330 1133 330 m 844 238 q 792 77 844 137 q 661 17 740 17 q 594 28 625 17 q 536 64 563 40 q 494 134 510 89 q 479 239 479 178 q 533 395 479 339 q 661 450 587 450 q 710 445 686 450 q 759 424 734 439 q 802 386 784 409 q 832 325 821 363 q 844 238 844 287 m 661 330 q 600 239 600 330 q 661 136 600 136 q 722 236 722 136 q 661 330 722 330 m 404 741 q 352 579 404 640 q 221 519 300 519 q 154 530 185 519 q 97 567 123 542 q 54 636 70 591 q 39 741 39 681 q 93 897 39 841 q 222 952 147 952 q 270 947 246 952 q 318 927 293 942 q 361 889 342 912 q 392 828 380 867 q 404 741 404 790 m 221 832 q 161 742 161 832 q 222 638 161 638 q 282 739 282 638 q 221 832 282 832 z "},"′":{"ha":275,"x_min":47,"x_max":228,"o":"m 47 1053 l 228 1053 l 228 707 l 47 707 l 47 1053 z "},"″":{"ha":549,"x_min":47,"x_max":503,"o":"m 47 1053 l 228 1053 l 228 707 l 47 707 l 47 1053 m 321 1053 l 503 1053 l 503 707 l 321 707 l 321 1053 z "},"‴":{"ha":824,"x_min":47,"x_max":777,"o":"m 47 1053 l 228 1053 l 228 707 l 47 707 l 47 1053 m 321 1053 l 503 1053 l 503 707 l 321 707 l 321 1053 m 596 1053 l 777 1053 l 777 707 l 596 707 l 596 1053 z "},"‵":{"ha":275,"x_min":15,"x_max":260,"o":"m 15 1053 l 203 1053 l 260 703 l 71 703 l 15 1053 z "},"‹":{"ha":412,"x_min":17,"x_max":405,"o":"m 209 698 l 405 698 l 198 422 l 405 147 l 210 147 l 17 422 l 209 698 z "},"›":{"ha":412,"x_min":7,"x_max":395,"o":"m 7 698 l 202 698 l 395 422 l 203 147 l 7 147 l 214 422 l 7 698 z "},"‼":{"ha":882,"x_min":125,"x_max":757,"o":"m 125 163 l 316 163 l 316 -28 l 125 -28 l 125 163 m 135 991 l 306 991 l 306 283 l 135 283 l 135 991 m 566 163 l 757 163 l 757 -28 l 566 -28 l 566 163 m 576 991 l 747 991 l 747 283 l 576 283 l 576 991 z "},"‽":{"ha":709,"x_min":32,"x_max":622,"o":"m 183 163 l 374 163 l 374 -28 l 183 -28 l 183 163 m 622 742 q 607 640 622 686 q 569 563 593 594 q 518 505 546 532 q 461 453 490 477 q 410 404 433 429 q 372 343 387 378 q 357 266 357 308 l 357 238 l 200 238 l 200 760 l 357 760 l 357 572 q 429 646 403 610 q 454 726 454 682 q 446 767 454 747 q 419 806 438 787 q 364 838 401 826 q 276 850 327 850 q 113 820 187 850 l 88 810 l 32 942 l 56 954 q 287 1002 157 1002 q 382 996 337 1002 q 472 970 427 989 q 550 924 517 952 q 602 849 582 895 q 622 742 622 802 z "},"⁄":{"ha":703,"x_min":-35,"x_max":737,"o":"m 554 991 l 737 991 l 149 -28 l -35 -28 l 554 991 z "},"⁋":{"ha":899,"x_min":128,"x_max":866,"o":"m 128 1053 l 519 1053 q 559 1052 542 1053 q 605 1048 576 1051 q 656 1041 634 1046 q 707 1025 679 1036 q 756 1001 735 1015 q 800 965 778 987 q 835 916 821 943 q 857 851 848 889 q 866 768 866 813 q 847 641 866 698 q 799 548 828 584 q 729 488 769 513 q 650 452 688 463 q 570 438 611 441 l 570 -28 l 402 -28 l 402 895 l 295 895 l 295 -28 l 128 -28 l 128 1053 z "},"€":{"ha":905,"x_min":6,"x_max":886,"o":"m 163 314 l 6 314 l 6 458 l 143 458 q 142 480 142 465 q 146 547 142 510 l 50 547 l 50 691 l 176 691 q 339 916 227 833 q 604 998 452 998 q 850 945 727 998 l 874 935 l 825 787 l 798 798 q 602 841 684 841 q 458 801 522 841 q 355 691 395 761 l 644 691 l 644 547 l 307 547 q 302 480 302 517 q 302 458 302 465 l 600 458 l 600 314 l 336 314 q 448 173 374 227 q 623 120 522 120 q 809 159 710 120 l 836 169 l 886 33 l 863 22 q 597 -41 730 -41 q 320 56 435 -41 q 163 314 204 153 z "},"™":{"ha":966,"x_min":58,"x_max":874,"o":"m 277 623 l 176 623 l 176 954 l 58 954 l 58 1042 l 395 1042 l 395 954 l 277 954 l 277 623 m 451 1042 l 557 1042 l 663 846 l 766 1042 l 874 1042 l 874 623 l 774 623 l 774 876 l 692 726 l 626 726 l 551 873 l 551 623 l 451 623 l 451 1042 z "},"ﬀ":{"ha":1335,"x_min":92,"x_max":1356,"o":"m 202 710 q 202 746 202 732 q 205 783 203 760 q 213 823 208 807 q 228 860 218 838 q 252 895 238 881 q 288 924 266 909 q 337 948 309 939 q 403 963 365 958 q 487 969 441 969 q 665 941 572 969 l 689 934 l 661 798 l 633 805 q 532 821 568 821 q 409 793 449 821 q 369 715 369 765 l 369 670 l 869 670 l 869 710 q 870 746 869 732 q 873 783 870 760 q 881 823 876 807 q 896 860 886 838 q 919 895 905 881 q 955 924 933 909 q 1004 948 977 939 q 1070 963 1032 958 q 1154 969 1108 969 q 1332 941 1239 969 l 1356 934 l 1329 798 l 1300 805 q 1200 821 1236 821 q 1076 793 1116 821 q 1036 715 1036 765 l 1036 670 l 1304 670 l 1304 527 l 1036 527 l 1036 0 l 869 0 l 869 527 l 369 527 l 369 0 l 202 0 l 202 527 l 92 527 l 92 670 l 202 670 l 202 710 z "},"ﬁ":{"ha":1078,"x_min":92,"x_max":966,"o":"m 202 710 q 202 746 202 732 q 205 783 203 760 q 213 823 208 807 q 228 860 218 838 q 252 895 238 881 q 288 924 266 909 q 337 948 309 939 q 403 963 365 958 q 487 969 441 969 q 665 941 572 969 l 689 934 l 661 798 l 633 805 q 532 821 568 821 q 409 793 449 821 q 369 715 369 765 l 369 670 l 637 670 l 637 527 l 369 527 l 369 0 l 202 0 l 202 527 l 92 527 l 92 670 l 202 670 l 202 710 m 789 670 l 956 670 l 956 0 l 789 0 l 789 670 m 779 964 l 966 964 l 966 780 l 779 780 l 779 964 z "},"ﬂ":{"ha":1105,"x_min":92,"x_max":970,"o":"m 202 710 q 202 746 202 732 q 205 783 203 760 q 213 823 208 807 q 228 860 218 838 q 252 895 238 881 q 288 924 266 909 q 337 948 309 939 q 403 963 365 958 q 487 969 441 969 q 665 941 572 969 l 689 934 l 661 798 l 633 805 q 532 821 568 821 q 409 793 449 821 q 369 715 369 765 l 369 670 l 637 670 l 637 527 l 369 527 l 369 0 l 202 0 l 202 527 l 92 527 l 92 670 l 202 670 l 202 710 m 803 1025 l 970 1025 l 970 0 l 803 0 l 803 1025 z "},"ﬃ":{"ha":1746,"x_min":92,"x_max":1634,"o":"m 202 710 q 202 746 202 732 q 205 783 203 760 q 213 823 208 807 q 228 860 218 838 q 252 895 238 881 q 288 924 266 909 q 337 948 309 939 q 403 963 365 958 q 487 969 441 969 q 665 941 572 969 l 689 934 l 661 798 l 633 805 q 532 821 568 821 q 409 793 449 821 q 369 715 369 765 l 369 670 l 869 670 l 869 710 q 870 746 869 732 q 873 783 870 760 q 881 823 876 807 q 896 860 886 838 q 919 895 905 881 q 955 924 933 909 q 1004 948 977 939 q 1070 963 1032 958 q 1154 969 1108 969 q 1332 941 1239 969 l 1356 934 l 1329 798 l 1300 805 q 1200 821 1236 821 q 1076 793 1116 821 q 1036 715 1036 765 l 1036 670 l 1304 670 l 1304 527 l 1036 527 l 1036 0 l 869 0 l 869 527 l 369 527 l 369 0 l 202 0 l 202 527 l 92 527 l 92 670 l 202 670 l 202 710 m 1447 964 l 1634 964 l 1634 780 l 1447 780 l 1447 964 m 1457 670 l 1624 670 l 1624 0 l 1457 0 l 1457 670 z "},"ﬄ":{"ha":1773,"x_min":92,"x_max":1637,"o":"m 202 710 q 202 746 202 732 q 205 783 203 760 q 213 823 208 807 q 228 860 218 838 q 252 895 238 881 q 288 924 266 909 q 337 948 309 939 q 403 963 365 958 q 487 969 441 969 q 665 941 572 969 l 689 934 l 661 798 l 633 805 q 532 821 568 821 q 409 793 449 821 q 369 715 369 765 l 369 670 l 869 670 l 869 710 q 870 746 869 732 q 873 783 870 760 q 881 823 876 807 q 896 860 886 838 q 919 895 905 881 q 955 924 933 909 q 1004 948 977 939 q 1070 963 1032 958 q 1154 969 1108 969 q 1332 941 1239 969 l 1356 934 l 1329 798 l 1300 805 q 1200 821 1236 821 q 1076 793 1116 821 q 1036 715 1036 765 l 1036 670 l 1304 670 l 1304 527 l 1036 527 l 1036 0 l 869 0 l 869 527 l 369 527 l 369 0 l 202 0 l 202 527 l 92 527 l 92 670 l 202 670 l 202 710 m 1470 1025 l 1637 1025 l 1637 0 l 1470 0 l 1470 1025 z "}}}
